<?xml version="1.0" encoding="UTF-8"?>
<svg id="Lag_1" data-name="Lag 1" xmlns="http://www.w3.org/2000/svg" viewBox="0 0 248.51 356.4">
  <defs>
    <style>
      .cls-1 {
        fill: #7f6c37;
      }

      .cls-2 {
        fill: #b92d25;
      }

      .cls-3 {
        fill: #7a1b1b;
      }

      .cls-4 {
        fill: #f0d465;
      }

      .cls-5 {
        fill: #aca261;
      }

      .cls-6 {
        fill: #fff;
      }

      .cls-7 {
        fill: #fcf2e6;
      }

      .cls-8 {
        fill: #632e16;
      }

      .cls-9 {
        fill: #3a1d0d;
      }

      .cls-10 {
        fill: none;
        stroke: #3a1d0d;
        stroke-linecap: round;
        stroke-miterlimit: 10;
      }

      .cls-11 {
        fill: #89774e;
      }
    </style>
  </defs>
  <path id="højrearm" class="cls-8" d="M165.21,201.9c13.9,5.6,47.3-8.1,58.5-12.2,5.7-2.1,11.6-.3,12.6-2.3,1-2.1-7.6-2.6-7.6-2.6,0,0,6.9-3.3,5.7-5.2-1.8-3.1-8.1,1.5-8.1,1.5,0,0,1.1-3,1.3-3.9s.7-3.2-.5-4c-2.9-2-2.6,5.3-8.4,11s-22.6,12.9-39.8,12.5c-7-.2-10.4-1.4-13.6,5.2h-.1Z"/>
  <g id="svampekrop">
    <path id="ventrearm" class="cls-8" d="M60.91,184.2c-14.9,1-39.2,28.1-47.5,36.8-4.2,4.4-10.4,5.4-10.3,7.6s8-1,8-1c0,0-4.8,6-2.9,7.2,3,2,6.6-4.9,6.6-4.9,0,0,.3,3.2.6,4.1s.8,3.2,2.2,3.4c3.5.5,0-5.9,2.8-13.7,1.6-4.7,14.8-21.6,30.5-28.8,6.4-2.9,10-3.3,10-10.7h0Z"/>
    <g id="krop">
      <g>
        <path class="cls-7" d="M231.11,95.3c2,5.2,1.9,11,1.1,16.5-.6,4-1.7,8.1-4.4,11.1-3,3.4-7.8,4.8-12.3,4.9-8.5.2-17-4.2-21.5-11.5-4.4-7.2-4.4-17.1.4-24,8.9-12.9,30.7-12.2,36.6,3h.1Z"/>
        <path class="cls-7" d="M187.51,223.9c1.4,4.1,2.7,12.9,1.5,19.4-1.4,7.7-5.2,14-12.1,17.8-11.6,6.4-25.5,6.6-38.8,5.9-9.2-.5-18.5-1.4-27.6-2.5-9.2-.9-18.4-2-27.5-3.5-13.1-2.1-26.7-5.2-36.7-13.9-5.9-5.2-10.4-12.6-10.1-20.4.2-6.6,3.6-12.8,7.6-18.1,3.9-5.4,7-10.5,10-16.4,6.4-12.6,3.7-27.6,4.6-41.5h0s1.4-11,2.4-17.8c0,0,2.4-15.3,5.5-21.3h0c40.2-2.8,79.7,2.2,115,19.4,2.2,11.9,2.5,31.1,1.5,41.6-2,13.9-5.4,19.4-1.8,33.2,1.7,6.4,4.2,11.9,6.3,18.1h.2Z"/>
        <path class="cls-7" d="M176.41,34.8c10.1,7.8,9.7,20,5.7,27.5-2,3.6-4.7,6.9-8.8,8.5-4.4,1.6-9.9,1.1-15.2-.8-10.7-3.7-20.6-13.1-23.6-23.2-3-10,1.4-19.9,10.6-22.6,9.8-2.9,22.1,3.5,31.3,10.6Z"/>
        <path class="cls-7" d="M85.61,63.7c6.9-3.3,16.2,3.1,15.6,10.8-.6,7.6-10.8,12.5-17.1,8.1-6.3-4.3-5.4-15.6,1.5-18.9Z"/>
        <path class="cls-7" d="M43.31,73.3c-11,1-23.7-7.2-24.4-18.1h0c10-13.4,23.1-24.8,37.5-33.7v.2c7.6,8.1,11.6,19.6,9.4,30.4-2.3,10.8-11.5,20.1-22.4,21.1l-.1.1Z"/>
        <path class="cls-2" d="M3.01,85.9c3.5-11.2,8.9-21.5,15.9-30.8h0c.8,11,13.5,19.2,24.4,18.1,11-1,20.2-10.4,22.4-21.1,2.2-10.8-1.8-22.3-9.2-30.4v-.2c3.4-2.2,7-4.2,10.7-6C100.41-1.4,141.71-6.7,174.61,10.9c29.2,15.6,47,46.1,62.1,75.6,4.8,9.3,9.5,18.9,11.1,29.2,2.7,17.4-2.2,38.8-17.5,47.3-14,7.8-27,8.8-47.3,9.5,1-10.5.7-29.7-1.5-41.6-35.3-17.2-74.8-22.3-115-19.4h0c-3.2,6-5.5,21.3-5.5,21.3-1.1,6.8-2.4,17.8-2.4,17.8h0c-.5,0-15.6-1.7-19.1-2.8-11.1-3.3-22.8-7-30.5-15.7C-1.79,120-1.69,101.4,3.11,85.8l-.1.1ZM232.31,111.9c.8-5.5.9-11.3-1.1-16.5-6-15.2-27.7-15.9-36.6-3-4.8,7-4.8,16.8-.4,24,4.4,7.2,13,11.6,21.5,11.5,4.5,0,9.2-1.5,12.3-4.9,2.7-3,3.8-7.1,4.4-11.1h-.1ZM182.11,62.2c4-7.5,4.3-19.7-5.7-27.5-9.2-7.1-21.5-13.4-31.3-10.6-9.3,2.7-13.7,12.6-10.6,22.6,3,10,12.9,19.4,23.6,23.2,5.3,1.8,10.8,2.4,15.2.8,4.1-1.5,6.8-4.8,8.8-8.5ZM101.21,74.5c.6-7.6-8.7-14-15.6-10.8-6.9,3.3-7.8,14.6-1.5,18.9s16.5-.5,17.1-8.1Z"/>
      </g>
      <path class="cls-3" d="M65.51,112c-20.3,2.1-42.6,4-61.6,11.7,3.8,9.1,13.2,15.8,23.1,19.8,9.2,3.7,20.3,5.7,31,6.8,1.1-11.4,4.6-33.3,7.4-38.3h.1Z"/>
      <path class="cls-3" d="M182.21,132c1.8,13.4,2.1,26.4,1.1,39.9,15.5-.3,30-1.5,42.3-7.2-6.8-11.4-27.5-24.7-43.5-32.7h.1Z"/>
    </g>
    <g id="sko">
      <path class="cls-1" d="M84.41,340.1c-1,.6-2.9,1.5-4,2l3.3,2.1c.2-1.1.5-2.7.7-4.1Z"/>
      <path class="cls-1" d="M132.91,343.2c0,1.1,0,3.1.2,4.2,1.3-.8,3.8-2.6,3.2-2-1-.6-2.1-1.4-3.3-2.1l-.1-.1Z"/>
      <g id="højrefod">
        <g>
          <path class="cls-4" d="M179.11,342c.7,2.9.5,10.1-1.3,11.9-2.2,2.2-7.5,2.5-10.5,2.5-11.1-.1-21.2-4.3-30.5-10.4-1.3-.9-2.7-1.8-4-2.7v4.1c.1,0-9.4-6.1-9.6-6.1-.1-3.1,0-5.6-.2-8.5.2.4.4.8.7,1.1,1.2,1.4,3.5,2.2,5,3.2,6.8,4.2,13.4,8.7,21.9,11.7,3.3,1.1,5.9,2.3,9.3,2.9,2.5.5,5.7.6,8.2.6,1.9,0,3.9,0,5.8-.6,1.9-.6,3.6-1.8,4.4-3.6.8-1.9.9-4,.5-6l.3-.1Z"/>
          <path class="cls-5" d="M123.21,332.8c-1.1-2.2-.8-4.9-.7-7.4.2-12.6.3-25.1.5-37.7h.2c.1.2.3.4.5.7,1,1.2,3.2,1.6,5.2,1.8,9.5,1.2,19.4.8,28.6-1.1,1.5-.3,3.1-.7,3.8-1.7.2-.2.3-.5.3-.8h.1c-.8,12.4-1.6,24.9-2.4,37.3,4,1.8,8.1,3.7,11.6,6.4,3.5,2.6,6.5,6.2,7.8,10.4.1.4.2.9.3,1.3.4,2,.3,4.2-.5,6s-2.5,3-4.4,3.6c-1.8.6-3.8.6-5.8.6-2.5,0-5.8-.1-8.2-.6-3.4-.6-6-1.8-9.3-2.9-8.5-3-15.1-7.4-21.9-11.7-1.6-1-3.9-1.8-5-3.2-.3-.4-.5-.7-.7-1.1v.1Z"/>
          <path class="cls-11" d="M159.71,283.9c1.2.6,2.1,1.7,2,2.7,0,.3-.1.6-.3.8-.7.9-2.3,1.4-3.8,1.7-9.2,1.9-19.1,2.3-28.6,1.1-2-.2-4.1-.6-5.2-1.8-.2-.3-.4-.5-.5-.8-1.9-3.6,7.5-4.8,11-5,6.6-.3,13.4-.2,20,.2,1.9.1,4,.3,5.6,1.1h-.2Z"/>
          <path class="cls-5" d="M95.61,331c-.2.3-.4.5-.7.8-1.4,1.3-3.9,2-5.6,2.8-7.4,3.3-14.5,6.8-23.4,8.6-3.4.7-6.2,1.4-9.7,1.6-2.5.1-5.8-.2-8.3-.6-1.9-.3-3.9-.6-5.6-1.4-1.8-.8-3.3-2.3-3.9-4.2-.5-1.9-.4-4,.3-6,.1-.5.3-.9.5-1.4,1.8-4.1,5.3-7.2,9.2-9.3,3.9-2.2,8.2-3.4,12.4-4.7.9-12.5,1.9-25,2.8-37.5h.1c0,.3,0,.6.2.8.6,1,2.1,1.7,3.6,2.2,8.9,3.1,18.7,4.9,28.4,5.1,2,0,4.2,0,5.4-1.1.3-.2.5-.5.6-.7h.2c-1.6,12.6-3.1,25.2-4.7,37.7-.3,2.6-.3,5.2-1.7,7.2l-.1.1Z"/>
          <path class="cls-11" d="M91.51,279.5c3.5.7,12.7,3.2,10.3,6.5-.2.2-.4.5-.6.7-1.2,1-3.4,1.1-5.4,1.1-9.6-.2-19.4-1.9-28.4-5.1-1.4-.5-3-1.1-3.6-2.2-.2-.3-.2-.6-.2-.8,0-1,1-2,2.3-2.4,1.7-.6,3.7-.5,5.7-.3,6.6.5,13.4,1.3,19.9,2.5h0Z"/>
          <path class="cls-4" d="M94.81,331.8c.3-.3.5-.5.7-.8-.5,3-.8,5.5-1.4,8.5-.1,0-10.5,4.7-10.5,4.7l.7-4.1c-1.4.8-2.9,1.5-4.3,2.2-10.1,4.8-20.7,7.6-31.8,6.2-2.9-.4-8.1-1.5-10.1-3.9-1.5-2-.8-9.1.3-11.9-.6,1.9-.8,4-.3,6,.5,1.9,2.1,3.3,3.9,4.2,1.8.8,3.7,1.1,5.6,1.4,2.5.4,5.8.7,8.3.6,3.5-.2,6.2-.9,9.7-1.6,8.9-1.8,16.1-5.3,23.4-8.6,1.7-.8,4.2-1.5,5.6-2.8l.2-.1Z"/>
        </g>
      </g>
    </g>
    <path id="mund" class="cls-10" d="M109.71,163c.4,4.7,4.4,8.9,9,9.5s9.6-2.3,11.2-6.8"/>
    <g id="_øje2" data-name=" øje2">
      <path class="cls-9" d="M106.81,150.6c.5,1.9,2,3.7,3.9,3.8,2.8.2,4.7-2.9,5.2-5.6.3-1.9.3-3.9-.6-5.5s-2.6-3-4.5-2.9c-4.5.2-4.8,7.2-4,10.3v-.1Z"/>
      <path class="cls-6" d="M108.61,144.3c.3.6,1.2.8,1.8.5s.8-1.2.4-1.8c-.9-1.3-2.9,0-2.2,1.3Z"/>
    </g>
    <g id="_øje1" data-name=" øje1">
      <path class="cls-9" d="M128.31,154.3c.5,1.9,2,3.7,3.9,3.8,2.8.2,4.7-2.9,5.2-5.6.3-1.9.3-3.9-.6-5.5s-2.6-3-4.5-2.9c-4.5.2-4.8,7.2-4,10.3v-.1Z"/>
      <path class="cls-6" d="M130.11,148c.3.6,1.2.8,1.8.5s.8-1.2.4-1.8c-.9-1.3-2.9,0-2.2,1.3Z"/>
    </g>
    <path id="ben2" class="cls-8" d="M147.31,267.7c-3.5,0-8.3-.7-11.9-.9.3,8.6,1.4,15.7,2,24.1,3.4.2,10.1,0,12.5-.6,0,0,.1.3,0-1.2-.7-7.1-1.3-13.9-2.6-21.3v-.1Z"/>
    <path id="ben1" class="cls-8" d="M80.01,260.8c3.5,0,8.2,1.1,11.7,1-.6,8.9-2.1,16.4-2.6,25.7-3.6,0-10.3-1.3-12.8-2.1,0,0,0-.5.2-2.1.9-7.4,1.8-14.8,3.4-22.5h.1Z"/>
  </g>
</svg>