<?xml version="1.0" encoding="UTF-8"?>
<svg xmlns="http://www.w3.org/2000/svg" viewBox="0 0 359.25 343.05">
  <defs>
    <style>
      .cls-1 {
        fill: #ebe6f3;
        stroke-width: 9px;
      }

      .cls-1, .cls-2, .cls-3 {
        stroke: #625da9;
        stroke-miterlimit: 10;
      }

      .cls-4, .cls-2 {
        fill: #625da9;
      }

      .cls-3 {
        fill: none;
      }
    </style>
  </defs>
  <g id="Layer_3" data-name="Layer 3">
    <g id="klat">
      <path class="cls-1" d="M4.53,199.83c-.14-9.06,2.65-18.6,4.57-29.19,1.31-7.25,2.11-14.58,2.38-21.94.41-10.69-.29-21.46,1.48-32.01,3.6-21.47,17.32-40.41,34.54-54.17,17.22-13.76,37.79-22.86,58.58-30.55,28.32-10.46,57.55-18.58,87.27-24.21,12.74-2.42,25.81-4.4,38.64-2.5,21.55,3.19,39.78,16.81,56.68,30.29,25.45,20.27,51.55,43.17,60.27,74.13,3.62,12.82,3.97,26.28,4.31,39.57.45,17.43.89,34.87,1.34,52.3.25,9.67.48,19.5-2.02,28.84-2.73,10.17-8.57,19.33-15.4,27.46-18,21.42-42.69,36.26-66.89,50.69-13.27,7.93-26.7,15.9-41.48,20.65-11.37,3.65-23.31,5.3-35.21,6.68-23.98,2.79-48.53,4.56-72.05-.79s-46.15-18.82-57.13-39.87c-7.46-14.29-9.26-31.29-18.95-44.23-7.89-10.55-20.05-17.13-29.57-26.28-8.52-8.18-11.26-16.3-11.39-24.85v-.03Z"/>
    </g>
  </g>
  <g id="hjem">
    <rect class="cls-4" x="168.7" y="30.06" width="8.34" height="53.27" rx="4.17" ry="4.17" transform="translate(97.41 -108.84) rotate(47.34)"/>
    <rect class="cls-4" x="201.69" y="30.18" width="8.34" height="53.27" rx="4.17" ry="4.17" transform="translate(23.72 168.31) rotate(-46.9)"/>
    <path class="cls-4" d="M215.44,57.17c-3.5-3.14-7-6.29-10.5-9.43-.17-.15-.34-.31-.45-.51-.14-.26-.14-.57-.14-.87,0-1.74,0-3.48,0-5.22,0-.82.04-1.74.66-2.28.52-.46,1.28-.48,1.97-.48,2.65,0,5.3,0,7.94,0,.64,0,.53,1.97.53,2.99,0,5.26,0,10.53-.01,15.79Z"/>
    <path class="cls-4" d="M181.52,105.33c0-6.65,0-13.29,0-19.94,4.91,0,9.83,0,14.74,0,0,6.77,0,13.55,0,20.32,6.15,0,12.29,0,18.44,0,.31,0,.64,0,.9-.18.43-.29.48-.9.48-1.42,0-8.52,0-17.04,0-25.56,0-.51,0-1.04-.22-1.51-.19-.42-.54-.74-.87-1.05-8.62-8.01-17.24-16.01-25.86-24.02-.03-.03-4.07,3.75-4.44,4.09-1.47,1.36-2.94,2.72-4.41,4.08s-2.98,2.74-4.46,4.11l-4.46,4.11-4.46,4.11-3.57,3.29c-.42.39-.85.79-1.05,1.32-.15.4-.15.84-.15,1.27,0,8.52,0,17.05,0,25.57,0,.66.07,1.43.63,1.77.29.17.65.18.99.18,5.92,0,11.85,0,17.77,0v-.57Z"/>
    <path class="cls-4" d="M92.59,95.18c-.07-5.08.61-10.18,2.01-15.07,11.59,1.56,23.47.97,34.86-1.73,1.26,5.5,1.74,11.43,1.54,17.07,1.18.02,2.57-.66,3.26-1.69s.9-2.32,1.04-3.56c.74-6.66-.09-13.68-3.55-19.41-3.19-5.27-8.55-9.19-14.55-10.61-8.24-1.95-17.39.88-22.89,7.37-1.99,2.34-3.49,5.09-4.49,7.99-1.72,5.05-1.95,10.53-1.31,15.83.05.41.11.83.34,1.16.18.26.45.45.72.63,1.01.67,2.01,1.35,3.03,2.03Z"/>
    <ellipse class="cls-4" cx="103.6" cy="94.14" rx="2.74" ry="3.22"/>
    <ellipse class="cls-4" cx="181.63" cy="186.17" rx="2.53" ry="2.95"/>
    <ellipse class="cls-4" cx="254.27" cy="108.38" rx="2.53" ry="2.95"/>
    <ellipse class="cls-4" cx="271.24" cy="108.38" rx="2.53" ry="2.95"/>
    <ellipse class="cls-4" cx="196.64" cy="186.17" rx="2.53" ry="2.95"/>
    <ellipse class="cls-4" cx="120.4" cy="94.14" rx="2.74" ry="3.22"/>
    <path class="cls-4" d="M105.28,107.37c1.84,1.37,4.63,1.62,6.86,1.55,2.43-.07,4.77-.67,6.95-1.73.61-.29.77-1.16.45-1.71-.36-.62-1.1-.74-1.71-.45-1.77.86-3.73,1.33-5.69,1.39-1.83.05-4.08-.09-5.59-1.21-.54-.4-1.4-.09-1.71.45-.37.64-.1,1.31.45,1.71h0Z"/>
    <path class="cls-4" d="M182.29,195.49c1.84,1.37,4.63,1.62,6.86,1.55,2.43-.07,4.77-.67,6.95-1.73.61-.29.77-1.16.45-1.71-.36-.62-1.1-.74-1.71-.45-1.77.86-3.73,1.33-5.69,1.39-1.83.05-4.08-.09-5.59-1.21-.54-.4-1.4-.09-1.71.45-.37.64-.1,1.31.45,1.71h0Z"/>
    <path class="cls-4" d="M255.93,118.82c1.84,1.37,4.63,1.62,6.86,1.55,2.43-.07,4.77-.67,6.95-1.73.61-.29.77-1.16.45-1.71-.36-.62-1.1-.74-1.71-.45-1.77.86-3.73,1.33-5.69,1.39-1.83.05-4.08-.09-5.59-1.21-.54-.4-1.4-.09-1.71.45-.37.64-.1,1.31.45,1.71h0Z"/>
    <path class="cls-4" d="M92.57,95.24c-.84-.37-1.9,0-2.41.77-.85,1.27-.01,3.48.66,4.69.36.65.82,1.25,1.35,1.77,1.07,1.07,2.44,1.84,3.93,2.14,1.9,4.04,4.65,7.8,8.43,10.18s8.7,3.2,12.81,1.45c2.03-.86,3.76-2.29,5.35-3.81,2.37-2.27,4.56-4.96,5.21-8.19,1.94-.13,3.69-1.4,4.7-3.06s1.32-3.67,1.2-5.61c-.93-.04-1.86-.08-2.79-.12,1.22-1.21,2.55-2.31,3.97-3.27l-.02.76c1.44-.03,2.26,1.66,2.43,3.09.43,3.65-1.16,7.48-4.04,9.76-.64.51-1.34.94-1.92,1.51-1,.98-1.59,2.28-2.28,3.49-3.67,6.38-11.07,10.45-18.42,10.05s-14.29-5.32-17.02-12.16c-.17-.42-.33-.86-.65-1.18-.31-.32-.73-.48-1.13-.67-3.27-1.56-5.35-5.05-5.85-8.63-.29-2.04.13-4.54,1.99-5.42.23-.11.48-.19.74-.16.32.04.59.23.85.43.97.73,1.95,1.45,2.93,2.19Z"/>
    <path class="cls-4" d="M111.95,201.13c-2.23,25.3-4.45,50.61-6.68,75.91h-22.67c-.07-2.39,1.52-4.59,3.53-5.9,2.01-1.31,4.39-1.89,6.72-2.45-.59-37.99-1.19-75.98-1.78-113.97-6.17.25-10.4-6.77-16.49-7.75-.39-.06,2.71-8.21,3.05-8.9,1.47-2.98,3.33-5.76,5.52-8.26,3.76-4.27,11.38-10.39,17.5-7.36,1.09.54,1.98,1.38,2.97,2.09,4.94,3.56,12.27,3.34,16.98-.51.83-.68,1.6-1.47,2.56-1.95,1.77-.89,3.91-.61,5.81-.05,10.73,3.21,17.2,14.2,20.37,24.95-3.09.38-5.73,2.3-8.37,4.13-1.65,1.14-8.27,3.52-8.41,3.52-.51,38.06-1.03,76.13-1.54,114.19,2.39.45,4.85.93,6.92,2.21,2.07,1.29,3.69,3.59,3.46,6.01-7.69,0-15.39,0-23.08,0-2.13-25.3-4.26-50.61-6.38-75.91Z"/>
    <path class="cls-4" d="M76.15,147.22c-.06.03.09-.47-.19.43-.12.4-.33,1.21-.44,1.62-.56,2.08-1.11,4.16-1.64,6.24-1.06,4.17-2.06,8.36-2.99,12.56-1.69,7.6-3.17,15.25-4.45,22.94-.06.36-.12.72-.31,1.03-.16.26-.4.47-.61.69-1.81,1.92-1.4,5.03-.4,7.48.37.92.83,1.83,1.57,2.49,1.13,1.01,2.75,1.25,4.27,1.27,1.22.01,2.49-.11,3.53-.74,2.11-1.29,2.54-4.1,3.04-6.52.56-2.72,1.47-5.34,2.36-7.97,3.8-11.25,7.21-22.63,10.62-34.01-1.22-.26-2.42-.8-3.64-1.06-3.75,13.46-7.84,27.11-12.19,40.38-.3.92-.61,1.85-.74,2.82-.08.56-.1,1.14-.29,1.68-.62,1.68-3.05,2.25-4.45,1.15s-1.55-3.4-.42-4.79c.3-.36.66-.68.89-1.09.23-.42.29-.9.35-1.37,1.88-14.67,5.96-29.49,9.93-43.73-.95-.48-1.92-1.04-2.87-1.52-.37-.19-.69-.08-.92.02Z"/>
    <path class="cls-4" d="M64.25,196.01c-1.54.89-2.71,3.61-3.38,5.19-.2.48-1.87,5.98-1.42,6.04l-3.6-.47c-2.7,10.55-5.29,21.12-7.77,31.72,6.36,1.8,12.71,3.6,19.07,5.4v4.19c6.11,0,12.22,0,18.34,0,0-12.84,0-25.69,0-38.53l-2.31-.17c.06-5.27-1.91-11.07-5.23-15.16-.35,1.39-.58,3.31-.93,4.7-.09.37-.3.74-.26,1.12.05.54.46,1.02.73,1.49,1.34,2.33,1.95,5.08,1.71,7.76-5.52-.61-11.03-1.21-16.55-1.82l1.75-5.77c.18-.59.65-1.55.73-2.16.14-1.08-.21-2.65-.87-3.53Z"/>
    <path class="cls-4" d="M132.64,153.16c-.23.66.87,4.07,1.02,4.62.68,2.44,1.38,4.88,2.1,7.31,1.44,4.86,3,9.68,4.81,14.41,2.92,7.59,6.54,14.96,11.35,21.54.19.26.39.53.67.69.32.18.69.19,1.06.21,1.99.07,4.06.13,5.89-.66,2.53-1.1,4.21-3.88,4.02-6.62s-2.24-5.27-4.9-6.01c-3.51-13.81-7.57-28.38-11.41-42.1-1.36.63-2.32,2.06-3.68,2.69.65.54.91,1.42,1.14,2.23,3.71,13.33,7.42,26.67,11.13,40,1.16.28,2.29.82,3.05,1.74s1.08,2.25.6,3.34c-.76,1.72-3.19,2.14-4.88,1.31s-2.78-2.51-3.7-4.15c-3.03-5.4-5.16-11.26-7.11-17.13-2.5-7.53-4.75-15.14-6.98-22.75-.73-2.77-3.66.54-3.84.75-.03.04-.33-1.48-.35-1.42Z"/>
    <path class="cls-4" d="M152.6,201.74c4.38,4.62,9.21,9.03,15.07,11.52l-.18.94c2.58,1.34,5.36,2.32,8.21,2.91l2.86-13.68s-3.17-1.3-3.46-1.44c-1.16-.54-2.29-1.12-3.4-1.75-2.22-1.26-4.33-2.69-6.31-4.29-.36-.29-1.61-1.31-1.96-1.61-.31-.27.27-.06.06.42-.2.44-.23,1.07-.33,1.55l-.35,1.63c2.84,2.37,6,4.36,9.36,5.91-1.19,2.04-2.23,4.16-3.12,6.34-3.78-2.31-7.42-4.85-10.9-7.58-.31-.25-1.12-.94-1.5-1.07-.3-.1-.14.33-.46.32-1.19-.04-2.39-.08-3.59-.12Z"/>
    <path class="cls-3" d="M183.77,205.12c.11-.09.27-.13.48-.11.69.06,1.28.55,1.96.66,1.11.18,2.1.15,3.15.15,1.09,0,2.15,0,3.24-.18.45-.08.84-.35,1.27-.5s.9-.25,1.33-.13c.06.01.11.03.15.08.03.05.03.11.03.17-.08,1.15-.53,2.25-1.19,3.19-.86,1.23-2.11,2.24-3.58,2.55-1.15.24-2.37.05-3.44-.46s-1.97-1.31-2.68-2.25c-.47-.62-.86-1.33-.97-2.1-.06-.42-.03-.87.25-1.08Z"/>
    <path class="cls-2" d="M175.96,217.16c-.9,4.7-1.88,9.38-3,14.03-.81,3.37-1.69,6.72-2.66,10.05-.24.83-3.21,9.71-3.15,9.74,3.9,1.57,7.83,3.14,11.97,3.85,3.1.53,6.27.57,9.42.59,3.88.03,7.78.03,11.61-.59s7.61-1.91,10.71-4.25c-2.1-6.9-4.16-13.81-6.17-20.73-1.21-4.15-2.42-8.43-2.05-12.74,2.6-.32,5.13-1.15,7.42-2.43-1.27-4.45-3.15-8.72-5.58-12.65-2.92,1.04-5.89,1.92-8.91,2.63.09,1.2.14,2.53-.61,3.47-.25.31-.56.55-.88.79-1.08.82-2.2,1.67-3.52,1.98-2.82.66-5.73-1.46-6.79-4.15-.19-.49-.35-1.01-.73-1.37-.26-.24-.59-.37-.91-.5-.61-.25-3.64-1.28-4.21-.93-.6.37-.05,2.61-.17,3.31-.46,2.67-.93,5.35-1.43,8.01-.12.63-.24,1.26-.36,1.89Z"/>
    <path class="cls-2" d="M175.98,254.79c-.25,2.82.06,5.8.09,8.64l.12,8.73c0,.32,0,.65-.12.95-.1.23-.28.43-.45.62-.44.49-.86.99-1.27,1.51-.64.8-1.24,1.66-1.52,2.65s-.16,2.14.52,2.9c.63.71,1.63.97,2.58,1.08,3.36.39,6.87-.73,9.38-3.01.66-.6,1.26-1.29,1.6-2.11.32-.79.38-1.67.44-2.52.41-6.27.82-12.53,1.23-18.8-1.1.13-2.2.25-3.3.38-.27,5.51-.55,11.03-.82,16.54h-5.55c.05-5.64.1-11.28.15-16.91-.91-.22-2.18-.75-3.08-.64Z"/>
    <path class="cls-2" d="M204.5,253.79c1.12,3.43,4.94,5.53,5.76,9.04.26,1.11.19,2.27.12,3.41-.03.51-.06,1.02-.21,1.51-.13.44-.36.85-.61,1.24-.39.59-.86,1.13-1.46,1.5s-1.35.53-2.02.33c-.63-.19-1.13-.66-1.57-1.14-1.03-1.11-1.93-2.34-2.88-3.53-.11-.13-.22-.27-.36-.35-.29-.17-.66-.12-1-.09-1.49.12-2.99-.4-4.21-1.27s-2.17-2.07-2.94-3.35c-.7-1.17-1.27-2.48-1.38-3.86-.03-.34-.02-.69.02-1.03.05-.46.14-.43.59-.44.8-.03,1.6-.05,2.4-.08-.18,1.42.14,2.9.9,4.11s1.94,2.16,3.29,2.62c.72.25,1.5.36,2.25.25,1.3-.19,2.48-1.07,3.02-2.27.09-.21.17-.43.17-.65,0-.59-.47-1.06-.88-1.49-.89-.95-1.6-2.17-1.61-3.48.87-.33,1.74-.65,2.61-.98Z"/>
    <path class="cls-2" d="M203.48,204.33s-.34-1.65-.34-1.67c.14-.22,3.04-1.28,3.31-1.38.49-.18.9-.38,1.38-.57,1.92-.77,3.84-1.76,5.66-2.76.19-.1.38-.21.59-.23.16-.01.31.02.47.05.51.11,1.02.23,1.48.48.73.4,1.23,1.1,1.88,1.62.44.35.94.62,1.41.92,1.58,1.02,2.9,1.66,4.11,3.1-3.97,3.55-8.46,7.4-13.19,9.83l-1.17-3.06c3.56-1.76,6.79-4.1,10-6.44.23-.17.5-.42.42-.7-.32-.09-.66-.12-.99-.19-1.41-.28-2.71-1.12-3.54-2.3-.12-.17-.25-.36-.45-.41-.18-.04-.36.04-.52.12-2.56,1.22-5.12,2.44-7.68,3.66-.25-.47-.51-.95-.76-1.42-.13-.24-2.12,1.61-2.07,1.34Z"/>
    <path class="cls-2" d="M178.56,203.42c-2.01-1.49-3.72-3.37-5.01-5.51-.33-.55-.64-1.12-1.09-1.57-.47-.47-1.07-.79-1.62-1.17-2.35-1.64-3.72-4.59-3.43-7.44.17-1.69,1.45-3.63,3.1-3.24-.62-5.84.84-11.87,4.08-16.77-.75-1.11-2.18-1.67-3.51-1.54s-2.56.9-3.42,1.93c-.42.5-.86,1.12-1.51,1.13-.52,0-.95-.4-1.31-.78-1.57-1.64-3.13-3.29-4.7-4.93-.16-.16-.32-.35-.33-.58,0-.23.16-.44.31-.61.86-.97,1.76-1.89,2.7-2.78.83-.78,1.54-1.66,2.64-2.01,2.34-.76,4.97-.61,7.19.46,2.58,1.25,4.55,3.71,5.19,6.51,6.37-4.88,16-4.9,22.39-.06.74-2.64,2.49-5.02,4.88-6.36s5.42-1.56,7.92-.42c2.33,1.06,4,3.14,5.58,5.15-2.04,2.16-4.08,4.33-6.12,6.49-.86-.94-1.74-1.89-2.84-2.53s-2.47-.95-3.66-.49c-.77.29-1.4.87-2.14,1.24-.78.39-1.66.53-2.52.67-3.58.57-7.16,1.14-10.74,1.7-.37.06-.74.12-1.06.31-.38.23-.62.62-.87.99-3.34,5.03-8.88,8.54-14.86,9.41-.07,2.03-.14,4.06-.2,6.1-1.3-.17-2.98-.15-3.48,1.06-.3.72-.02,1.53.3,2.24.44.99.97,1.98,1.78,2.7s1.96,1.15,3.01.85c.92,2.93,2.87,5.51,5.44,7.19-.68.89-1.37,1.78-2.05,2.67Z"/>
    <path class="cls-4" d="M203.65,168.01c3.59,4.55,4.3,10.72,4.12,16.51,1.13-.26,2.3.56,2.78,1.62s.42,2.28.23,3.43c-.42,2.61-1.66,5.39-4.13,6.33-.38.15-.79.25-1.12.5-.39.31-.6.79-.81,1.24-.68,1.45-1.59,2.79-2.68,3.97-.4.43-.83.84-1.35,1.11-.71.37-.96,1.25-1.75,1.4-1.19.22-2.52.45-3.61.97-3.39,1.5-7.69.5-11.36-.04-1.91-.28-3.87-.63-5.48-1.68.9-.91,1.87-1.87,2.77-2.78,3.7,2.47,8.49,3.16,12.7,1.72s7.65-4.94,9.05-9.16c1.48.13,3-.58,3.84-1.8s.99-2.89.36-4.23l-2.79.03-.09-5.81c-5.21-.74-10.11-3.49-13.46-7.55-.53-.65-1.95-2.43-1.51-3.38.35-.73,3.46-.76,4.3-.89,3.32-.5,6.64-1.01,9.97-1.51Z"/>
    <path class="cls-4" d="M232.62,124.88c3.03-1.95,4.71-5.51,5.32-9.06s.3-7.19.23-10.8c-.16-8.12,1.07-16.94,6.33-23.46,2.91-3.61,6.89-6.47,11.34-7.83,6.79-2.06,14.48-.61,20.25,3.53s9.56,10.82,10.5,17.85c.69,5.2-.09,10.49.16,15.73s1.83,10.84,6.03,13.99c-2.96,2.61-6.63,4.42-10.5,5.17-.06-8.38-.13-16.77-.19-25.15,0-.6-.11-.85-.31-1.42-.22-.62-.93-1.12-1.34-1.63-3.25-3.99-5.97-8.44-7.88-13.22-.5.66-.4.5-.96,1.18-6.78,8.26-18.03,12.62-28.63,13.99-.5,5.92,1.49,12.01,5.39,16.5.28.32.58.65.68,1.07.1.41-.01.83-.13,1.23-.75,2.71-1.49,5.42-2.24,8.12-5.21.19-10.47-1.98-14.03-5.8Z"/>
    <path class="cls-4" d="M281.58,102.69s-.11.03-.16,0c.93,4.94-.05,10.76-2.76,14.99-2.28,3.55-5.68,6.33-9.52,8.05-1.08.48-2.2.89-3.36,1.13-3.01.63-6.19.11-9.04-1.05-1.42-.58-2.78-1.31-4.08-2.12s-2.68-2.09-3.97-2.86c-.42.62-2.21,9.76-2.05,9.84l4.85,2.38c.51.25,1.04.5,1.6.51.75.02,1.45-.41,1.99-.94.7-.69,1.19-1.6,1.39-2.56.03-.14.06-.29.15-.41.23-.29.69-.18,1.03-.05,3.62,1.32,7.71,1.31,11.33-.03-.02,1.43,1.38,2.42,2.62,3.14.33.19.67.39,1.05.43.79.08,1.46-.51,2.09-1,2.1-1.64,4.86-2.43,7.51-2.14,0-8.3,0-16.6,0-24.91,0-.68-.12-2.11-.68-2.42Z"/>
    <path class="cls-4" d="M246.63,130.77c-.31,0-1.1.81-1.36,1.01l-1.48,1.1c-.86.64-1.63,1.28-2.37,2.04-1.48,1.52-2.84,3.17-4.05,4.91-2.43,3.48-4.31,7.36-5.51,11.44,1.15.65.87,2.35.44,3.6-3.99,11.58-7.98,23.16-11.98,34.75-.13.39-.28.8-.59,1.08-.3.28-.72.38-1.11.52-2.54.88-4.42,3.39-4.56,6.08,1.22.27,2.44.54,3.65.81-.27-1.04.51-2.08,1.4-2.69s1.95-.97,2.74-1.7c.84-.78,1.28-1.9,1.69-2.97,3.9-10.14,7.81-20.29,11.31-30.58.6-1.77,1.2-3.56,2.12-5.19.66-1.16,1.47-2.23,2.28-3.28,4.6-6.01,9.2-12.02,13.8-18.03-2.15-.96-4.29-1.92-6.45-2.88Z"/>
    <path class="cls-4" d="M217.68,197.51c-.11,1.34,1.07,2.16,1.85,2.49,1,.42,2.16.06,3.08-.51,2.01-1.25,3.31-3.36,4.47-5.42,6.23-11.08,10.62-23.09,14.8-35.09-1.63-1.37-3.26-2.73-4.89-4.1-.19-.19,7.3-9.67,7.99-10.57l4.04-5.35c1.29-1.71,2.5-3.75,4.01-5.27,1.55.95.48,3.85-.02,5.09-8.12,19.93-13.03,41.4-24.61,59.53-1.47,2.3-3.05,4.55-5.03,6.42-2.63-2.4-5.26-4.81-7.89-7.21.77-.25,2.27-.84,2.21,0Z"/>
    <path class="cls-2" d="M253.01,134.15c1.27,1.23,1.96,2.91,3.49,4.04s3.34,1.89,5.24,2.11c3.83.44,7.83-1.32,10.09-4.44,1.46-2.02,2.55-4.77,4.99-5.29,2.06-.44,4.02,1.03,5.52,2.51,5.16,5.05,9.08,11.36,11.34,18.22-4.28,3.45-8.34,7.18-12.13,11.16-.23-2.57-1.34-5.05-3.1-6.94-2.24,18.06,7.64,35.22,10.78,53.15,9.17-2.06,18.34-4.13,27.5-6.19,4.04,10.58,8.09,21.17,12.13,31.75l-16.09,5.49.53,5.56c-8.7,3.59-18.2,5.24-27.6,4.78.06-9.46.13-18.92.19-28.39-17.22,3.95-35.49,3.2-52.32-2.15,3.98-14.73,7.96-29.46,11.94-44.2,1.19-4.42,2.4-8.95,2.05-13.51-.17-2.3-.74-4.58-.56-6.88.12-1.53.57-3.02,1.02-4.49.83-2.75,1.67-5.49,2.5-8.24.77-2.55,1.25-5.74,2.51-8.07Z"/>
    <path class="cls-2" d="M245.38,222.95s-.11-.97-.13-.77c-.07.57,0,2.25,0,2.65,0,1.85,0,3.7,0,5.55,0,3.7,0,7.4,0,11.1,0,7.4,0,14.8,0,22.2v4.22c0,.36,0,.75-.19,1.06-.14.25-.38.43-.61.59-.79.57-1.58,1.12-2.4,1.65-.97.64-2,1.28-2.6,2.27s-.62,2.46.3,3.17c.62.48,1.47.51,2.25.51,2.64,0,5.29,0,7.93.01,1.12,0,2.29,0,3.3-.5,1.17-.57,1.97-1.74,2.38-2.98s.49-2.56.56-3.87c.84-15.26,1.69-30.51,2.53-45.77-1.3.06-2.59.12-3.89.17-.5,14.89-1,29.79-1.5,44.68l-5.59-.03.74-45.86c-.76-.04-1.84-.31-2.58-.15-.41.09-.46,0-.52.08Z"/>
    <path class="cls-2" d="M267.03,224.64s-.08.13-.08.1c0-.81.06,1.66.07,2.1l.08,2.29.31,8.81c.21,5.87.41,11.75.62,17.62l.55,15.68c.07,2.1.39,4.6,2.26,5.54.82.41,1.77.42,2.69.42,2.79,0,5.59,0,8.38,0,.79,0,1.64-.02,2.29-.47,1.27-.88,1.06-2.92.1-4.12s-2.42-1.89-3.64-2.84c-.22-.18-.45-.37-.58-.62-.18-.34-.18-.74-.18-1.12.07-15.07.14-30.13.21-45.2-1.04.27-2.08.54-3.12.81-.08,15.1-.16,30.2-.24,45.3l-5.42-.07-.65-44.93c-.75.12-3.08.16-3.65.7Z"/>
    <path class="cls-2" d="M281.71,163.64c3.71,10.7,6.92,21.18,10.63,31.88.12.35.24.7.24,1.07,0,.52-.25,1.01-.47,1.48-1.44,3.08-2.03,6.55-1.68,9.93,1.21-.21,2.41-.42,3.62-.63-.12-1.34-.02-2.71.27-4.02,1.51,1.3,3.63,1.86,5.59,1.47s3.7-1.73,4.58-3.52l1.8,3.55,2.8-.97c-.35-3.41-2.01-6.67-4.55-8.96-.35-.31-.71-.61-.96-1-.31-.49-.4-1.08-.49-1.65-.41-2.49-.96-4.96-1.52-7.42-2.49-11-5.04-22.03-9.04-32.58-1.26,1.07-2.51,2.14-3.77,3.21,3.97,11.43,7.97,22.92,10.08,34.83.34,1.92.65,3.9,1.63,5.59.62,1.06,1.52,2.24,1.06,3.37-.23.55-.74.93-1.25,1.22-1.06.6-2.46.94-3.44.22-1.16-.86-1.04-2.58-1.1-4.03-.08-1.73-.61-3.41-1.14-5.06-1.84-5.78-3.69-11.55-5.53-17.33-.92-2.89-1.84-5.78-2.77-8.67-.46-1.44-.92-2.89-1.38-4.33-.13-.4-.57-1.84-1.08-2.11-.36-.19-.84,2.1-1.1,2.42-.5.61-.5,1.44-1,2.05Z"/>
  </g>
</svg>