<?xml version="1.0" encoding="UTF-8"?>
<svg xmlns="http://www.w3.org/2000/svg" viewBox="0 0 327.03 295.42">
  <defs>
    <style>
      .cls-1 {
        fill: none;
        stroke: #009851;
        stroke-width: 10px;
      }

      .cls-1, .cls-2 {
        stroke-miterlimit: 10;
      }

      .cls-2 {
        fill: #e5f3e9;
        stroke: #409558;
        stroke-width: 9px;
      }

      .cls-3 {
        fill: #009851;
      }
    </style>
  </defs>
  <g id="klat">
    <g id="klat-2" data-name="klat">
      <path class="cls-2" d="M4.53,171.98c-.13-7.77,2.4-15.95,4.15-25.03,1.19-6.22,1.92-12.5,2.17-18.81.37-9.17-.26-18.4,1.34-27.45,3.27-18.41,15.73-34.65,31.36-46.45,15.63-11.79,34.31-19.6,53.19-26.19,25.71-8.97,52.25-15.93,79.24-20.76,11.56-2.07,23.44-3.77,35.09-2.14,19.57,2.74,36.12,14.41,51.47,25.97,23.1,17.38,46.8,37.01,54.73,63.56,3.28,11,3.6,22.54,3.91,33.93.4,14.94.81,29.9,1.21,44.84.23,8.29.44,16.72-1.83,24.73-2.47,8.72-7.78,16.57-13.98,23.54-16.35,18.37-38.76,31.09-60.74,43.46-12.05,6.8-24.25,13.63-37.67,17.7-10.33,3.13-21.17,4.54-31.97,5.73-21.77,2.39-44.07,3.91-65.42-.68-21.36-4.59-41.9-16.14-51.87-34.19-6.77-12.25-8.41-26.83-17.2-37.92-7.16-9.05-18.2-14.69-26.85-22.54-7.73-7.02-10.22-13.98-10.34-21.31v-.02Z"/>
    </g>
  </g>
  <g id="kort">
    <circle class="cls-1" cx="244.93" cy="190.92" r="42.65"/>
    <rect class="cls-3" x="104.35" y="143.69" width="7.46" height="71.03" rx="3.73" ry="3.73" transform="translate(287.28 71.13) rotate(90)"/>
    <rect class="cls-3" x="123.12" y="137.55" width="7.19" height="133.97" rx="3.6" ry="3.6" transform="translate(331.25 77.82) rotate(90)"/>
    <rect class="cls-3" x="246.56" y="170.57" width="7.46" height="45.26" rx="3.73" ry="3.73" transform="translate(194.87 -118.09) rotate(42.24)"/>
    <rect class="cls-3" x="49.66" y="77.56" width="7.46" height="120.51" rx="3.73" ry="3.73" transform="translate(106.78 275.63) rotate(-180)"/>
    <rect class="cls-3" x="148.76" y="-22.74" width="7.75" height="184.59" rx="3.73" ry="3.73" transform="translate(222.19 -83.08) rotate(90)"/>
    <rect class="cls-3" x="138.11" y="6.95" width="28.66" height="205.54" rx="4.75" ry="4.75" transform="translate(262.16 -42.71) rotate(90)"/>
    <rect class="cls-3" x="226.23" y="185.67" width="9.74" height="27.34" rx="4.87" ry="4.87" transform="translate(-73.27 221.79) rotate(-45)"/>
    <path class="cls-3" d="M66.08,65.8c-3.87-.31-9.1.48-11.99,3.31-3.78,3.71-4.48,9.98-4.45,14.98s7.53,4.83,7.5,0c-.02-2.71-.1-7.74,2.25-9.67,1.56-1.28,4.8-1.26,6.68-1.12,4.81.38,4.79-7.12,0-7.5h0Z"/>
    <path class="cls-3" d="M240.02,73.4c10.49,5.72,7.75,21.96,7.76,31.89.02,12.49.04,24.98.06,37.46,0,4.83,7.51,4.83,7.5,0-.02-15.05-.05-30.1-.07-45.15-.02-11.3-.2-24.54-11.47-30.68-4.24-2.31-8.03,4.16-3.79,6.48h0Z"/>
    <path class="cls-3" d="M49.64,191.93c-1.04,9.2,6.76,15.88,15.26,16.3,6.01.3,12.05.06,18.06.16,4.83.08,4.83-7.42,0-7.5-4.43-.07-8.86-.05-13.28-.09-2.45-.02-5.38.4-7.7-.43-3.34-1.2-5.23-5.02-4.84-8.44.54-4.79-6.97-4.75-7.5,0h0Z"/>
  </g>
</svg>