<?xml version="1.0" encoding="UTF-8"?>
<svg id="Replay" xmlns="http://www.w3.org/2000/svg" viewBox="0 0 371.45 104.35">
  <defs>
    <style>
      .cls-1 {
        fill: #ba2f25;
      }

      .cls-2 {
        fill: #3d5ea9;
      }

      .cls-3 {
        fill: #632f17;
      }

      .cls-4 {
        fill: #b1428a;
      }

      .cls-5 {
        fill: #d3a87e;
      }

      .cls-6 {
        fill: #f0d466;
      }

      .cls-7 {
        fill: #aca161;
      }

      .cls-8 {
        fill: #fff;
      }

      .cls-9 {
        fill: #391e11;
      }

      .cls-10 {
        stroke: #391e11;
        stroke-linecap: round;
      }

      .cls-10, .cls-11 {
        fill: none;
        stroke-miterlimit: 10;
      }

      .cls-11 {
        stroke: #3d5ea9;
      }

      .cls-12 {
        fill: #fcf2e6;
      }

      .cls-13 {
        fill: #7b1b1c;
      }
    </style>
  </defs>
  <g id="REPLAY-2" data-name="REPLAY">
    <g id="p">
      <g id="p-2" data-name="p">
        <g>
          <path class="cls-7" d="M207.35,18.75c1.46,3.38,3.03,7.08,2.78,10.85-.25,4.02-2.5,7.57-4.44,10.98-1.89,3.33-3.91,6.59-6.04,9.78-1.93,2.88-3.97,5.8-6.55,8.15-5.5,5-12.58,5.97-19.75,5.84-2.31-.04-5.32-.59-7.65.19.46-.34,1-.54,1.63-.54,2.78,0,3.16-3.75,1.14-4.75.64-.02,1.27,0,1.9,0,6.2.2,13.11.55,18.28-3.5,2.45-1.92,4.34-4.48,6.08-7.03,2.09-3.07,4.06-6.22,5.93-9.43.96-1.65,1.89-3.31,2.78-5,.71-1.34,1.43-2.74,1.66-4.25.51-3.38-1.28-7.1-2.64-10.08-1.34-2.97-2.83-6.06-4.82-8.67-1.97-2.58-4.59-3.79-7.67-4.56-3.67-.92-7.42-1.39-11.2-1.45-1.72-.02-3.53-.08-5.18.49-1.54.54-2.93,1.42-4.49,1.94-3.06,1.03-6.44,1.06-9.43,2.32-2.48,1.06-4.21,3.14-5.39,5.5-3.02,6.05-1.98,13.25-2.82,19.74-.88,6.88-3.46,13.62-2.88,20.62-.12-1.33-1.08-2.45-2.49-2.45-1.21,0-2.51,1.05-2.51,2.34-.67-8.2,2.73-16.12,3.23-24.26.48-7.78.29-16.11,5.75-22.35,2.28-2.61,5.38-4.07,8.72-4.82,1.63-.36,3.28-.61,4.9-1,1.66-.41,3.08-1.13,4.63-1.81,3.61-1.59,7.72-1.4,11.57-1.08,3.81.32,7.77.89,11.39,2.18,3.46,1.23,6.13,3.3,8.28,6.26,2.18,3,3.84,6.44,5.3,9.84Z"/>
          <path class="cls-7" d="M202.46,19.97c1.36,2.98,3.15,6.7,2.64,10.08-.23,1.51-.95,2.91-1.66,4.25-.89,1.69-1.82,3.35-2.78,5-1.87,3.21-3.84,6.36-5.93,9.43-1.74,2.55-3.63,5.11-6.08,7.03-5.17,4.05-12.08,3.7-18.28,3.5-.63-.02-1.26-.03-1.9,0-.32-.16-.7-.25-1.14-.25-1.37,0-2.67.39-3.81,1.05-1.08.4-2.09.99-2.97,1.84-2.64,2.55-2.9,6.4-3.03,9.84-.29,7.76-.46,15.55.77,23.22-1.93.06-3.87.13-5.8.2-1.58.05-3.15.11-4.73.16l-2.49.09c-.28,0-.64.05-1.01.08.02-1.01.28-2.07.47-2.94.37-1.69.88-3.35,1.3-5.04.86-3.41,1.51-6.86,1.99-10.34.91-6.67,1.15-13.39.65-20.11.02-.1.01-.2,0-.3-.02-.19-.04-.39-.06-.58-.01-.1-.02-.19-.03-.27-.58-7,2-13.74,2.88-20.62.84-6.49-.2-13.69,2.82-19.74,1.18-2.36,2.91-4.44,5.39-5.5,2.99-1.26,6.37-1.29,9.43-2.32,1.56-.52,2.95-1.4,4.49-1.94,1.65-.57,3.46-.51,5.18-.49,3.78.06,7.53.53,11.2,1.45,3.08.77,5.7,1.98,7.67,4.56,1.99,2.61,3.48,5.7,4.82,8.67ZM194.67,35.59c1.17-3.35,1.12-7.16-.26-10.43-1.54-3.61-4.63-6.3-7.85-8.41-2.56-1.67-5.33-2.66-8.22-2.99-.4-.29-.88-.46-1.39-.41-.75.06-1.48.18-2.18.34-.5.03-1.01.09-1.53.16-.47.07-.87.33-1.17.68-2.5,1.02-4.7,2.67-6.61,4.82-2.85,3.21-5.86,6.89-6.4,11.3-.51,4.28,1.71,8.4,4.96,11.08,3.28,2.7,7.66,4.72,11.82,5.59,4.55.96,9.26.07,12.31-3.51,2.94-1.94,5.28-4.7,6.52-8.22Z"/>
          <path class="cls-7" d="M194.41,25.16c1.38,3.27,1.43,7.08.26,10.43-1.24,3.52-3.58,6.28-6.52,8.22.16-.2.32-.4.48-.61,1.54-2.09-1.4-4.61-3.42-3.42-.43.25-.87.49-1.32.69,3.92-1.92,6.8-5.54,6.61-10.36-.14-3.51-2.5-6.17-5.2-8.16-2.89-2.13-6.2-3.6-9.79-3.36.46-.12.94-.2,1.44-.24,1.35-.12,2.5-1.07,2.5-2.5,0-.79-.45-1.61-1.11-2.09,2.89.33,5.66,1.32,8.22,2.99,3.22,2.11,6.31,4.8,7.85,8.41Z"/>
          <path class="cls-7" d="M185.21,39.78c2.02-1.19,4.96,1.33,3.42,3.42-.16.21-.32.41-.48.61-.14.09-.29.19-.44.27l-3.4-3.4c-1.58,2.14-4.35,2.3-6.9,1.84v-.5c1.03-.02,2.06-.14,3.06-.36.33-.07.66-.15.98-.25.32-.09.65-.2.97-.32.31-.11.62-.23.93-.36l.06-.03c.16-.07.32-.14.48-.23.45-.2.89-.44,1.32-.69Z"/>
          <path class="cls-7" d="M187.71,44.08c.15-.08.3-.18.44-.27-3.05,3.58-7.76,4.47-12.31,3.51-4.16-.87-8.54-2.89-11.82-5.59-3.25-2.68-5.47-6.8-4.96-11.08.54-4.41,3.55-8.09,6.4-11.3,1.91-2.15,4.11-3.8,6.61-4.82-.56.65-.79,1.63-.58,2.4.39,1.44,1.73,1.94,3.08,1.75.32-.04.63-.08.94-.09-3.63.86-6.16,3.69-8.44,6.61-2.26,2.88-4.2,6.33-2.22,9.88,1.9,3.42,5.82,5.27,9.35,6.55.64.23,1.36.46,2.12.65-2.07,1.02-1.71,4.78,1.09,4.74.45-.01.91-.03,1.36-.07.22-.01.45-.03.68-.07,2.62-.29,5.16-1.07,7.41-2.3.29-.15.58-.31.87-.48l-.02-.02Z"/>
          <path class="cls-7" d="M187.71,44.08l.02.02c-.29.17-.58.33-.87.48.29-.16.57-.32.85-.5Z"/>
          <path class="cls-7" d="M184.31,40.68l3.4,3.4c-.28.18-.56.34-.85.5-2.32,1.22-4.82,2-7.41,2.3-.23.04-.46.06-.68.07-.45.04-.9.06-1.36.07v-4.5c2.55.46,5.32.3,6.9-1.84Z"/>
          <path class="cls-7" d="M179.45,46.88c2.59-.3,5.09-1.08,7.41-2.3-2.25,1.23-4.79,2.01-7.41,2.3Z"/>
          <path class="cls-7" d="M182.42,41.09c.31-.11.62-.23.93-.36-.31.13-.62.25-.93.36Z"/>
          <path class="cls-7" d="M181.45,41.41c.33-.1.65-.2.97-.32-.32.12-.65.23-.97.32Z"/>
          <path class="cls-7" d="M180.47,41.66c.33-.08.66-.16.98-.25-.32.1-.65.18-.98.25Z"/>
          <path class="cls-7" d="M179.45,15.85c0,1.43-1.15,2.38-2.5,2.5-.5.04-.98.12-1.44.24-.31,0-.62.05-.94.09-1.35.19-2.69-.31-3.08-1.75-.21-.77.02-1.75.58-2.4.86-.36,1.76-.64,2.7-.84,1.21-.09,2.4-.06,3.57.07.66.48,1.11,1.3,1.11,2.09Z"/>
          <path class="cls-7" d="M177.41,42.02c1.04-.02,2.06-.14,3.06-.36-1,.22-2.03.34-3.06.36Z"/>
          <path class="cls-7" d="M178.77,46.95c-.45.04-.91.06-1.36.07.46-.01.91-.03,1.36-.07Z"/>
          <path class="cls-7" d="M177.41,42.52v4.5c-2.8.04-3.16-3.72-1.09-4.74.36.09.72.17,1.09.24Z"/>
          <path class="cls-7" d="M177.41,42.02v.5c-.37-.07-.73-.15-1.09-.24.31-.16.67-.25,1.09-.26Z"/>
          <path class="cls-7" d="M176.95,13.35c.51-.05.99.12,1.39.41-1.17-.13-2.36-.16-3.57-.07.7-.16,1.43-.28,2.18-.34Z"/>
          <path class="cls-7" d="M173.24,13.85c.52-.07,1.03-.13,1.53-.16-.94.2-1.84.48-2.7.84.3-.35.7-.61,1.17-.68Z"/>
          <path class="cls-7" d="M168.47,59.25c2.02,1,1.64,4.74-1.14,4.75-.63,0-1.17.2-1.63.54-.34.11-.66.25-.96.42-2.5,1.41-2.16,5.3-2.25,7.74-.25,6.91-.44,13.9.6,20.74-1.05-.19-2.18.22-2.61,1.43h-.16c.1-6.83-.28-13.66-1.16-20.44-.45-3.53-.84-7.14.75-10.46.79-1.64,2.06-3.03,3.61-3.92,1.55-.58,3.26-.77,4.95-.8Z"/>
          <path class="cls-7" d="M167.33,59c.44,0,.82.09,1.14.25-1.69.03-3.4.22-4.95.8,1.14-.66,2.44-1.04,3.81-1.05Z"/>
          <path class="cls-7" d="M164.51,77.33c.72,6.6.97,13.25.76,19.89-.04,1.18-.72,1.92-1.58,2.23.57-.31,1.02-.83,1.17-1.48.12-.48.23-.97.34-1.45.39-1.67-.8-2.83-2.11-3.08-1.04-6.84-.85-13.83-.6-20.74.09-2.44-.25-6.33,2.25-7.74.3-.17.62-.31.96-.42-1.09.79-1.72,2.32-1.9,3.61-.43,2.99.39,6.2.71,9.18Z"/>
          <path class="cls-7" d="M163.09,93.44c1.31.25,2.5,1.41,2.11,3.08-.11.48-.22.97-.34,1.45-.15.65-.6,1.17-1.17,1.48-.77.29-1.69.23-2.38-.2.17,0,.34-.03.5-.07,1.38-.38,2.02-1.75,1.75-3.08-.18-.88-.34-1.77-.47-2.66Z"/>
          <path class="cls-7" d="M163.56,96.1c.27,1.33-.37,2.7-1.75,3.08-.16.04-.33.07-.5.07-.63-.38-1.07-1.06-1.04-2.03,0-.26,0-.51.02-.77.73-.55,1.44-1.1,2.16-1.65-.66.02-1.31.05-1.97.07.43-1.21,1.56-1.62,2.61-1.43.13.89.29,1.78.47,2.66Z"/>
          <path class="cls-7" d="M163.52,60.05c-1.55.89-2.82,2.28-3.61,3.92-1.59,3.32-1.2,6.93-.75,10.46.88,6.78,1.26,13.61,1.16,20.44-.68.03-1.35.05-2.03.08-1.23-7.67-1.06-15.46-.77-23.22.13-3.44.39-7.29,3.03-9.84.88-.85,1.89-1.44,2.97-1.84Z"/>
          <path class="cls-7" d="M161.31,99.25c.69.43,1.61.49,2.38.2-.38.22-.81.34-1.24.35-5.06.18-10.13.35-15.19.53-1.96.07-4.84.73-6.51-.53-1.78-1.34-1.52-4.13-1.27-6.08.52-4.21,2.01-8.29,2.82-12.46,1.62-8.31,2-16.83,1.29-25.27.02.26.05.51.08.76.17,1.34,1.04,2.5,2.5,2.5,1.13,0,2.45-.99,2.5-2.2.5,6.72.26,13.44-.65,20.11-.48,3.48-1.13,6.93-1.99,10.34-.42,1.69-.93,3.35-1.3,5.04-.19.87-.45,1.93-.47,2.94-.49.05-.99.07-1.33-.06.33.2.67.4,1.01.6.17.31.35.61.53.91-.16-.44-.21-.94-.21-1.45.37-.03.73-.07,1.01-.08l2.49-.09c1.58-.05,3.15-.11,4.73-.16,1.93-.07,3.87-.14,5.8-.2.13.83.28,1.65.45,2.48.23,1.15,1.45,1.88,2.57,1.82Z"/>
          <path class="cls-7" d="M162.45,94.8c-.72.55-1.43,1.1-2.16,1.65.01-.32.01-.64.02-.96.02-.1.05-.2.07-.3.03-.11.06-.22.1-.32.66-.02,1.31-.05,1.97-.07Z"/>
          <path class="cls-7" d="M161.31,99.25c-1.12.06-2.34-.67-2.57-1.82-.17-.83-.32-1.65-.45-2.48.68-.03,1.35-.05,2.03-.08,0,.21,0,.41-.01.62-.09.38-.17.77-.27,1.15.08-.06.17-.13.25-.19-.01.26-.01.51-.02.77-.03.97.41,1.65,1.04,2.03Z"/>
          <path class="cls-7" d="M160.48,94.87c-.04.1-.07.21-.1.32-.02.1-.05.2-.07.3.01-.21.01-.41.01-.62h.16Z"/>
          <path class="cls-7" d="M160.04,96.64c.1-.38.18-.77.27-1.15-.01.32-.01.64-.02.96-.08.06-.17.13-.25.19Z"/>
          <path class="cls-7" d="M148.67,56.75c.01.1.02.2,0,.3-.01-.29-.04-.59-.06-.88.02.19.04.39.06.58Z"/>
          <path class="cls-7" d="M148.61,56.17c.02.29.05.59.06.88-.05,1.21-1.37,2.2-2.5,2.2-1.46,0-2.33-1.16-2.5-2.5-.03-.25-.06-.5-.08-.76-.01-.06-.01-.13-.01-.2,0-1.29,1.3-2.34,2.51-2.34,1.41,0,2.37,1.12,2.49,2.45.01.08.02.17.03.27Z"/>
          <path class="cls-7" d="M144.47,96.93c-.18-.3-.36-.6-.53-.91.03,0,.06.03.09.05-.07-.08-.14-.16-.2-.24.04.06.07.13.11.19-.34-.2-.68-.4-1.01-.6.34.13.84.11,1.33.06,0,.51.05,1.01.21,1.45Z"/>
          <path class="cls-7" d="M143.83,95.83c.06.08.13.16.2.24-.03-.02-.06-.04-.09-.05-.04-.06-.07-.13-.11-.19Z"/>
        </g>
      </g>
    </g>
    <g id="l">
      <g id="l-2" data-name="l">
        <g>
          <path class="cls-5" d="M260.43,95.2c.82,2,.64,4.1-.08,6.04-1.24,1.51-3.32,2.09-5.72,2.2.59-.76,1.15-1.56,1.63-2.41,1.09-1.94,1.39-4.29-.49-5.84-2.35-1.93-5.93-1.97-8.78-2.53-3.3-.66-6.57-1.52-9.73-2.67-2.74-.99-5.69-2.97-5.36-6.26.04-.35.15-.68.33-.96-.05.33-.1.65-.15.97-.15,1.01.89,1.94,1.84,1.98.63.02,1.12-.23,1.46-.64.16.27.34.54.53.81,2.01,2.68,5.59,2.79,8.64,2.51.17-.02.34-.04.51-.07,2.77.62,5.58,1.01,8.34,1.69,2.86.7,5.83,2.32,7.01,5.17Z"/>
          <path class="cls-5" d="M255.77,95.19c1.89,1.55,1.58,3.9.49,5.84-.48.85-1.04,1.65-1.63,2.41-4.66.21-10.51-1.41-13.68-1.67-2.3-.2-4.59-.14-6.89,0-.89-.4-1.81-.76-2.73-1.08-1.82-.62-3.69-1.09-5.58-1.48-1.63-.33-3.3-.53-4.91-.96-1.13-.29-2.55-.7-3.21-1.76-.69-1.09-.26-2.65-.04-3.82.74-3.8,1.49-7.62,2.79-11.27.63-1.77,1.39-3.48,2.35-5.1.96-1.61,2.07-3.13,2.93-4.81,1.74-3.45,3.01-7.22,4.12-10.91,1.11-3.71,1.61-7.54,2.32-11.33.4-2.12.86-4.22,1.56-6.25.32-.94.67-1.92,1.15-2.8.1-.18.33-.49.31-.49.3-.16.8-.05,1.12-.03,2.17.18,4.33.44,6.5.65,1.13.12,2.27.23,3.4.34.26.03.77.19,1.1.22.29,5.67-1.84,10.99-4.44,15.93-2.92,5.5-6.21,10.77-8.25,16.68-1.04,3.02-1.78,6.12-2.29,9.26-.18.28-.3.61-.33.96-.33,3.29,2.62,5.28,5.36,6.26,3.16,1.14,6.43,2.01,9.73,2.67,2.85.57,6.43.6,8.78,2.53Z"/>
          <path class="cls-5" d="M251.08,42.16c0,2.86-.54,5.71-1.42,8.42-1.63,5.05-4.36,9.6-6.92,14.23-.32.31-.58.68-.76,1.1-2.04,4.64-7.94,10.56-7.52,16.13-.18-.06-.37-.12-.56-.12-.72-.04-1.31.32-1.65.87.51-3.14,1.25-6.24,2.29-9.26,2.04-5.91,5.33-11.19,8.25-16.68,2.6-4.94,4.74-10.26,4.44-15.93.06,0,.12,0,.17,0,.04-.01.07,0,.09,0h0s0,.02,0,.03c-.31,2.08,2.76,3.09,3.59,1.22Z"/>
          <path class="cls-5" d="M235.11,39.72s-.21.32-.31.49c-.48.88-.83,1.85-1.15,2.8-.7,2.04-1.16,4.14-1.56,6.25-.71,3.79-1.2,7.62-2.32,11.33-1.11,3.69-2.38,7.46-4.12,10.91-.85,1.68-1.97,3.2-2.93,4.81-.96,1.62-1.72,3.33-2.35,5.1-1.3,3.65-2.05,7.47-2.79,11.27-.22,1.17-.65,2.73.04,3.82.66,1.05,2.09,1.46,3.21,1.76,1.61.43,3.28.63,4.91.96,1.89.39,3.76.86,5.58,1.48.92.31,1.84.68,2.73,1.08-4.92.3-9.81.93-14.63.02-.9-.25-1.77-.58-2.6-1.05-1.63-.9-2.89-2.47-3.24-4.31-.38-2,.17-4.03.56-5.99.85-4.38,1.81-8.79,3.66-12.87.93-2.07,2.09-3.95,3.31-5.86,1.16-1.83,2.03-3.75,2.77-5.77,1.54-4.16,2.87-8.3,3.66-12.67.77-4.29,1.31-8.68,2.95-12.75.83-2.07,1.79-4.28,4.27-4.6,2.07-.27,4.33.24,6.39.45,2.27.23,4.69.25,6.91.78,2.18.51,3.72,2.46,3.11,4.69-.03.11-.07.22-.11.32,0-.45,0-.89-.04-1.33-.06-1.02-.74-1.93-1.85-1.97-.95-.04-2.04.79-1.97,1.82,0,.07,0,.15.01.22-.34-.03-.85-.2-1.1-.22-1.13-.11-2.27-.22-3.4-.34-2.17-.21-4.33-.47-6.5-.65-.32-.02-.82-.13-1.12.03Z"/>
          <path class="cls-5" d="M247.49,40.91s-.05-.02-.09,0c-.05,0-.11,0-.17,0,0-.07,0-.15-.01-.22-.07-1.03,1.02-1.86,1.97-1.82,1.11.04,1.79.95,1.85,1.97.03.44.04.88.04,1.33-.83,1.87-3.9.86-3.59-1.22,0,.16.08.01,0-.02h0Z"/>
          <path class="cls-5" d="M235.4,85.09c-.35.41-.84.66-1.46.64-.95-.04-1.99-.96-1.84-1.98.05-.33.1-.65.15-.97.34-.55.93-.9,1.65-.87.19,0,.38.06.56.12.07,1.03.36,2.06.95,3.06Z"/>
        </g>
      </g>
    </g>
    <g id="a">
      <g id="a-2" data-name="a">
        <g>
          <path class="cls-1" d="M307.42,99.84s0-.02,0-.02c.67-.04,1.34-.11,2-.17l4.45-.43c2-.19,4.47-.36,5.46-2.36.8-1.62.49-3.74.11-5.47-.59-2.68-1.48-5.31-2.24-7.94-3.34-11.55-6.67-23.09-10.01-34.64-.36-1.24-.64-2.56-1.26-3.71-.56-1.05-1.39-1.76-2.43-2.34-2.18-1.23-4.73-2.03-7.26-2.03-2.58,0-4.92.98-6.62,2.63-.04-.38-.23-.8-.51-1.05-.34-.3-.77-.52-1.24-.5-.15.02-.31.04-.47.06-.3.08-.56.23-.77.44-.8.61-1.46,1.34-2.06,2.14.1-.22.21-.43.32-.64,1.2-2.17,3.14-4.05,5.41-5.16,2.61-1.29,5.49-1.57,8.35-1.15,2.84.41,5.82,1.52,8.08,3.26,2.43,1.87,3.15,4.69,3.95,7.46,3.59,12.42,7.18,24.84,10.77,37.26,1.29,4.48,3.54,10.42-.04,14.47-1.93,2.18-4.96,2.46-7.71,2.73-1.6.15-3.2.31-4.8.46-1.58.15-3.11.21-4.2-1.11-.91-1.11-1.06-2.6-1.34-3.95l-.95-4.61c-.49-2.35-.82-4.83-1.77-7.06-.8-1.89-2.06-3.34-4.28-3.14-1.29.12-2.59.58-3.8,1-1.15.39-2.26.89-3.26,1.59-2.11,1.47-2.59,3.72-2.74,6.12-.15,2.57-.22,5.21-1.53,7.53-1.34,2.4-3.99,3.73-6.77,3.55-1.6-.1-3.04-.6-4.4-1.3.72.3,1.47.6,2.24.72,1.29.2,2.52-.02,3.5-.92.55-.51.66-1.41.3-2.06.56-.15,1.09-.45,1.54-.91,1.41-1.47,1.47-3.84,1.57-5.72.13-2.6.32-5.37,1.95-7.54,1.52-2.02,3.68-3.24,6.03-4.13,2.41-.91,5.32-1.86,7.88-1.08,2.12.63,3.68,2.27,4.62,4.17,1,2,1.46,4.15,1.91,6.32.59,2.86,1.08,5.75,1.78,8.58.06.24.13.46.23.69ZM307.46,99.92s-.01-.03-.03-.06c0,.02.02.05.03.06Z"/>
          <path class="cls-1" d="M319.46,91.38c.38,1.73.69,3.85-.11,5.47-.99,2-3.46,2.17-5.46,2.36l-4.45.43c-.67.06-1.34.13-2,.17,0,0,0,0,0,.02-.1-.23-.18-.45-.23-.69-.7-2.84-1.19-5.73-1.78-8.58-.44-2.16-.91-4.31-1.91-6.32-.94-1.9-2.5-3.54-4.62-4.17-2.56-.78-5.47.18-7.88,1.08-2.35.89-4.51,2.11-6.03,4.13-1.63,2.18-1.81,4.94-1.95,7.54-.1,1.88-.16,4.25-1.57,5.72-.45.47-.98.76-1.54.91-.08-.14-.18-.26-.3-.37-.71-.63-1.77-.66-2.48-.01h-.01s-.04.01-.05.02h-.01c-.08,0-.15,0-.23,0h-.01c-.14-.03-.29-.07-.43-.11-.39-.12-.76-.27-1.13-.41-1.12-.61-2.14-1.37-3.16-2.11-.33-.24-.75-.3-1.15-.22-.11-.1-.24-.18-.37-.25,0-.05-.01-.09-.01-.14-.05-.79.26-1.62.44-2.38.41-1.69.83-3.37,1.27-5.05.86-3.31,1.79-6.6,2.78-9.87,2.01-6.59,4.29-13.11,6.84-19.52,1.3-3.29,2.67-6.54,4.12-9.76.49-.2.9-.59,1.01-1.11.15-.73.38-1.43.68-2.09.42-.5.9-.95,1.43-1.35.33-.25.51-.83.51-1.22,0-.05,0-.11,0-.16,1.7-1.65,4.04-2.64,6.62-2.63,2.53,0,5.08.8,7.26,2.03,1.04.58,1.87,1.29,2.43,2.34.62,1.15.9,2.46,1.26,3.71,3.34,11.54,6.67,23.09,10.01,34.64.76,2.64,1.65,5.27,2.24,7.94ZM303.85,73.26c.73-.92.82-1.97.81-3.09,0-1.21-.03-2.41-.04-3.61-.04-4.19.39-9.3-2.94-12.52-1.52-1.48-3.68-2.18-5.79-1.79-2.32.43-3.5,2.31-4.61,4.13-2.59,4.28-5.06,8.92-4.92,14.03,0,.17.03.32.07.47,0,.09.02.19.04.28.46,2,2.39,3.11,4.3,3.58,2.34.57,4.88.71,7.29.56,2.03-.14,4.44-.34,5.8-2.03Z"/>
          <path class="cls-1" d="M307.43,99.86s.02.05.03.06c0-.01-.02-.04-.03-.06Z"/>
          <path class="cls-1" d="M304.66,70.17c0,1.12-.08,2.17-.81,3.09-1.36,1.69-3.78,1.89-5.8,2.03-2.41.16-4.94.01-7.29-.56-1.91-.47-3.83-1.58-4.3-3.58-.02-.1-.04-.19-.04-.28.51,1.72,3.5,1.57,3.45-.47v-.13c.3,1.12,2.46,1.3,3.48,1.44,2,.27,4.14.31,6.13,0,.43-.07,1.34-.17,1.59-.55.23-.33.07-1.22.06-1.65-.02-1.92-.04-3.82-.06-5.74-.03-2.55.04-6.76-2.89-7.99-1.04-.43-2.12-.25-2.81.65-1.04,1.35-1.86,2.98-2.68,4.46-1.6,2.92-2.89,6.03-2.83,9.39,0-.01-.01-.02-.01-.03-.48-2.06-3.59-1.32-3.43.63-.04-.14-.06-.3-.07-.47-.14-5.11,2.33-9.75,4.92-14.03,1.11-1.83,2.29-3.71,4.61-4.13,2.11-.38,4.28.32,5.79,1.79,3.33,3.23,2.9,8.33,2.94,12.52,0,1.2.03,2.4.04,3.61Z"/>
          <path class="cls-1" d="M289.87,70.41c.06,2.04-2.94,2.19-3.45.47-.16-1.95,2.95-2.69,3.43-.63,0,.01,0,.02.01.03v.13Z"/>
          <path class="cls-1" d="M287.72,46.05c.48-1.02,1.13-1.92,1.92-2.69,0,.05,0,.11,0,.16,0,.38-.18.96-.51,1.22-.53.4-1.01.84-1.43,1.35,0-.01,0-.02.01-.03Z"/>
          <path class="cls-1" d="M286.82,47.47s0-.03.02-.03c-.01.08-.02.16-.04.23.01-.07.03-.14.05-.2,0,.03,0,.06.01.1,0-.05,0-.08,0-.12.06.4-.01.77-.21,1.13-.13.25-.34.44-.57.58.12-.26.23-.52.35-.78.38-.85.25-1.85-.63-2.35-.52-.3-1.29-.3-1.84.02.17-.54.38-1.06.63-1.57.6-.8,1.26-1.53,2.06-2.14.22-.21.48-.36.77-.44.16-.02.32-.04.47-.06.47-.02.91.2,1.24.5.28.25.46.67.51,1.05-.79.77-1.44,1.68-1.92,2.69-.08.1-.16.21-.25.32.05-.06.1-.12.16-.19-.27.34-.51.71-.71,1.09.01-.05.04-.11.06-.16-.04.08-.07.16-.11.25,0-.05,0-.1,0-.15,0,.05-.01.09-.02.14,0-.03,0-.06-.01-.1-.01-.05-.02-.1-.03-.14.01.09.03.19.04.28,0,0,0,.02,0,.03h0s-.01.04-.02.05Z"/>
          <path class="cls-1" d="M287.72,46.05s0,.02-.01.03c-.03.03-.06.06-.08.1.03-.05.06-.09.09-.13Z"/>
          <path class="cls-1" d="M287.72,46.05s-.06.08-.09.13c-.06.06-.11.12-.16.19.09-.1.17-.21.25-.32Z"/>
          <path class="cls-1" d="M287.63,46.18s.05-.07.08-.1c-.3.66-.53,1.36-.68,2.09-.11.52-.51.91-1.01,1.11.01-.05.04-.1.06-.15.23-.14.44-.33.57-.58.2-.36.27-.73.21-1.13h0c.01-.06.03-.1.05-.14,0,0,0-.01,0-.02.2-.38.44-.75.71-1.09Z"/>
          <path class="cls-1" d="M286.97,47.11c-.02.05-.04.11-.06.16,0,0-.01.01,0,.02-.02.03-.04.05-.05.09v-.03c.04-.08.08-.16.11-.25Z"/>
          <path class="cls-1" d="M286.86,47.38s.03-.06.05-.09c-.02.04-.04.08-.05.13h0v-.04Z"/>
          <path class="cls-1" d="M286.87,47.2s0,.1,0,.15c0,0,0,.01,0,.02,0,0,0-.02,0-.03,0-.05.01-.09.02-.14Z"/>
          <path class="cls-1" d="M286.86,47.44s0,.08,0,.12c0-.03,0-.07-.01-.1,0-.01,0-.02,0-.03Z"/>
          <path class="cls-1" d="M286.85,47.38s0-.01,0-.02v.03s0,0,0,0h0Z"/>
          <path class="cls-1" d="M286.86,47.42h0s0,.03,0,.04c0-.02,0-.04,0-.05,0,0,0-.01,0-.02,0,0,0,.01,0,.02h0Z"/>
          <path class="cls-1" d="M286.86,47.38v.03s0-.01,0-.02c0,0,0,0,0,0Z"/>
          <path class="cls-1" d="M286.85,47.38h0s0,.03,0,.03h0v-.03h0Z"/>
          <path class="cls-1" d="M286.85,47.41s0,.03,0,.05c-.02.06-.04.13-.05.2.01-.08.02-.16.04-.23h0s0-.02,0-.02Z"/>
          <path class="cls-1" d="M286.85,47.34s0,.03,0,.03h0v-.03Z"/>
          <path class="cls-1" d="M286.83,47.25s.01.07.01.1v.04c-.01-.1-.03-.19-.04-.28,0,.05.01.1.03.14Z"/>
          <path class="cls-1" d="M286.85,47.4h0s0,.01,0,.02h0s0-.01,0-.02Z"/>
          <path class="cls-1" d="M286.85,47.38h0s0,.02,0,.03c0,0,0-.02,0-.03Z"/>
          <path class="cls-1" d="M286.84,47.42h0s-.02.03-.02.05c0-.01.01-.03.02-.05Z"/>
          <path class="cls-1" d="M285.8,46c.89.51,1.01,1.5.63,2.35-.12.26-.23.52-.35.78-.15.09-.32.16-.48.21-.19.06-.41.08-.63.05h-.01l-.11-.02c-.96-.26-1.41-1.21-1.23-2.11.08-.42.2-.84.33-1.24.56-.32,1.32-.32,1.84-.02Z"/>
          <path class="cls-1" d="M286.08,49.14s-.05.1-.06.15c-.33.13-.7.18-1.04.11.22.03.44.01.63-.05.16-.05.32-.12.48-.21Z"/>
          <path class="cls-1" d="M284.98,49.4c.34.07.71.02,1.04-.11-1.45,3.22-2.82,6.47-4.12,9.76-2.55,6.41-4.82,12.93-6.84,19.52-.99,3.27-1.93,6.56-2.78,9.87-.44,1.68-.86,3.36-1.27,5.05-.18.76-.49,1.59-.44,2.38,0,.05,0,.09.01.14-.67-.34-1.53-.3-2.07.28-.62.66-.72,1.78,0,2.43.46.41.94.77,1.44,1.08-1.45-.36-2.56-1.61-2.82-3.16-.35-2.13.59-4.53,1.1-6.59,3.72-14.88,8.82-29.41,15.15-43.43.03-.06.06-.12.1-.18-.03.08-.05.16-.06.24-.11.53-.11.95,0,1.48.09.41.45.82.81,1.02.2.12.46.19.72.22h.01Z"/>
          <path class="cls-1" d="M284.86,49.38l.11.02c-.25-.03-.51-.1-.72-.22-.36-.21-.72-.62-.81-1.02-.11-.53-.11-.95,0-1.48.01-.08.04-.16.06-.24.12-.17.27-.32.46-.42-.13.41-.25.82-.33,1.24-.18.91.27,1.85,1.23,2.11Z"/>
          <path class="cls-1" d="M284.51,44.54s.04-.06.07-.09c-.25.51-.46,1.03-.63,1.57-.19.1-.34.25-.46.42.08-.26.2-.51.31-.76.19-.41.45-.79.71-1.15Z"/>
          <path class="cls-1" d="M274.39,98.25s0,0,0,0h0s.01,0,.03.01c.11.04.27.11.3.12.18.07.36.14.54.21.06.03.11.07.17.1,1.32.7,3.03,1.19,4.49.79.37.65.25,1.54-.3,2.06-.97.9-2.21,1.12-3.5.92-.77-.12-1.52-.43-2.24-.72-.01,0-.03,0-.04-.01-1.01-.52-1.95-1.15-2.88-1.82.23,0,.45-.03.68-.08,1.25-.29,1.49-1.48,1.05-2.37.27.15.55.29.83.42.18.08.35.16.53.24.04.01.23.1.32.14Z"/>
          <path class="cls-1" d="M276.9,99.12q.11.02,0,0h0ZM277.02,99.13s.06,0,.08,0t0,0s-.05.05-.06.06c.01-.01.04-.03.09-.08h0s.05,0,.06,0c0,0-.03,0-.06,0l.1-.05s-.05.01-.07.02c0,0,0,0,.01-.01l-.04.02c.71-.65,1.77-.62,2.48.01.12.11.22.23.3.37-1.46.41-3.17-.09-4.49-.79-.06-.03-.11-.06-.17-.1.37.14.75.29,1.13.41.14.04.29.08.43.11h.01c.08,0,.15,0,.23,0-.01,0-.04,0-.05.01Z"/>
          <path class="cls-1" d="M277.18,99.09s.05-.01.07-.02l-.1.05s.01-.02.03-.03Z"/>
          <path class="cls-1" d="M277.15,99.11s.06,0,.06,0c-.01,0-.04,0-.06,0Z"/>
          <path class="cls-1" d="M277.19,99.07s-.01,0-.01.01c0,0-.02,0-.03,0l.04-.02Z"/>
          <path class="cls-1" d="M277.18,99.09s-.02.01-.03.03h-.01s0,0,0,0h0s0-.01,0-.01h0s.02-.01.03-.01Z"/>
          <path class="cls-1" d="M277.14,99.1h0s0,0,0,0h0Z"/>
          <path class="cls-1" d="M277.13,99.11h0s-.08.06-.09.08c0-.01.03-.03.06-.06h.01s.01,0,.01-.01Z"/>
          <path class="cls-1" d="M277.13,99.1h0s0,.01,0,.01h-.04s.04-.01.05-.01Z"/>
          <path class="cls-1" d="M277.13,99.11s0,0-.01,0h0s0,0,0,0c0,0,0,0,0,0Z"/>
          <path class="cls-1" d="M277.12,99.11h0s0,0-.01,0c0,0,0,0,.01,0Z"/>
          <path class="cls-1" d="M277.12,99.12h0s0,0,0,0t0,0h0s0,0,.01,0Z"/>
          <path class="cls-1" d="M277.12,99.11s-.01,0-.01,0h0s-.05,0-.08,0c.01,0,.04,0,.05-.01h.05Z"/>
          <path class="cls-1" d="M276.9,99.12q.11.02,0,0h0Z"/>
          <path class="cls-1" d="M275.26,98.59c-.18-.07-.37-.14-.54-.21-.03,0-.19-.08-.3-.12-.01,0-.02,0-.03-.01h0s0,0,0,0c-.09-.04-.29-.12-.32-.14-.18-.08-.35-.16-.53-.24-.28-.13-.56-.27-.83-.42-.27-.55-.8-.97-1.5-1-.07-.05-.13-.11-.2-.16-.01-.01-.03-.02-.04-.03.4-.08.82-.02,1.15.22,1.02.75,2.04,1.5,3.16,2.11Z"/>
          <path class="cls-1" d="M273.86,101.72c-.09-.03-.18-.08-.27-.11-1.27-.51-2.5-1.06-3.63-1.81.32.08.67.12,1.02.1.93.67,1.88,1.3,2.88,1.82Z"/>
          <path class="cls-1" d="M270.77,96.5c.11.1.18-.03,0,0,.15-.03.3-.05.43-.05.07.07.15.13.23.2t.01,0s.03.02.04.03c0,0,.01.01.03.01,0,0,0,.01.01.01.04.03.09.06.13.09.3.21.6.39.91.57.04.02.09.05.13.07.44.89.2,2.08-1.05,2.37-.23.05-.45.08-.68.08-.22-.15-.43-.3-.64-.46-.76-.56-1.16-1.47-.63-2.35.2-.34.57-.61.98-.76,0,.02.01.05.03.07.02.05.04.08.06.1Z"/>
          <path class="cls-1" d="M272.7,97.45s-.09-.05-.13-.07c-.31-.18-.62-.36-.91-.57-.04-.03-.09-.05-.13-.09,0,0,0,0-.01-.01-.01,0-.02,0-.03-.01-.01-.01-.03-.02-.04-.03t-.01,0c-.08-.07-.15-.13-.23-.2.7.02,1.23.45,1.5,1Z"/>
          <path class="cls-1" d="M271.2,96.46c-.13,0-.28.01-.43.05-.02-.02-.04-.05-.06-.1-.01-.02-.02-.05-.03-.07.09-.03.18-.06.28-.08.01.01.03.02.04.03.06.05.13.11.2.16Z"/>
          <path class="cls-1" d="M270.97,99.9c-.35.03-.7-.01-1.02-.1-.5-.32-.98-.68-1.44-1.08-.72-.65-.62-1.77,0-2.43.55-.58,1.41-.62,2.07-.28.01.12.04.22.09.33-.41.14-.77.42-.98.76-.53.88-.13,1.78.63,2.35.21.16.42.31.64.46Z"/>
          <path class="cls-1" d="M270.77,96.5c.18-.03.11.1,0,0h0Z"/>
          <path class="cls-1" d="M270.96,96.26c-.1.02-.19.05-.28.08-.05-.11-.08-.21-.09-.33.13.07.26.15.37.25Z"/>
        </g>
      </g>
    </g>
    <g id="y">
      <g id="y-2" data-name="y">
        <g>
          <path class="cls-2" d="M371.11,44.62c.1.31.12.66.03,1.05-2.7,12-11.95,20.25-16.73,31.15.23-2.09-2.86-2.87-3.45-.66-.02.08-.05.17-.07.26.02-.27.08-.55.2-.81,4.37-10.52,13.34-18.51,16.36-29.7.18.61.65,1.12,1.22,1.29.96.28,1.86-.35,2.17-1.32.13-.4.22-.82.28-1.24Z"/>
          <path class="cls-2" d="M370.39,40.37c.74,1.27.92,2.79.72,4.25-.48-1.54-2.92-1.92-3.36.05-.09.41-.2.82-.3,1.23-.11-.32-.11-.69,0-1.02.18-.62.3-1.23.22-1.73-.09-.63-.25-.85-.59-1.21-.03-.03-.05-.05-.06-.08,0,0,0,0,0-.02.66.57,1.77.53,2.34-.15.61-.71.65-1.7.15-2.46.34.32.65.71.91,1.15Z"/>
          <path class="cls-2" d="M371.11,44.62c-.06.42-.15.84-.28,1.24-.3.97-1.21,1.6-2.17,1.32-.57-.17-1.04-.68-1.22-1.29.11-.41.21-.81.3-1.23.44-1.97,2.88-1.59,3.36-.05Z"/>
          <path class="cls-2" d="M366.25,41.18s0,0-.02-.02c0,0,0,0-.01,0,0,0,0,0,0,0h0c-.1-.02-.34-.11-.39-.13s-.32-.07-.42-.09h.02s-.01,0-.02,0h-.03c-.12,0-.36-.02-.4-.02-.23,0-.45,0-.68.02-.46.03-.94.1-1.4.16-.99.14-1.95.23-2.95.16-.56-.05-1.11-.12-1.67-.2.13-.53.25-1.06.34-1.6.19-.99-.27-2.03-1.23-2.32-.02,0-.04,0-.06-.02.13,0,.27.02.39.04h.01c.18.09.33.21.46.37.39.48.71.69,1.22.84.7.23,1.02.23,1.85.18,1.64-.1,3.23-.72,4.88-.7,1.27,0,2.44.49,3.34,1.37.51.75.46,1.75-.15,2.46-.58.68-1.68.72-2.34.15-.02-.02-.04-.04-.06-.06l-.08-.09c-.04-.05-.34-.3-.34-.32-.09-.05-.23-.14-.28-.17.01,0,.02,0,.02,0ZM366.52,41.35s.04.02.05.03c-.03-.02-.04-.03-.05-.03Z"/>
          <path class="cls-2" d="M369.34,39.01c.06.07.11.14.15.2-.9-.88-2.07-1.36-3.34-1.37-1.65-.02-3.24.6-4.88.7-.83.05-1.15.05-1.85-.18-.51-.16-.83-.36-1.22-.84-.13-.16-.29-.28-.46-.37,1.08.2,1.83.35,2.93.36,1.02.02,2.02-.17,3.03-.29,2-.23,4.21.11,5.65,1.78Z"/>
          <path class="cls-2" d="M367.66,43.13c.08.5-.04,1.11-.22,1.73-.11.34-.1.7,0,1.02-3.02,11.2-11.99,19.18-16.36,29.7-.11.26-.18.54-.2.81-1.86,6.95-2.61,14.23-2.17,21.44-.14.32-.2.7-.15,1.1v.1s0,.03-.01.04c0,0,0,.02,0,.02,0,.02-.02.05-.04.06.04-.11-.22.2-.16.2-.1.06-.23.14-.25.16t0,0c-.16.07-.34.11-.51.16-.07.02-.15.03-.23.05,0,0-.02,0-.04,0h-.04s-.02,0-.03,0h-.01c-.41.02-.83.06-1.24.05-.07,0-.15,0-.22-.02h0s-.05,0-.08-.02c-.22-.08-.44-.15-.65-.24-.54-.22-1.03-.38-1.62-.46-.43-.05-.86-.04-1.3-.02.17-3.23.34-6.48.51-9.72.19-3.68.56-7.4-.18-11.04-.36-1.78-2.34-1.66-3.12-.5-.89-5.04-4.67-8.76-8.25-12.01-2.03-1.82-4.14-3.71-5.53-6.15-1.53-2.7-1.43-5.64-1.24-8.68,0-.16,0-.32-.05-.47.06-2.55-.62-5.03-1.2-7.49-.11-.48-.31-1.02-.29-1.52,0,0,0-.02,0-.03.12-.05.27-.08.34-.09,1.09-.16,2.29.05,3.38.11,1.29.06,2.57.08,3.85-.09,1.01-.14,2.29-.72,3.25-.17,1.79,1.03,2.12,4.3,2.5,6.18.56,2.74.95,5.51,1.48,8.26.47,2.44,1.52,4.42,3.87,5.18,4.66,1.51,8.44-3.18,10.94-6.68,2.6-3.65,4.54-7.85,5.68-12.27,1.91.69,4.13.4,6.12.02.72-.14,1.2-.26,1.86-.26.34,0,.4-.02.67.08h0s.01.02.02.02c0,0,0,0,0,0,.05.03.14.08.18.11.04.02.06.03.06.03h0s.04.05.06.08c.34.36.5.58.59,1.21Z"/>
          <path class="cls-2" d="M367,41.82s0,.02,0,.02h0c-.05-.05-.06-.08-.06-.08.02.02.04.04.06.06Z"/>
          <path class="cls-2" d="M366.75,41.71s0,0,0,0c0,0,0,0,0,0,0,0-.01,0-.01,0h0c-.27-.11-.33-.1-.67-.09-.65,0-1.13.12-1.86.26-1.98.38-4.21.68-6.12-.02.08-.27.14-.54.2-.81.56.08,1.11.16,1.67.2,1,.08,1.96-.02,2.95-.16.46-.06.94-.13,1.4-.16.23,0,.45-.02.68-.02.04,0,.28.02.4.02h.03c.1.02.37.08.42.09s.3.11.39.14c0,0,0,0,0,0,0,0,0,0,.01,0,.06.04.19.12.28.17,0,.02.3.27.34.32l.08.09s.01.03.06.08c0,0-.03,0-.06-.03-.04-.03-.13-.08-.18-.11Z"/>
          <path class="cls-2" d="M366.74,41.7s0,0,0,0c0,0-.01,0-.02,0,0,0,0,0,.01,0Z"/>
          <path class="cls-2" d="M366.57,41.38s-.03-.02-.05-.03c0,0,.02,0,.05.03Z"/>
          <path class="cls-2" d="M366.23,41.17s.01,0,.02.02c0,0,0,0-.02,0,0,0,0,0-.01,0,0,0,0,0,.01,0Z"/>
          <path class="cls-2" d="M366.21,41.16s0,0,0,0c0,0,0,0,0,0h0Z"/>
          <path class="cls-2" d="M365.42,40.94h-.05s.01,0,.03,0c0,0,.01,0,.02,0Z"/>
          <path class="cls-2" d="M357.38,37.13c.96.29,1.42,1.33,1.23,2.32-.1.53-.21,1.06-.34,1.6-.49-.08-.98-.17-1.48-.26-.96-.17-1.42-1.4-1.22-2.31.2-.9.96-1.35,1.74-1.36h0s.04,0,.06.02Z"/>
          <path class="cls-2" d="M358.27,41.05c-.06.27-.12.54-.2.81-.88-.32-1.68-.85-2.37-1.67-.48-.57-.63-1.36-.39-2.04.02-.05.04-.09.06-.14.37-.7,1.22-1.07,1.93-.9-.78,0-1.55.45-1.74,1.36-.2.91.26,2.14,1.22,2.31.49.09.98.18,1.48.26Z"/>
          <path class="cls-2" d="M357.71,37.15c-.13-.02-.26-.04-.39-.04h0c-.72-.17-1.57.2-1.93.9.08-.17.18-.34.32-.49.51-.53,1.36-.7,2.01-.37Z"/>
          <path class="cls-2" d="M322.8,41.35s-.04.05-.14.14c.03-.02.07-.05.13-.06,0,0,0,.02,0,.03-.02.5.18,1.04.29,1.52.58,2.46,1.25,4.94,1.2,7.49-.18-.8-.95-1.41-1.71-1.41-1.01,0-1.7.86-1.76,1.88-.02.31-.04.63-.04.93-.05-.17-.06-.34-.05-.51.29-3.28-1.05-6.15-1.39-9.32-.16-1.5.32-3,1.58-3.8,1.13-.72,2.5-.7,3.77-.66,1.34.05,2.69.18,4.04.14,1.23-.03,2.4-.38,3.63-.5,2.45-.22,4.57,1.43,5.63,3.74,1.13,2.44,1.55,5.26,2.01,7.91.25,1.44.49,2.88.75,4.32.18,1,.21,2.7.89,3.5,1.06,1.24,2.94.46,4-.32,1.68-1.24,3.09-3.13,4.28-4.88,2.64-3.9,4.45-8.31,5.34-13.04.02-.11.05-.2.09-.3-.25.68-.09,1.47.39,2.04.69.82,1.49,1.36,2.37,1.67-1.14,4.42-3.07,8.62-5.68,12.27-2.5,3.5-6.29,8.19-10.94,6.68-2.36-.76-3.4-2.74-3.87-5.18-.53-2.75-.92-5.52-1.48-8.26-.38-1.88-.71-5.14-2.5-6.18-.96-.56-2.24.03-3.25.17-1.29.17-2.57.15-3.85.09-1.09-.06-2.29-.26-3.38-.11-.07.02-.23.05-.34.09,0-.05.01-.08.01-.08Z"/>
          <path class="cls-2" d="M350.96,76.15c.6-2.21,3.68-1.42,3.45.66-.11.23-.2.45-.3.68-.39.93-1.65,1.14-2.41.68-.63-.4-.88-1.08-.82-1.76.02-.08.05-.17.07-.26Z"/>
          <path class="cls-2" d="M354.11,77.49c.09-.23.19-.45.3-.68,0,.11-.03.23-.06.34-1.9,6.98-2.59,14.22-2.06,21.47.03.37-.08.72-.27,1.02.08-.48.06-.99-.03-1.5-.18-.96-1.31-1.61-2.16-1.31-.53.18-.91.55-1.1,1.02-.44-7.21.3-14.49,2.17-21.44-.06.69.19,1.36.82,1.76.75.47,2.02.26,2.41-.68Z"/>
          <path class="cls-2" d="M351.98,98.14c.09.51.11,1.02.03,1.5-.33.52-.92.87-1.48.87-1.01,0-1.69-.87-1.76-1.88-.02-.26-.04-.52-.05-.78.2-.47.58-.84,1.1-1.02.85-.3,1.98.35,2.16,1.31Z"/>
          <path class="cls-2" d="M348.59,99.14s0-.06,0-.08h0v-.02h0c0-.05.01-.08.01-.11,0,.02-.01.04-.02.06,0-.03,0-.05,0-.05-.05-.4,0-.78.15-1.1.01.26.03.52.05.78.07,1.01.75,1.88,1.76,1.88.56,0,1.15-.35,1.48-.87-.13.96-.58,1.85-1.3,2.51-1.05.96-2.36,1.28-3.71,1.37-.67.05-1.32.05-1.98-.08-.54-.11-1.03-.38-1.55-.55-.01,0-.25-.07-.31-.1h.03s-.05,0-.04,0c-.07,0-.15,0-.23-.02-.28,0-.57.02-.85.02-.67.02-1.34,0-1.98-.2-.13-.04-.25-.1-.37-.17.79.21,1.77-.14,2.14-1.02,0-.02.02-.04.03-.06.05-.13.09-.27.11-.42,0-.02,0-.02,0-.04.07-.27.08-.54.05-.81.02-.35.04-.69.06-1.05.44-.02.87-.03,1.3.02.58.08,1.08.24,1.62.46.22.09.44.17.65.24.03,0,.05,0,.08.02h-.04s.06.02.08.02c0,0-.02,0-.04-.02.07,0,.15.02.22.02.41,0,.83-.03,1.24-.05h.01s.04,0,.05,0h.01c.1-.02.11-.02.04,0,.08-.02.15-.03.23-.05.17-.05.34-.09.51-.16t0,0s.15-.1.25-.16c-.06,0,.2-.3.16-.2.02-.02.04-.04.04-.06-.04.12-.03.11.02-.02,0,0,0-.02,0-.02,0,.02,0,.05.01.08Z"/>
          <path class="cls-2" d="M348.59,99.05s0,.05,0,.08c0-.02,0-.05-.01-.08h0s0,0,0,0Z"/>
          <path class="cls-2" d="M348.58,98.99s.01-.05.02-.06c0,.02,0,.05-.01.1t0-.02h0v-.02Z"/>
          <path class="cls-2" d="M348.59,99.05h0s0,0,0,0h0s0,0,0,0Z"/>
          <path class="cls-2" d="M348.59,99.04h0s0,0,0,0t0,0Z"/>
          <path class="cls-2" d="M348.59,99.03h0s0,0,0,.02c0,0,0-.02,0-.03t0,.02Z"/>
          <path class="cls-2" d="M348.58,99.05h0s0,.02,0,.03v-.02s0,0,0,0Z"/>
          <path class="cls-2" d="M348.58,99.05h0s0,.02,0,.02v-.02s0-.02,0-.03c0,0,0,.02,0,.03Z"/>
          <path class="cls-2" d="M348.58,98.99v.02s0-.02,0-.03v-.03s0,.02,0,.05Z"/>
          <path class="cls-2" d="M348.58,99.01h0s0,.03,0,.04v-.07s0,.02,0,.03Z"/>
          <path class="cls-2" d="M348.57,99.06v.02c-.05.14-.06.14-.02.02,0,0,0-.02,0-.02,0,0,.01-.02.01-.02Z"/>
          <path class="cls-2" d="M348.57,99.05v.02s0,.02-.01.02c0,0,0-.02.01-.04Z"/>
          <path class="cls-2" d="M348.1,99.52s0,0,0,0t0,0Z"/>
          <path class="cls-2" d="M347.36,99.72c.08,0,.06,0-.04,0,.01,0,.03,0,.04,0Z"/>
          <path class="cls-2" d="M347.31,99.73s-.03,0-.05,0c0,0,.02,0,.03,0h.02Z"/>
          <path class="cls-2" d="M345.82,99.79s-.04,0-.08-.02h.04s.03,0,.04.02Z"/>
          <path class="cls-2" d="M343.19,102.8h-.04s0,0,.04,0Z"/>
          <path class="cls-2" d="M342.45,78.28c.74,3.64.37,7.36.18,11.04-.17,3.24-.34,6.48-.51,9.72h-.06c-.14,0-.28,0-.43,0h0c-.28-.32-.69-.51-1.24-.48-.25.02-.11-3.05-.1-3.38.01-1.7,0-3.4-.08-5.1-.12-3.19-.39-6.36-.79-9.53.06-.2.1-.41.09-.66,0-.73-.08-1.44-.2-2.12.78-1.17,2.76-1.28,3.12.5Z"/>
          <path class="cls-2" d="M342.13,99.04c-.01.35-.04.7-.06,1.05-.04-.39-.18-.76-.43-1.04.15,0,.29,0,.43,0h.06Z"/>
          <path class="cls-2" d="M342.08,100.09c.04.27.02.54-.05.81,0-.07.01-.14.02-.22,0-.2.02-.4.03-.59Z"/>
          <path class="cls-2" d="M341.46,101.32c-.38-.09-.75-.23-1.06-.45.27.29.65.4,1.06.45ZM341.5,101.33c.11.03.23.06.34.08-.27.5-.75.88-1.43.92-.33.02-.65-.02-.94-.1-.52-.45-.75-1.21-.59-1.95.21-.99,1.28-1.59,2.17-1.32.08.03.16.05.24.07-.08,0-.06,0,.04.02,0,0,0,0-.01,0,.02,0,.06,0,.09,0h.25c.25.28.39.65.43,1.04,0,.2-.02.4-.03.59,0,.08-.01.15-.02.22,0,.02,0,.02,0,.04-.04.14-.08.29-.15.42-.13,0-.25-.02-.37-.03Z"/>
          <path class="cls-2" d="M341.86,101.36c.07-.14.12-.28.15-.42-.02.15-.06.29-.11.42h-.04Z"/>
          <path class="cls-2" d="M341.91,101.36s-.02.04-.03.06c-.01,0-.03,0-.04,0,0-.02.02-.04.03-.05h.04Z"/>
          <path class="cls-2" d="M341.84,101.41s.03,0,.04,0c-.38.88-1.35,1.23-2.14,1.02h0c-.1-.06-.19-.12-.27-.2.3.08.61.11.94.1.68-.04,1.17-.42,1.43-.92Z"/>
          <path class="cls-2" d="M341.86,101.36s-.02.04-.03.05c-.11-.02-.23-.05-.34-.08.12.02.24.02.37.03Z"/>
          <path class="cls-2" d="M341.64,99.05h-.25s-.07,0-.09,0h0s-.01,0-.02,0c-.08-.02-.16-.04-.24-.07-.89-.27-1.95.33-2.17,1.32-.15.75.07,1.5.59,1.95-.13-.03-.26-.08-.39-.14-.35-.3-.58-.77-.54-1.42.19-3.66.38-7.33.57-10.99.15-2.89.51-5.93.21-8.83.05-.09.09-.19.13-.3.39,3.16.67,6.33.79,9.53.07,1.69.09,3.4.08,5.1,0,.33-.15,3.4.1,3.38.55-.03.96.17,1.24.48Z"/>
          <path class="cls-2" d="M341.3,99.04s0,0,.01,0c-.11,0-.12-.02-.04-.02,0,0,.01,0,.02,0h0Z"/>
          <path class="cls-2" d="M341.46,101.32c-.41-.05-.79-.17-1.06-.45.31.23.68.36,1.06.45Z"/>
          <path class="cls-2" d="M339.46,102.23c.08.08.17.14.27.2-.24-.06-.46-.17-.65-.34.13.06.25.11.39.14Z"/>
          <path class="cls-2" d="M339.53,79.9c0,.24-.03.46-.09.66-.04-.38-.09-.75-.14-1.13-.04-.26-.13-.47-.27-.66,0-.38.13-.71.31-.98.12.68.19,1.39.2,2.12Z"/>
          <path class="cls-2" d="M339.3,79.43c.05.38.1.75.14,1.13-.04.11-.08.21-.13.3-.06-.53-.14-1.05-.25-1.57-.04-.18-.05-.35-.04-.52.14.19.24.41.27.66Z"/>
          <path class="cls-2" d="M339.31,80.86c.3,2.91-.06,5.94-.21,8.83-.19,3.66-.38,7.33-.57,10.99-.04.65.19,1.11.54,1.42-1.28-.56-2.1-2.02-2.27-3.52-.23-1.94,0-3.98-.02-5.94-.06-4.08-.34-8.16-.87-12.2-.05-.39-.03-.79.08-1.14.01.2.03.41.03.61.02,2.04,2.53,2.36,3.3.96Z"/>
          <path class="cls-2" d="M339.07,79.28c.11.52.18,1.05.25,1.57-.77,1.41-3.28,1.08-3.3-.96,0-.2-.01-.41-.03-.61.16-.55.53-.99,1.15-1.18.62-.18,1.46.08,1.89.66,0,.17,0,.34.04.52Z"/>
          <path class="cls-2" d="M339.33,77.78c-.18.27-.3.6-.31.98-.44-.57-1.27-.84-1.89-.66-.61.19-.98.63-1.15,1.18-.41-5.35-5.33-8.89-8.78-12.13-2.08-1.95-4.12-4.16-5.31-6.88-1.17-2.69-1.27-5.53-1.14-8.41.2.78.98,1.37,1.71,1.37,1.03,0,1.67-.87,1.76-1.88.03-.3.04-.6.04-.9.04.16.06.32.05.47-.18,3.04-.29,5.99,1.24,8.68,1.39,2.45,3.5,4.33,5.53,6.15,3.58,3.25,7.36,6.97,8.25,12.01Z"/>
          <path class="cls-2" d="M324.26,50.47c0,.29-.01.59-.04.9-.08,1.02-.73,1.88-1.76,1.88-.73,0-1.51-.59-1.71-1.37,0-.31.02-.63.04-.93.06-1.02.75-1.88,1.76-1.88.76,0,1.53.61,1.71,1.41Z"/>
          <path class="cls-2" d="M322.8,41.35s0,.03-.01.08c-.06.02-.1.04-.13.06.11-.09.13-.15.14-.14Z"/>
        </g>
        <g>
          <path class="cls-11" d="M341.5,101.33c.11.03.23.06.34.08.01,0,.03,0,.04,0s.03,0,.04,0c.68.13,1.35.23,2.03.32.64.08,1.29.12,1.93.02.64-.11,1.27-.38,1.69-.85"/>
          <path class="cls-11" d="M341.46,101.32c-.41-.05-.79-.17-1.06-.45.31.23.68.36,1.06.45Z"/>
          <path class="cls-11" d="M341.46,101.32s.02,0,.04,0"/>
          <path class="cls-11" d="M345.12,101.67c-.94-.17-1.91-.27-2.87-.29-.11,0-.23,0-.34-.02h-.04c-.13,0-.25-.02-.37-.03"/>
        </g>
      </g>
    </g>
    <g id="r">
      <g id="r-2" data-name="r">
        <g>
          <path class="cls-4" d="M76.23,91.89c.04.31.01.65-.1,1.01-.75,2.53-2.72,4.31-5.16,5.16-2.56.89-5.37.58-8.01.43-5.04-.29-10.55-.18-14.35-4.08-3.09-3.17-4.62-7.81-5.73-12-.63-2.39-1.05-4.82-1.34-7.27-.21-1.81-.33-3.63-.78-5.41-.38-1.51-1.02-3.06-2.43-3.87-1.24-.72-2.69-.66-4.04-.27-3.55,1.01-5.74,4.25-6.77,7.66-1.29,4.24-1.02,8.74-.45,13.09.33,2.45.74,4.89,1.06,7.35.31,2.35.24,4.73-2.12,6-2.03,1.09-4.73.68-6.93.65l-7.56-.09c-1.86-.02-3.83.12-5.73,0,5.88-.35,11.77-.7,17.64-1.06,3.2-.19,3.22-5.19,0-5-.08.01-.17.01-.25.01-.3-2.47-.73-4.92-1.06-7.39-1.03-7.78-.94-17.45,5.47-23.1,2.78-2.45,6.49-3.87,10.2-3.29,3.87.6,6.51,3.65,7.61,7.28,1.12,3.65,1.02,7.61,1.83,11.34.81,3.72,1.91,7.99,4.27,11.06,2.38,3.1,6.24,3.05,9.79,3.25,2.2.12,4.5.45,6.7.22,1.24-.12,2.75-.58,3.24-1.84v.16c0,3.22,5,3.22,5,0Z"/>
          <path class="cls-4" d="M74.63,77.78c1.71,1.87,1.62,4.26,1.61,6.62,0,2.5,0,4.98-.01,7.48-.27-2.34-4.13-3.05-4.94-.32-.02.06-.04.12-.06.17.01-2.45.01-4.88.01-7.33.01-.86.24-2.09-.1-2.92-.22-.54-.79-.78-1.33-.96-1.91-.65-4.02-.33-5.95-.94-1.83-.58-3.49-1.69-4.75-3.14-2.57-2.97-3.81-6.78-4.84-10.51-1.26-4.6-2.04-9.34-2.4-14.1-.08-.94.55-1.78,1.37-2.21-.24.29-.48.59-.7.9-.79,1.09-.19,2.79.89,3.42,1.27.74,2.63.2,3.43-.9.03-.04.06-.09.1-.13.39,4.27,1.2,8.49,2.39,12.6.86,2.98,1.9,6.72,4.58,8.6,1.66,1.17,3.79.99,5.71,1.27,1.85.28,3.71,1,4.99,2.4Z"/>
          <path class="cls-4" d="M76.23,91.88h0c0,3.23-5,3.23-5,0v-.16s.04-.11.06-.17c.81-2.73,4.67-2.02,4.94.32Z"/>
          <path class="cls-4" d="M71.49,19.61c1.78,4.36,1.52,9.58.65,14.13-.86,4.5-3.09,8.35-6.49,11.4-2.87,2.57-6.38,4.64-8.69,7.77l-.09-1.08c-.1-1.34-1.08-2.5-2.5-2.5-.38,0-.77.1-1.12.28,2.46-3.02,5.65-5.17,8.58-7.75,3.29-2.89,5.13-6.32,5.69-10.69.53-4.09.44-8.3-1.77-11.9-1.05-1.71-2.37-3.23-3.69-4.74-1.26-1.45-2.51-2.93-4.23-3.82-1.84-.96-4.05-1.35-6.05-1.83-2.17-.53-4.37-1-6.61-1.14-2.22-.15-4.38.01-6.52.63-2.32.67-4.51,1.34-6.93,1.58-2.12.22-4.21.28-6.26.93-2.03.64-3.9,1.67-5.75,2.69-1.55.85-2.87,1.62-3.34,3.42-.48,1.79-.34,3.71-.46,5.55-.53,8.5-3.68,16.54-4.62,24.96-.23-1.1-1.34-1.95-2.45-1.95-1.43,0-2.41,1.15-2.5,2.5-.03.45-.06.89-.09,1.34-.07-.23-.1-.47-.08-.72.48-5.58,1.91-10.98,3.15-16.42.59-2.6,1.16-5.23,1.44-7.89.27-2.52.16-5.06.55-7.56.35-2.23,1.37-4.32,3.14-5.76,1.79-1.46,3.97-2.53,6.04-3.51,2.28-1.08,4.57-1.86,7.08-2.19,2.4-.31,4.81-.31,7.16-.99,2.46-.72,4.8-1.46,7.38-1.62,2.59-.17,5.19.15,7.73.62,4.7.86,9.92,1.88,13.52,5.24,1.57,1.47,2.97,3.19,4.32,4.87,1.53,1.91,2.89,3.87,3.81,6.15Z"/>
          <path class="cls-4" d="M71.14,81.48c.34.83.11,2.06.1,2.92,0,2.45,0,4.88-.01,7.33-.49,1.26-2,1.72-3.24,1.84-2.2.23-4.5-.1-6.7-.22-3.55-.2-7.41-.15-9.79-3.25-2.36-3.07-3.46-7.34-4.27-11.06-.81-3.73-.71-7.69-1.83-11.34-1.1-3.63-3.74-6.68-7.61-7.28-3.71-.58-7.42.84-10.2,3.29-6.41,5.65-6.5,15.32-5.47,23.1.33,2.47.76,4.92,1.06,7.39-5.28.33-10.58.65-15.87.96-.38,0-.77,0-1.15,0-.12-.01-.24-.02-.37-.02-.09-.31-.24-.59-.45-.83.2-2.75.91-5.45,1.67-8.15,1.13-3.99,2.09-7.92,2.52-12.05.9-8.65,1.23-17.38,1.81-26.05.01-.19,0-.38-.05-.55.94-8.42,4.09-16.46,4.62-24.96.12-1.84-.02-3.76.46-5.55.47-1.8,1.79-2.57,3.34-3.42,1.85-1.02,3.72-2.05,5.75-2.69,2.05-.65,4.14-.71,6.26-.93,2.42-.24,4.61-.91,6.93-1.58,2.14-.62,4.3-.78,6.52-.63,2.24.14,4.44.61,6.61,1.14,2,.48,4.21.87,6.05,1.83,1.72.89,2.97,2.37,4.23,3.82,1.32,1.51,2.64,3.03,3.69,4.74,2.21,3.6,2.3,7.81,1.77,11.9-.56,4.37-2.4,7.8-5.69,10.69-2.93,2.58-6.12,4.73-8.58,7.75h-.01c-.82.44-1.45,1.28-1.37,2.22.36,4.76,1.14,9.5,2.4,14.1,1.03,3.73,2.27,7.54,4.84,10.51,1.26,1.45,2.92,2.56,4.75,3.14,1.93.61,4.04.29,5.95.94.54.18,1.11.42,1.33.96ZM53.59,32.54c.09-3.69-.67-7.36-3.06-10.25-2.46-2.98-6.11-3.56-9.78-3.51-3.79.06-7.62.82-10.67,3.2-2.94,2.3-4.23,5.79-4.93,9.34-.82,4.15-.49,8.15,2.18,11.58,2.5,3.21,6.59,4.98,10.65,4.64.46-.04.89-.18,1.26-.4.16,0,.33-.02.49-.04,3.79-.44,6.84-2.51,9.73-4.87,3.05-2.5,4.03-5.87,4.13-9.69Z"/>
          <path class="cls-4" d="M56.87,51.83l.09,1.08s-.07.09-.1.13c-.8,1.1-2.16,1.64-3.43.9-1.08-.63-1.68-2.33-.89-3.42.22-.31.46-.61.7-.9h.01c.35-.19.74-.29,1.12-.29,1.42,0,2.4,1.16,2.5,2.5Z"/>
          <path class="cls-4" d="M50.53,22.29c2.39,2.89,3.15,6.56,3.06,10.25-.1,3.82-1.08,7.19-4.13,9.69-2.89,2.36-5.94,4.43-9.73,4.87-.16.02-.33.04-.49.04.73-.42,1.24-1.15,1.24-2.1,0-1.27-1.15-2.62-2.5-2.5-5.02.43-8.81-3.54-8.24-8.52.06.12.09.25.11.39.73,5.36,5.74,9.05,11.09,7.37,2.22-.7,4.54-2.47,6.14-4.14,1.7-1.75,1.62-4.7,1.48-6.97-.13-2.18-.84-4.62-2.69-5.96-.93-.67-2.05-.85-3.16-.9-1.47-.08-2.99-.08-4.45.12-2.29.31-4.78,1.17-6.23,3.08-1.43,1.89-2,4.62-2.28,6.92,0,.03,0,.05,0,.08-.43-1.08-1.91-1.64-2.96-1.35-1.45.4-1.93,1.73-1.75,3.07.93,6.87,7.38,11.94,14.21,11.41-.37.22-.8.36-1.26.4-4.06.34-8.15-1.43-10.65-4.64-2.67-3.43-3-7.43-2.18-11.58.7-3.55,1.99-7.04,4.93-9.34,3.05-2.38,6.88-3.14,10.67-3.2,3.67-.05,7.32.53,9.78,3.51Z"/>
          <path class="cls-4" d="M40.48,45.04c0,.95-.51,1.68-1.24,2.1-6.83.53-13.28-4.54-14.21-11.41-.18-1.34.3-2.67,1.75-3.07,1.05-.29,2.53.27,2.96,1.35h0c-.57,4.99,3.22,8.96,8.24,8.53,1.35-.12,2.5,1.23,2.5,2.5Z"/>
          <path class="cls-4" d="M23.32,95.68s-.03-.21-.04-.4c.07,0,.13.01.19.02h.01c.06-.04.3-.1.3-.1,0-.01-.23-.05-.52-.1-.03-.34-.05-.69-.05-.7,0-.07-.02-.13-.03-.2.08,0,.17,0,.25-.01,3.22-.19,3.2,4.81,0,5-5.87.36-11.76.71-17.64,1.06-.59-.03-1.18-.09-1.76-.19-2.54-.45-4.31-3.2-2.86-5.59,1.07-1.74,3.18-1.38,4.17-.17-.03.28-.05.55-.05.83-.09-.01-.17-.01-.26,0-.17.03-.29.09-.34.19-.61.04-1.22.07-1.83.11l2.5,2.5c-.04-.4-.07-.8-.08-1.19.06.09.14.18.22.28.38-.62.46-1.23.32-1.77.5-.03,1-.06,1.49-.09.27,0,.53.01.8.01,1.3,0,2.6.03,3.9.04,2.6.04,5.2.07,7.8.1.76,0,1.58-.06,2.38-.07.22.11.58.25,1.13.44Z"/>
          <path class="cls-4" d="M23.78,95.2s-.24.06-.3.1h-.01c-.06,0-.12-.02-.19-.02-.01-.06-.01-.12-.02-.18.29.05.52.09.52.1Z"/>
          <path class="cls-4" d="M23.28,95.28c0,.19.03.35.04.4-.55-.19-.91-.33-1.13-.44.37-.01.74,0,1.09.04Z"/>
          <path class="cls-4" d="M23.26,95.1c.01.06.01.12.02.18-.35-.04-.72-.05-1.09-.04-.82-.39.34-.26,1.07-.14Z"/>
          <path class="cls-4" d="M23.21,94.4s.02.36.05.7c-.73-.12-1.89-.25-1.07.14-.8,0-1.62.08-2.38.07-2.6-.03-5.2-.06-7.8-.1-1.3,0-2.6-.03-3.9-.04-.27,0-.53-.01-.8-.01,5.29-.31,10.59-.63,15.87-.96.01.07.02.13.03.2Z"/>
          <path class="cls-4" d="M11.29,47.5c.05.17.06.36.05.55-.58,8.67-.91,17.4-1.81,26.05-.43,4.13-1.39,8.06-2.52,12.05-.76,2.7-1.47,5.4-1.67,8.15-.99-1.21-3.1-1.57-4.17.17-1.45,2.39.32,5.14,2.86,5.59.58.1,1.17.16,1.76.19-.98.06-1.95.12-2.93.18-1.46.09-2.36-1.22-2.5-2.5-.86-8.16,3.33-15.82,4.17-23.83.85-8.19,1.19-16.48,1.72-24.71.31,1.01,1.4,1.78,2.42,1.78,1.45,0,2.39-1.15,2.5-2.5.03-.39.07-.78.12-1.17Z"/>
          <path class="cls-4" d="M11.29,47.5c-.05.39-.09.78-.12,1.17-.11,1.35-1.05,2.5-2.5,2.5-1.02,0-2.11-.77-2.42-1.78.03-.45.06-.89.09-1.34.09-1.35,1.07-2.5,2.5-2.5,1.11,0,2.22.85,2.45,1.95Z"/>
          <path class="cls-4" d="M7.31,95.16c-.49.03-.99.06-1.49.09l-.03-.12c.13,0,.25,0,.37.02.38,0,.77,0,1.15,0Z"/>
          <path class="cls-4" d="M5.82,95.25c.14.54.06,1.15-.32,1.77-.08-.1-.16-.19-.22-.28-.02-.49-.02-.97,0-1.46l.54-.03Z"/>
          <path class="cls-4" d="M5.79,95.13l.03.12-.54.03s0-.1,0-.15c.04,0,.09,0,.13,0,.12-.02.24-.02.37,0Z"/>
          <path class="cls-4" d="M5.79,95.13c-.13-.01-.25-.01-.37,0-.04,0-.09,0-.13,0,0-.28.02-.55.05-.83.21.24.36.52.45.83Z"/>
          <path class="cls-4" d="M5.36,97.93l-2.5-2.5c.61-.04,1.22-.07,1.83-.11-.15.24.04.72.59,1.42,0,.39.04.79.08,1.19Z"/>
          <path class="cls-4" d="M5.29,95.13s-.02.1,0,.15c-.2.02-.39.03-.59.04.05-.1.17-.16.34-.19.09-.01.17-.01.26,0Z"/>
          <path class="cls-4" d="M5.28,95.28c-.02.49-.02.97,0,1.46-.55-.7-.74-1.18-.59-1.42.2,0,.39-.02.59-.04Z"/>
        </g>
      </g>
    </g>
    <g id="e">
      <g id="e-2" data-name="e">
        <g>
          <path class="cls-6" d="M130.52,90.13c.18,2.36-.09,4.92-1.37,6.94-1.24,1.96-3.08,3.21-5.35,3.44-.08,0-.17,0-.25,0,.25-.06.49-.11.74-.17,1.88-.46,1.43-3.12-.13-3.46,1.76-.44,2.69-2.59,2.89-4.26.15-1.22.08-2.57-.15-3.78-.2-1.09-.84-1.17-1.87-1.29-4.79-.59-9.49,1.19-14.25,1.31-4.16.11-9.01-.99-11.5-4.76-1.36-2.06-1.42-5.13-.38-7.33.91-1.95,2.94-2.99,4.91-3.41,2.35-.51,4.83-.59,7.23-.66,2.22-.06,4.44-.02,6.65.11-.09.24-.19.46-.3.69-.99,2.05,1.99,3.86,2.99,1.8.05-.1.1-.2.14-.3-.16.8-.88,1.53-1.7,1.46-2.93-.23-5.87-.29-8.8-.16-1.43.07-2.87.16-4.29.34-.89.11-1.84.27-2.65.7-1.55.82-1.89,3.24-.97,4.71.95,1.52,2.76,2.39,4.4,2.82,4.35,1.16,8.89-.2,13.23-.75,2.39-.3,5.12-.53,7.44.25,1.19.4,2.17,1.16,2.69,2.34.46,1.06.55,2.27.64,3.42Z"/>
          <path class="cls-6" d="M125.9,40.69s-.1-.06-.15-.1c-.09-.06-.18-.14-.26-.21.75.37,1.77-.04,2.17-.75.51-.9.14-1.89-.62-2.44-.26-.19-.51-.36-.78-.51.31.07.6.23.82.46.08.08.19.16.26.24,0,0,.01.01.01.02-.06-.04-.09-.06-.1-.06,0,.01.15.14.1.06,0,0,.02.01.03.02.15.11.3.23.46.35.44.35.84.68,1.18,1.14.89,1.19.69,2.49.36,3.85-.59,2.44-1.11,4.88-1.56,7.34-.12.64-.62,1.06-1.2,1.22.21-.18.41-.36.6-.55,1.62-1.59-.83-4.11-2.45-2.53-.05.04-.1.09-.15.14.36-1.91.77-3.83,1.21-5.72.12-.53.26-1.05.38-1.58,0-.02,0-.05.01-.06,0,0,0,.01.01.01,0,.02,0,.02,0,.01h0s.03.06.03.06c0,0,0,0,0-.01.03.02.04.04.05.04,0-.01-.03-.03-.05-.05h0s-.02-.05-.03-.08c.02-.09.03-.26-.02-.05,0,0,0-.02-.01-.03,0,.01,0,.03,0,.04h0s0,.02,0,.03h0c-.1-.07-.18-.16-.28-.24l-.03-.04s-.02-.01-.03-.02h0Z"/>
          <path class="cls-6" d="M127.05,37.2c.76.56,1.13,1.54.62,2.44-.41.71-1.42,1.12-2.17.75h0c-.3-.23-.59-.46-.84-.73-.69-.69-.63-1.81,0-2.52.42-.46,1.05-.6,1.63-.46.26.16.52.33.78.51Z"/>
          <path class="cls-6" d="M127.36,37.4c.05.08-.09-.04-.1-.06,0,0,.03.01.1.06Z"/>
          <path class="cls-6" d="M124.79,48.24c1.62-1.58,4.07.94,2.45,2.53-.19.19-.39.37-.6.55-.3.09-.64.1-.93.03-.96-.23-1.37-1.28-1.21-2.19.05-.26.1-.52.15-.78.05-.04.1-.09.15-.14Z"/>
          <path class="cls-6" d="M126.9,88.84c.23,1.21.29,2.56.15,3.78-.19,1.66-1.13,3.82-2.89,4.26h0c-.24-.05-.5-.05-.78.02-2.06.51-4.16.7-6.29.56-2.08-.13-4.09-.67-6.09-1.26-2.06-.61-4.12-1.2-6.26-1.44-2.19-.24-4.31.14-6.41.78-1.87.56-3.86,1.34-5.84,1.06-1.54-.21-2.65-1.24-3.41-2.57-1.89-3.34-2.17-7.74-2.08-11.51.11-4.96,1.17-9.81,2.49-14.55,0-.02.01-.05.01-.07.04-.14.06-.28.08-.42.31-4.43,0-8.85-.34-13.26-.17-2.21-.34-4.42-.44-6.63-.04-1.04-.07-2.09-.08-3.14,0-.58,0-1.16.02-1.75.01-.33-.06-.83.1-1.16.02-.02.06-.06.1-.09.14-.09.21-.1.39-.16.33-.11.67-.15,1-.2,1.08-.17,2.17-.29,3.25-.41,2.15-.23,4.29-.4,6.45-.55,4.34-.31,8.66-.63,12.97-1.23,4.12-.57,8.68-1.24,12.3,1.39.06.04.12.09.19.11h0c.08.07.17.14.26.21.05.04.1.07.15.1h0s.02.02.03.03l.03.04c.1.09.18.17.28.26,0,.01,0,.04-.01.06-.12.53-.26,1.05-.38,1.58-.44,1.89-.85,3.81-1.21,5.72-1.43,1.32-3.19,1.76-5.1,1.59-2.3-.21-4.54-.69-6.86-.74-2.4-.07-4.78.12-7.15.5-2.13.34-4.67.61-5.95,2.65-1.11,1.78-1.39,4.31-1.22,6.38.17,2.11.69,4.95,2.52,6.23,1.83,1.27,4.2.56,6.21.24,2.31-.36,4.63-.67,6.95-.94.82-.1,2.18-.47,2.92.1.71.55.98,1.78,1.18,2.62.44,1.92.27,3.97-.44,5.8-2.21-.14-4.43-.18-6.65-.11-2.4.07-4.88.16-7.23.66-1.97.42-4,1.46-4.91,3.41-1.04,2.21-.98,5.28.38,7.33,2.49,3.77,7.34,4.87,11.5,4.76,4.76-.12,9.47-1.89,14.25-1.31,1.02.12,1.67.21,1.87,1.29Z"/>
          <path class="cls-6" d="M126.36,41.14s-.02-.02-.05-.04c0,0,0,0,0,0,.02.02.04.04.05.05Z"/>
          <path class="cls-6" d="M126.31,41.09s0,.01,0,.01c0,0-.02-.03-.03-.06.01,0,.01.01.02.01,0,0,.01.01.01.01h0s0,.01,0,.01Z"/>
          <path class="cls-6" d="M126.31,41.08s-.01,0-.01-.01,0-.01-.02-.02h0s0-.02,0-.04c0,.03.02.05.03.07Z"/>
          <path class="cls-6" d="M126.26,40.96c.05-.21.04-.04.02.05,0-.01-.01-.04-.02-.05Z"/>
          <path class="cls-6" d="M126.28,41.04s.02.01.02.02c0,0,0,0-.02-.01h0Z"/>
          <path class="cls-6" d="M126.26,40.96s.01.04.02.05c0,.01,0,.02,0,.03h0s0,0,0-.01h0v-.04h0s0-.02,0-.03Z"/>
          <path class="cls-6" d="M126.28,41.04h0s0,0,0,0h0s0,0,0,0Z"/>
          <path class="cls-6" d="M126.26,41.02s.01,0,0,.01h0Z"/>
          <path class="cls-6" d="M126.27,41.04h0s0,.01,0,0h0Z"/>
          <path class="cls-6" d="M126.26,41.02h0s0,0-.01,0h0s0,0,0,0h0Z"/>
          <path class="cls-6" d="M126.25,40.93s0,.02.01.03c0,0,0,.01,0,.01,0-.01,0-.03,0-.04Z"/>
          <path class="cls-6" d="M126.26,41.02s0,0,0-.01t0-.01v.03Z"/>
          <path class="cls-6" d="M125.7,51.35c.3.07.63.06.93-.03-1.68,1.4-3.75,2.22-5.94,2.26-1.37.03-2.74-.27-4.09-.47-1.14-.16-2.29-.26-3.44-.31-2.24-.09-4.5,0-6.72.36-1.12.18-2.38.31-3.44.73-.64.25-.79.96-.95,1.6-.47,1.92-.36,4.12.41,5.95.35.82.91.74,1.71.65,1-.11,1.99-.32,3-.47,2.39-.36,4.79-.68,7.2-.95,2.29-.26,4.38.04,5.79,2.13,2.33,3.47,2.03,8.5.35,12.18.02-.11.03-.21.03-.31,0-1.03-.8-1.71-1.73-1.79-.38-.03-.75-.06-1.14-.08.71-1.83.88-3.88.44-5.8-.19-.84-.47-2.07-1.18-2.62-.73-.57-2.09-.2-2.92-.1-2.32.26-4.64.58-6.95.94-2,.31-4.38,1.03-6.21-.24-1.83-1.28-2.35-4.12-2.52-6.23-.17-2.07.1-4.6,1.22-6.38,1.27-2.04,3.82-2.31,5.95-2.65,2.37-.38,4.75-.57,7.15-.5,2.32.06,4.56.53,6.86.74,1.91.17,3.67-.26,5.1-1.59-.05.26-.1.52-.15.78-.17.91.24,1.96,1.21,2.19Z"/>
          <path class="cls-6" d="M88.85,41.49s-.03.04-.03.04h0c-.15.33-.08.83-.1,1.16-.01.59-.02,1.17-.02,1.75,0,1.05.03,2.1.08,3.14.1,2.21.27,4.43.44,6.63.34,4.41.65,8.83.34,13.26-.01.14-.03.29-.08.42.53-2.16-2.75-3.07-3.35-.88,0,.01,0,.02-.01.04.33-5.28-.21-10.55-.57-15.8-.17-2.39-.3-4.77-.3-7.16,0-2.2-.04-4.71,2.15-5.85.95-.49,1.97-.61,3.01-.76,1.16-.16,2.33-.31,3.5-.43,2.31-.24,4.63-.41,6.95-.58,4.67-.34,9.29-.83,13.94-1.41,3.86-.49,8.03-.48,11.45,1.61-.57-.14-1.21,0-1.63.46-.63.71-.69,1.83,0,2.52.26.26.55.5.84.73-.06-.03-.12-.07-.19-.11-3.62-2.64-8.18-1.96-12.3-1.39-4.31.6-8.64.91-12.97,1.23-2.15.15-4.3.32-6.45.55-1.09.12-2.17.24-3.25.41-.33.05-.68.09-1,.2-.17.06-.25.07-.39.16-.04.04-.08.07-.1.09,0-.01,0-.03.02-.04Z"/>
          <path class="cls-6" d="M124.16,96.88c1.57.34,2.02,3,.13,3.46-.25.06-.49.11-.74.17-.82-.08-1.48-.97-1.48-1.79,0-1.04.8-1.69,1.73-1.79.12-.01.24-.04.35-.06h0Z"/>
          <path class="cls-6" d="M124.15,96.88c-.11.03-.23.05-.35.06-.93.1-1.73.75-1.73,1.79,0,.81.66,1.71,1.48,1.79-2.44.53-4.95.71-7.43.44-2.6-.28-5.07-1.04-7.58-1.76-2.05-.59-4.14-1.1-6.28-.91-2.29.21-4.43,1.29-6.68,1.69-2.16.39-4.41.34-6.36-.81-1.69-1-2.92-2.69-3.7-4.49-1.81-4.14-2.18-8.98-1.94-13.48.26-4.8,1.27-9.53,2.55-14.15,0,.14-.01.28-.02.42-.07.96.84,1.79,1.73,1.79.84,0,1.45-.59,1.66-1.36,0,.02,0,.05-.01.07-1.32,4.74-2.38,9.6-2.49,14.55-.09,3.77.19,8.17,2.08,11.51.75,1.34,1.87,2.36,3.41,2.57,1.98.28,3.97-.5,5.84-1.06,2.1-.64,4.22-1.02,6.41-.78,2.14.24,4.2.83,6.26,1.44,2,.59,4.01,1.14,6.09,1.26,2.13.14,4.22-.06,6.29-.56.28-.07.55-.07.78-.02Z"/>
          <path class="cls-6" d="M120.55,74.67c0,.11-.01.21-.03.31t0,.01c-.04.1-.09.2-.14.3-1,2.06-3.98.25-2.99-1.8.11-.23.21-.46.3-.69.38.02.75.05,1.14.08.93.08,1.73.76,1.73,1.79Z"/>
          <path class="cls-6" d="M86.14,67.02c.6-2.19,3.88-1.29,3.35.88-.2.77-.82,1.36-1.66,1.36-.89,0-1.8-.82-1.73-1.79,0-.14.02-.28.02-.42,0-.01.01-.02.01-.04Z"/>
          <path class="cls-6" d="M88.85,41.49s-.02.03-.02.04h0s.01-.02.03-.04Z"/>
        </g>
      </g>
    </g>
  </g>
  <g id="svamp_i_l">
    <g id="krop">
      <g id="svampehoved">
        <path class="cls-1" d="M213.72,32.07c1.2-2.36,2.86-4.45,4.83-6.28h0c-.18,2.47,2.61,4.74,5.28,4.9,2.66.16,5.18-1.59,6.08-3.9.89-2.31.3-5.02-1.22-7.09l-.03-.05c.92-.35,1.85-.68,2.79-.96,8.53-2.58,18.63-2.29,25.94,2.78,6.51,4.51,9.78,11.91,12.44,19.01.84,2.24,1.65,4.54,1.7,6.89.08,3.95.35,6.76-3.62,8.11-3.63,1.23-8.45.43-13.35-.13.57-2.29.67-4.23.54-6.95-7.91-5.09-17.24-7.6-26.99-8.4h0c-.95,1.22-2.02,4.54-2.02,4.54-.47,1.46-1.17,3.86-1.17,3.86h0c-.12-.03-3.69-.93-4.49-1.29-2.56-1.13-5.24-2.37-6.81-4.56-2.21-3.08-1.56-7.21.11-10.49h0ZM268,45.68c.38-1.18.59-2.45.27-3.67-.94-3.55-6.15-4.48-8.7-1.96-1.38,1.36-1.7,3.52-.87,5.27.83,1.75,2.74,3.01,4.78,3.28,1.09.14,2.27,0,3.11-.63.75-.56,1.14-1.42,1.41-2.28h0ZM257.56,33c1.21-1.5,1.68-4.18-.48-6.24-1.97-1.88-4.73-3.71-7.17-3.43-2.31.27-3.69,2.28-3.29,4.59.4,2.31,2.47,4.73,4.93,5.93,1.21.59,2.53.91,3.63.7,1.03-.19,1.8-.82,2.38-1.55h0ZM237.72,32.81c.39-1.65-1.64-3.39-3.4-2.92-1.76.48-2.35,2.92-.97,4.1,1.37,1.17,3.98.47,4.38-1.18Z"/>
        <path class="cls-12" d="M268.27,42.01c.32,1.22.11,2.48-.27,3.67-.27.85-.66,1.72-1.41,2.28-.84.63-2.02.77-3.11.63-2.04-.27-3.95-1.53-4.78-3.28-.83-1.74-.51-3.9.87-5.27,2.55-2.52,7.76-1.59,8.7,1.96h0Z"/>
        <path class="cls-12" d="M257.08,26.76c2.17,2.06,1.69,4.74.48,6.24-.59.73-1.35,1.36-2.38,1.55-1.1.2-2.42-.12-3.63-.7-2.46-1.2-4.52-3.62-4.93-5.93s.97-4.32,3.29-4.59c2.44-.28,5.2,1.56,7.17,3.43h0Z"/>
        <path class="cls-12" d="M234.31,29.9c1.76-.48,3.8,1.26,3.4,2.92-.39,1.65-3,2.36-4.38,1.18-1.37-1.18-.79-3.62.97-4.1Z"/>
        <path class="cls-12" d="M223.86,30.5c-2.67-.17-5.46-2.41-5.29-4.85h0c2.84-2.59,6.35-4.62,10.1-6.06l.03.05c1.52,2.05,2.12,4.72,1.23,7.01-.89,2.28-3.41,4.01-6.07,3.85Z"/>
      </g>
      <path class="cls-13" d="M230.63,40.25c-6.74-.94-11.46-.99-18.02.29.77,3.72,2.57,4.4,6.19,6.31,2.88,1.51,5.72,2.19,9.34,2.91.55-3.41,1.51-7.44,2.49-9.51Z"/>
      <path class="cls-13" d="M250.78,45.94c-.46,2.91-1.13,4.96-2.57,8.45,14.52,2.57,17.65,1.62,19.09,1.27-2.87-3.84-12.88-8.54-16.52-9.71h0Z"/>
    </g>
    <path id="mund" class="cls-10" d="M236.37,51.2c.03,1.13.98,2.19,2.16,2.43s2.5-.38,3-1.41"/>
    <g id="_je2" data-name=" je2">
      <path class="cls-9" d="M235.82,48.21c.09.46.44.91.94.98.71.1,1.25-.6,1.42-1.25.11-.44.13-.91-.05-1.33s-.62-.76-1.1-.78c-1.16-.04-1.34,1.63-1.2,2.38h0Z"/>
      <path class="cls-8" d="M236.4,46.74c.07.15.3.22.45.15s.22-.28.13-.43c-.21-.33-.75-.07-.58.28Z"/>
    </g>
    <g id="_je1" data-name=" je1">
      <path class="cls-9" d="M241.29,49.48c.09.46.44.91.94.98.71.1,1.25-.6,1.42-1.25.11-.44.13-.91-.05-1.33s-.62-.76-1.1-.78c-1.16-.04-1.34,1.63-1.2,2.38h0Z"/>
      <path class="cls-8" d="M241.86,48.01c.07.15.3.22.45.15s.22-.28.13-.43c-.21-.33-.75-.07-.58.28Z"/>
    </g>
  </g>
  <path id="ventrearm" class="cls-3" d="M226.44,60.77c-4.65-.64-13.81,6.12-16.91,8.25-1.58,1.08-3.51.98-3.66,1.67s2.53.22,2.53.22c0,0-1.84,1.52-1.36,2.02.79.8,2.35-1.09,2.35-1.09,0,0-.11.99-.09,1.29.02.39.03,1.03.47,1.18,1.04.37.41-1.81,1.73-4.01.8-1.33,5.92-5.67,11.19-6.88,2.15-.49,3.27-.37,3.75-2.64h0Z"/>
  <path id="hjrearm" class="cls-3" d="M240.34,66.17c4.34,1.75,14.82-2.53,18.32-3.83,1.79-.66,3.63-.09,3.94-.72.31-.65-2.39-.83-2.39-.83,0,0,2.15-1.02,1.79-1.62-.57-.96-2.53.47-2.53.47,0,0,.34-.94.4-1.22.08-.38.21-1.01-.17-1.26-.91-.61-.82,1.65-2.63,3.46-1.09,1.09-7.08,4.03-12.47,3.91-2.2-.05-3.25-.45-4.26,1.63h0Z"/>
  <path class="cls-5" d="M241.94,93.59l6.71-.44c1.99-.13,4.05-.41,6.04-.26,1.25.1,2.7.51,3.22,1.77.38.93.74,3.25.01,4.02-.95,1.01-3.65.71-4.83.57-1.95-.23-3.86-.81-5.75-1.29-4.17-1.07-8.43-1.67-12.74-1.7-3.22-.02-3.22,4.98,0,5,3.96.03,7.8.59,11.64,1.58s7.98,2.12,11.98,1.09c1.7-.44,3.28-1.39,4.18-2.92.96-1.63.94-3.74.73-5.56-.22-1.95-.83-3.82-2.3-5.2s-3.3-2.02-5.23-2.26c-2.14-.26-4.31,0-6.46.13l-7.19.47c-1.35.09-2.5,1.09-2.5,2.5,0,1.29,1.15,2.59,2.5,2.5h0Z"/>
</svg>