<?xml version="1.0" encoding="UTF-8"?>
<svg xmlns="http://www.w3.org/2000/svg" viewBox="0 0 390.87 378.12">
  <defs>
    <style>
      .cls-1 {
        fill: #e5f3e9;
        stroke: #549166;
        stroke-miterlimit: 10;
        stroke-width: 9px;
      }

      .cls-2 {
        fill: #5ab180;
      }
    </style>
  </defs>
  <g id="Layer_3" data-name="Layer 3">
    <g id="klat">
      <path class="cls-1" d="M4.53,220.34c-.16-10.01,2.89-20.56,4.99-32.26,1.43-8.01,2.3-16.11,2.6-24.24.44-11.81-.31-23.71,1.61-35.37,3.93-23.73,18.89-44.66,37.66-59.86s41.2-25.26,63.87-33.76c30.87-11.56,62.74-20.53,95.14-26.76,13.89-2.67,28.14-4.86,42.13-2.76,23.5,3.53,43.37,18.57,61.8,33.47,27.74,22.4,56.2,47.7,65.72,81.92,3.94,14.17,4.33,29.04,4.7,43.73.49,19.26.97,38.53,1.46,57.79.27,10.69.53,21.54-2.2,31.87-2.97,11.24-9.34,21.36-16.79,30.34-19.63,23.67-46.54,40.07-72.93,56.02-14.47,8.76-29.11,17.57-45.23,22.81-12.4,4.03-25.41,5.86-38.39,7.39-26.14,3.09-52.92,5.04-78.56-.87-25.64-5.91-50.31-20.8-62.29-44.06-8.13-15.79-10.1-34.57-20.66-48.87-8.6-11.66-21.86-18.93-32.24-29.04-9.29-9.04-12.27-18.01-12.41-27.46v-.03Z"/>
    </g>
  </g>
  <g id="bamse_hand" data-name="bamse/hand">
    <ellipse class="cls-2" cx="105.67" cy="191.13" rx="6.73" ry="7"/>
    <ellipse class="cls-2" cx="144.89" cy="191.13" rx="6.73" ry="7"/>
    <path class="cls-2" d="M121.57,219.21v10.9c-4.18-.54-8.13-2.65-10.9-5.82-.9-1.03-1.86-2.26-3.23-2.34-.94-.05-1.82.49-2.48,1.16-1.81,1.82-2.38,4.77-1.37,7.13.54,1.28,1.48,2.35,2.5,3.29,2.45,2.26,5.46,3.86,8.61,4.94,7.86,2.69,16.78,2.1,24.22-1.59,1.95-.97,3.81-2.15,5.4-3.64,1.34-1.26,2.52-2.82,2.86-4.63.37-1.99-.36-4.15-1.87-5.49-.51-.45-1.11-.82-1.78-.91-1.52-.2-2.81,1.04-3.92,2.09-2.66,2.51-5.88,4.55-9.46,5.29-.03-3.46-.05-6.92-.08-10.38,3.12-1.33,5.31-4.55,5.51-7.93s-1.52-6.8-4.31-8.72c-6.4-4.42-15.81-.22-15.94,7.81-.06,3.86,2.56,7.68,6.25,8.81v.04Z"/>
    <path class="cls-2" d="M125.21,148.47c.03-3.23.05-6.45.08-9.68,0-.34-12.5,1.59-13.61,1.84-4.57,1.03-8.92,2.52-13.21,4.27-6.98,2.84-13.1,9.17-17.8,14.48-7.08,8.01-12.33,17.34-15.13,27.24-4.66,16.5-2.5,34.49,6.08,49.68,7.7,13.63,20.96,25.15,37.32,29.55,10.47,2.81,21.91,2.61,32.29-.45,13.29-3.92,24.63-12.45,32.15-23,7.52-10.55,11.35-23.02,12.02-35.51.83-15.54-3.31-31.49-13.2-44.29s-25.8-22.13-43.13-23.67c-.02,3.27-.04,6.54-.06,9.8,10.23.3,20.05,4.55,27.48,10.84s12.6,14.5,15.88,23.16c6.76,17.81,5.4,38.56-6.38,54.15-11.78,15.59-34.7,24.65-54.94,19.44-11.22-2.89-20.91-9.79-27.42-18.46s-9.93-19.01-10.79-29.41c-1.17-14.18,2.53-28.91,11.85-40.43s24.56-19.47,40.49-19.56Z"/>
    <polygon class="cls-2" points="125.24 148.47 129.52 148.74 129.59 138.93 125.18 138.75 125.24 148.47"/>
    <path class="cls-2" d="M151.62,145.52c.02-.07,3-3.56,3.28-3.85,1.15-1.19,2.37-2.31,3.65-3.36,2.25-1.85,4.87-3.3,7.73-3.98,4.77-1.13,9.97-.31,14.23,2.09,6.13,3.44,10.32,9.74,12.26,16.49,3.52,12.25-.29,26.31-9.52,35.11-.91-2.9-1.83-5.8-2.74-8.69-.11-.36-.23-.74-.18-1.11.07-.51-.43.15-.11-.24,4.99-6.08,7.26-15.95,4.44-23.29-1.46-3.81-4.06-7.26-7.6-9.28s-8.06-2.47-11.75-.71c-2.48,1.18-4.44,3.24-6.13,5.4-2.49-1.58-5.07-2.97-7.56-4.55Z"/>
    <path class="cls-2" d="M71.31,176.9c-.09-.3-.32-.55-.53-.78-3.51-3.88-5.66-8.96-5.99-14.18-.32-5.07,1.13-10.33,4.47-14.15s8.66-5.99,13.65-5.05c3.6.68,6.87,2.96,8.76,6.11,2.42-1.47,4.84-2.94,7.26-4.41-2.43-4.79-6.71-8.61-11.75-10.47-5.59-2.06-12.82-1.97-17.76,1.64-4.54,3.31-8.08,7.93-10.25,13.1-.89,2.12-1.56,4.35-1.97,6.61-1.55,8.59.5,17.71,5.28,25.01,1.52,2.32,3.39,4.54,5.92,5.7.93-2.68,1.85-5.35,2.78-8.03.12-.34.23-.69.15-1.04,0-.02-.01-.04-.02-.06Z"/>
    <path class="cls-2" d="M209.82,307.92c-.77,3.01-1.54,6.02-2.31,9.03,24.41,5.35,48.83,10.7,73.24,16.05,1.54.34,3.29.63,4.57-.29,1.2-.87,1.51-2.49,1.73-3.95,1.25-8.21,2.5-16.43,3.74-24.64.48-3.13.97-6.32,2.36-9.17,1.12-2.29,2.78-4.26,4.28-6.32,2.88-3.95,5.24-8.28,6.98-12.85,2.32-6.09,3.54-12.53,4.72-18.93,3.41-18.61,6.51-37.27,9.61-55.93,1.63-9.8,3.25-19.59,4.88-29.39,1.08-6.52,2.11-13.5-.64-19.5-2.75-6.01-10.92-9.95-16.21-5.99,1.51-7.44,2.28-15.61-1.4-22.26s-13.4-10.29-19.17-5.35c1.29-5.77.13-12.17-3.62-16.74s-10.16-6.98-15.86-5.43-10.14,7.3-9.63,13.19c-.53-6.26-13.18-7.14-17.21-5.92-8.71,2.63-8.77,9.17-10.32,17.1-4.01,20.49-7.47,41.09-10.37,61.76-5.63-5.52-16.29-4.3-20.53,2.35-3.1,4.86-2.73,11.08-2.26,16.82,1.38,16.65,2.75,33.29,4.13,49.94.5,6.07,1.02,12.22,3.03,17.97,1.02,2.9,2.41,5.72,2.78,8.78.29,2.42-.09,4.86-.47,7.27-1.22,7.76-2.28,15.54-3.65,23.28s2.19,7.55,5.3,8.13c5.1-8.74,2.71-5,6.15-29.07.56-3.96,1.33-7.96.76-11.92-.52-3.62-2.05-7-3.23-10.46-3.05-8.94-3.77-18.49-4.48-27.91-.98-13.07-1.96-26.14-2.94-39.21-.2-2.69-.32-5.67,1.34-7.79,2.56-3.27,8.1-2.47,10.99.51s3.85,7.29,4.69,11.36c1.39,6.8,2.79,13.61,4.18,20.41.27,1.33.57,2.72,1.46,3.75,1.09,1.26,2.81,1.71,4.36,2.31,5.95,2.29,10.42,7.52,12.96,13.36s3.36,12.28,3.74,18.65c.14,2.33.58,5.18,2.78,5.96,1.77.62,3.76-.64,4.58-2.32s.77-3.65.65-5.51c-.94-14.86-5.99-31.1-19-38.33-1.21-.67-2.5-1.28-3.41-2.31-1.03-1.16-1.46-2.72-1.86-4.22-2.13-8.02-4.28-16.16-4.18-24.46.05-4.03.64-8.04,1.23-12.03,2.7-18.28,5.56-36.53,8.55-54.76.75-4.53,2.42-10.05,6.95-10.83,3.48-.6,6.78,2.3,7.89,5.65s.59,6.99.05,10.48c-3.1,20.1-6.19,40.21-9.29,60.31-.48,3.13-.02,7.55,3.14,7.78,2.85.21,4.2-3.38,4.65-6.2,3.71-23.45,7.41-46.89,11.12-70.34.6-3.8,1.27-7.77,3.63-10.82s6.96-4.71,10.15-2.57c3.59,2.41,3.37,7.67,2.73,11.95-3.73,25.25-7.47,50.5-11.2,75.76-.51,3.43.26,8.39,3.72,8.22,2.66-.13,3.78-3.41,4.21-6.04,3.17-19.16,6.33-38.32,9.5-57.48.52-3.17,1.09-6.45,2.89-9.11s5.2-4.52,8.25-3.51c4.97,1.64,5.13,8.53,4.32,13.71-3.16,20.16-6.33,40.33-9.49,60.49-.47,3.02-.23,7.16,2.76,7.77,3.18.66,4.95-3.52,5.44-6.74,1.86-12.23,3.73-24.47,5.59-36.7.43-2.85.92-5.82,2.61-8.16s5.01-3.76,7.55-2.41c3.31,1.76,3.17,6.48,2.57,10.18-4.3,26.54-8.6,53.08-12.9,79.61-1.97,12.14-4.05,24.59-10.29,35.18-1.64,2.79-3.56,5.41-5.16,8.23-6.09,10.74-7.16,23.52-8.09,35.83-23.45-5.09-46.89-10.18-70.34-15.28Z"/>
    <path class="cls-2" d="M131.78,103.36c0,5.85,0,11.71,0,17.56,1.41.52,2.98-.58,3.61-1.95s.6-2.92.77-4.42c.76-6.77,6.05-12.81,12.67-14.44,1.29-.32,2.74-.56,3.55-1.61.68-.88.71-2.1.7-3.21,0-.85-.02-1.74-.39-2.51-.89-1.83-3.27-2.19-5.24-2.7-6.67-1.74-11.73-8.34-11.68-15.23.02-2.11.35-4.56-1.17-6.03-1.01-.98-2.45-.72-3.79-.71-.8,0-1.23.16-1.8.55-.75.51-.74,1.47-.86,2.34-.5,3.57-1.11,7.18-2.54,10.51-1.64,3.82-4.53,7.31-8.44,8.72-2.35.85-5.24,1.11-6.57,3.22-.68,1.09-.77,2.44-.76,3.73,0,.78.22,1.26.58,1.95.54,1.01,1.51,1.86,2.64,2.06s2.28.13,3.42.26c2.83.34,5.41,2.01,7.19,4.24s2.82,4.98,3.36,7.78c.52,2.74.82,5.95,3.15,7.49-1.98-8.5-3.96-17.01-5.94-25.51,3.24-1.26,5.84-4.06,6.87-7.39h1.35c.57,3.17,2.93,5.95,5.96,7.02l-.02.89c-3.11,1.18-5.46,4.17-5.86,7.47l-.73-.08Z"/>
    <path class="cls-2" d="M124.25,95.5c.53-.11,1.63.77,2.08,1.09.68.48,1.31,1.02,1.89,1.61,1.17,1.19,2.16,2.57,3,4.01.2.35.4.71.49,1.11.07.32.07.65.07.98,0,5.54,0,11.08,0,16.62-.54.01-1.08.02-1.62.03-1.84-7.91-3.69-15.82-5.53-23.73-.13-.57-.33-1.15-.38-1.73Z"/>
    <path class="cls-2" d="M203.28,87.29c0,8.12,0,16.23,0,24.35,1.95.72,4.13-.8,5-2.7s.84-4.06,1.07-6.13c1.05-9.39,8.39-17.76,17.56-20.03,1.79-.44,3.8-.77,4.92-2.23.95-1.23.98-2.91.97-4.46,0-1.18-.03-2.41-.54-3.47-1.23-2.54-4.54-3.03-7.27-3.74-9.25-2.41-16.27-11.57-16.19-21.12.02-2.93.48-6.32-1.62-8.36-1.4-1.35-3.39-.99-5.25-.98-1.11,0-1.71.22-2.5.76-1.04.71-1.03,2.04-1.19,3.24-.69,4.95-1.54,9.95-3.52,14.57-2.28,5.3-6.28,10.13-11.71,12.09-3.26,1.17-7.27,1.54-9.11,4.47-.95,1.51-1.07,3.39-1.05,5.17,0,1.08.3,1.75.81,2.7.75,1.4,2.1,2.59,3.66,2.86s3.16.17,4.74.36c3.93.47,7.5,2.78,9.97,5.87s3.91,6.9,4.66,10.79c.73,3.8,1.13,8.25,4.36,10.38-2.75-11.79-5.49-23.58-8.24-35.37,4.49-1.75,8.1-5.64,9.52-10.25h1.87c.79,4.4,4.06,8.25,8.27,9.73l-.02,1.24c-4.31,1.64-7.57,5.78-8.13,10.36l-1.02-.11Z"/>
    <path class="cls-2" d="M192.84,76.39c.74-.16,2.27,1.07,2.89,1.51.94.66,1.81,1.42,2.62,2.23,1.63,1.65,2.99,3.56,4.16,5.56.28.49.56.99.69,1.54.1.44.1.9.1,1.36,0,7.68,0,15.37,0,23.05-.75.02-1.5.03-2.25.05-2.56-10.97-5.11-21.94-7.67-32.9-.18-.78-.45-1.6-.53-2.4Z"/>
  </g>
</svg>