<?xml version="1.0" encoding="UTF-8"?>
<svg xmlns="http://www.w3.org/2000/svg" viewBox="0 0 344.62 333.42">
  <defs>
    <style>
      .cls-1 {
        fill: none;
        stroke: #f47639;
      }

      .cls-1, .cls-2 {
        stroke-miterlimit: 10;
      }

      .cls-2 {
        fill: #fee8df;
        stroke: #f4763b;
        stroke-width: 9px;
      }

      .cls-3 {
        fill: #f47639;
      }
    </style>
  </defs>
  <g id="Layer_3" data-name="Layer 3">
    <g id="klat">
      <path class="cls-2" d="M4.53,194.2c-.14-8.8,2.54-18.07,4.38-28.35,1.26-7.04,2.02-14.16,2.29-21.31.39-10.38-.28-20.84,1.42-31.09,3.45-20.86,16.6-39.25,33.1-52.61,16.5-13.36,36.21-22.2,56.14-29.67,27.13-10.16,55.14-18.04,83.62-23.52,12.2-2.35,24.73-4.27,37.03-2.42,20.65,3.1,38.12,16.32,54.32,29.42,24.38,19.69,49.39,41.92,57.76,71.99,3.47,12.46,3.8,25.53,4.13,38.43.43,16.93.85,33.86,1.28,50.79.24,9.39.46,18.93-1.93,28.01-2.61,9.88-8.21,18.77-14.75,26.67-17.25,20.8-40.91,35.22-64.1,49.23-12.72,7.7-25.59,15.44-39.75,20.05-10.9,3.54-22.34,5.15-33.74,6.49-22.98,2.71-46.51,4.43-69.04-.77-22.54-5.2-44.22-18.28-54.74-38.72-7.14-13.87-8.88-30.38-18.16-42.95-7.56-10.25-19.21-16.64-28.34-25.53-8.16-7.95-10.79-15.83-10.91-24.13v-.03Z"/>
    </g>
  </g>
  <g id="Layer_2" data-name="Layer 2">
    <polygon class="cls-1" points="224.44 253.76 224.44 166.71 241.41 192.89 242.56 194.91 243.35 195.92 244.58 196.71 246.02 196.79 274.38 196.91 274.38 253.76 224.44 253.76"/>
    <path class="cls-3" d="M223.98,165.31c-.09-4.79-.18-9.58-.26-14.37,0-.39-.2-1.27-.01-1.61.23-.43.8-.27,1.24-.27,1.21,0,2.41,0,3.62,0h7.23c9.64,0,19.29-.01,28.93-.01h11.72c.98,0,2,0,2.87.43,1.07.52,1.75,1.57,2.38,2.58,7.47,11.84,14.94,23.68,22.4,35.53.77,1.22,1.56,2.48,1.89,3.89s.14,3.03-.85,4.08c-1.22,1.3-3.22,1.39-5.01,1.4-8.58.02-17.16,0-25.74-.07,0-2.62,0-5.24,0-7.86,6.89.12,13.78.12,20.67,0-6.31-10.19-12.62-20.37-18.93-30.56-.25-.4-.51-.82-.93-1.04-.39-.21-.86-.22-1.3-.22-14.86-.04-29.71-.07-44.57-.11-.42,0-.86,0-1.21.23-.34.21-.53.59-.7.95-1.15,2.35-2.3,4.7-3.45,7.04Z"/>
    <polygon class="cls-3" points="274.4 189.02 248.57 189.02 227.71 156.66 223.98 165.31 243.97 196.32 274.38 196.91 274.4 189.02"/>
    <path class="cls-3" d="M274.38,196.91l8.1.05c0,19.95,0,39.9,0,59.86,0,1.12-.02,2.3-.63,3.24-1.05,1.61-3.29,1.77-5.21,1.77-69.52,0-139.04,0-208.57,0-1.25,0-2.58-.02-3.63-.72-1.75-1.16-1.93-3.63-1.93-5.73,0-10.95,0-21.89.01-32.84,0-5.47-.21-10.68-.21-16.15,0-2.43-.45-11.59.19-13.92.39-1.4,1.08,4.46,2.62,4.46,1.4,0,2.81,0,4.21,0h1.3c0,18.83,0,37.66,0,56.48,67.91.12,135.83.25,203.74.37,0-18.95,0-37.9,0-56.85Z"/>
    <polygon class="cls-3" points="216.15 253.65 216.28 149.03 224.95 149.06 224.44 253.76 216.15 253.65"/>
    <path class="cls-3" d="M216.28,149.03s-88.61,0-96.66,0c-16.19,0-32.38,0-48.57,0-1.38,0-3.57-1.08-4.78-.48s-3.16,3.76-3.94,4.95c-2.19,3.38-4.38,6.76-6.58,10.14l-13.15,20.28-2.1,3.25c-.98,1.52-1.99,3.09-2.28,4.87s.32,3.85,1.91,4.71c.98.53,2.16.53,3.27.52,9.08-.12,18.16-.24,27.24-.37,1.3-2.57,2.6-5.14,3.9-7.71-7.24.03-14.48.06-21.72.09,6.42-9.94,12.85-19.89,19.27-29.83.44-.68.9-1.38,1.58-1.81.91-.59,2.06-.6,3.15-.6,46.49.06,92.97.12,139.46.18,0-2.73,0-5.46.01-8.19Z"/>
    <path class="cls-3" d="M69.33,196.91h124.52l1.53-.26,1.46-1.11,1.26-1.61,18.05-25.63.12-11.07h-2.71s-21.95,31.76-21.95,31.76c-8.48.02-16.96.03-25.45.05-16.92.03-33.83.06-50.75.1-12.59.02-25.19.05-37.78.07-.66,0-4.59-.02-5.32.14-2.01.45-.73,5.69-1.68,7.58"/>
    <path class="cls-3" d="M63.02,152.43c4-6.58,11.27-17.02,15.27-23.6,1.52-2.5,3.11-5.09,5.48-6.88,2.63-1.99,5.75-2.27,8.94-2.26,4.91.01,9.82.02,14.73.04,0,9.72.13,21.05.13,30.77-2.76,0-5.67-.5-8.43-.5,0-7.09.03-15.3.03-22.4-1.73-.05-3.65.03-5.47.02s-3.75.23-5.23,1.3c-.61.45-1.12,1.02-1.59,1.61-1.05,1.33-1.92,2.79-2.78,4.24-2.8,4.7-7.1,12.36-9.9,17.06-3.14-.11-8.03.7-11.17.6Z"/>
    <path class="cls-3" d="M107.46,127.7c4.18,0,8.37,0,12.55,0,1.3,0,2.62,0,3.84.46,2.41.91,3.81,3.36,5.02,5.62,2.71,5.09,5.43,10.17,8.14,15.26,2.77,0,5.54,0,8.31,0l-9.83-19.88c-1.02-2.06-2.07-4.17-3.7-5.79-2.12-2.11-5.07-3.22-8.03-3.64s-5.97-.2-8.95.03c-.05-8.6-.1-17.2-.15-25.8,13.44,0,26.89,0,40.33,0,0,8.58,0,17.15,0,25.73h8.42c.04-7.77.07-15.54.11-23.31,0-2.01.01-4.07-.6-5.98s-1.94-3.72-3.85-4.36c-.99-.34-2.06-.34-3.11-.34-12.89,0-25.78-.02-38.67-.03-2.05,0-4.72-.32-6.7.34-1.52.51-3.12,2.36-3.63,3.88-.26.78-.31,1.61-.33,2.42-.33,11.91-.23,23.83-.29,35.19.05,0,1.07.19,1.13.19Z"/>
    <path class="cls-3" d="M145.32,149.03c0-7.13,0-14.26,0-21.39h26.67v21.39c2.76,0,5.52,0,8.28,0l.02-13.96c0-1.19,0-2.38-.16-3.55-.26-1.92-.94-3.75-1.62-5.57-.84-2.25-1.89-4.73-4.09-5.69-1.12-.48-2.38-.49-3.6-.49-8.78.01-17.55.03-26.33.04-1.48,0-3.32-.03-4.57.91s-2.19,1.93-2.64,3.41c-.39,1.28-.41,2.65-.39,3.99.15,7.05,1.63,14,3.1,20.9,1.77,0,3.54,0,5.32,0Z"/>
    <circle class="cls-3" cx="242.71" cy="103.95" r="5.44"/>
    <circle class="cls-3" cx="210.71" cy="102.36" r="5.44"/>
    <path class="cls-3" d="M206.13,127c.93-1.29,2.75-1.91,4.23-1.31,1.1.45,1.87,1.44,2.73,2.25,2.09,1.96,4.86,2.99,7.57,3.92.49-2.42.56-4.62.66-7.31-1.82-1.23-3.54-2.76-4.44-4.77-.83-1.86-.98-5.22,1.03-6.45,2.16-1.32,4.82-1.88,7.33-1.76,2.14.09,4.26.69,6.1,1.78.73.43,1.43.94,1.94,1.62.95,1.25,1.15,2.97.75,4.49s-1.35,2.85-2.49,3.93c-.94.89-2.16,1.67-3.44,1.48.14,2.49.28,4.97.43,7.46,1.34.21,2.69-.2,3.94-.71,1.52-.62,2.97-1.39,4.34-2.29,1.27-.84,2.62-1.85,4.14-1.7,1.51.16,2.71,1.54,2.93,3.04s-.41,3.04-1.4,4.19-2.32,1.96-3.67,2.64c-5.01,2.53-10.77,3.54-16.33,2.82s-10.89-3.19-15-7c-.56-.52-1.1-1.07-1.49-1.73-.81-1.38-.82-3.24.1-4.55,0-.01.01-.02.02-.03Z"/>
    <path class="cls-3" d="M192.69,149.21c-.7-.27-1.57-1.19-2.09-1.73-6.63-6.83-11.14-15.68-12.77-25.06s-.37-19.23,3.56-27.9c-4.47-4.25-7.89-9.79-8.77-15.89-1.05-7.23,1.88-14,7.43-18.61,4.27-3.54,10.06-5.24,15.56-4.44,6.33.92,12.2,5.28,15.02,11.02-2.55,1.18-5.22,2.21-7.77,3.39-2.5-4.61-8.33-7.12-13.4-5.77s-8.88,6.43-8.75,11.68c.08,3.35,1.59,6.54,3.66,9.18s4.66,4.81,7.23,6.95c-5.85,9.21-7.76,20.82-5.18,31.42,2.58,10.6,9.82,20.1,19.24,25.59-3.71.68-7.62,0-11.34.04-.62,0-.71.48-1.3.28-.03-.01-.3-.12-.33-.14Z"/>
    <path class="cls-3" d="M185.61,86.55c-.33-.4,4.33-6.01,4.81-6.55,1.74-1.97,3.67-3.82,5.71-5.47,4.11-3.33,8.8-5.93,13.78-7.68,3.49-1.23,7.13-2.04,10.81-2.38,9.75-.92,19.78,1.38,28.14,6.47,4.42-6.98,13.75-10.33,21.66-7.94s13.78,10.21,14.08,18.46c.29,8.25-4.89,16.39-12.42,19.78l-2.96-7.52c4.53-2.33,7.62-7.44,7.14-12.51s-4.75-9.66-9.83-10.09c-3.36-.29-6.69,1.11-9.36,3.16s-4.8,4.72-6.89,7.37c-8.74-7.09-20.62-10.15-31.7-8.18s-21.22,8.91-26.99,18.57c-2.1-1.6-4.2-3.31-5.98-5.47Z"/>
    <path class="cls-3" d="M259.06,149.44c.14-.03-.13.47,0,.41.65-.27,2.09-1.9,2.56-2.43,8.5-9.48,13.07-22.38,12.42-35.09-.72-14.07-7.74-27.54-18.3-36.87-2.23,1.65-4.09,3.61-5.44,6.13,10.41,8.15,16.48,21.56,15.73,34.76-.75,13.2-8.29,25.84-19.55,32.77,3.88-.04,7.72.65,11.6.61.48,0,.5-.18.97-.29Z"/>
  </g>
</svg>