<?xml version="1.0" encoding="UTF-8"?>
<svg xmlns="http://www.w3.org/2000/svg" viewBox="0 0 322.06 343.7">
  <defs>
    <style>
      .cls-1 {
        fill: #409fce;
      }

      .cls-2 {
        fill: none;
        stroke: #409fce;
        stroke-width: 8px;
      }

      .cls-2, .cls-3 {
        stroke-miterlimit: 10;
      }

      .cls-3 {
        fill: #e2f1fb;
        stroke: #5888b9;
        stroke-width: 9px;
      }
    </style>
  </defs>
  <g id="Layer_3" data-name="Layer 3">
    <g id="klat">
      <path class="cls-3" d="M4.53,200.22c-.13-9.08,2.37-18.64,4.09-29.25,1.17-7.27,1.89-14.61,2.13-21.98.36-10.71-.26-21.5,1.32-32.07,3.22-21.52,15.48-40.49,30.87-54.28,15.39-13.78,33.78-22.9,52.36-30.61,25.31-10.48,51.44-18.61,78-24.26,11.38-2.42,23.07-4.4,34.54-2.5,19.27,3.2,35.56,16.84,50.67,30.35,22.74,20.31,46.07,43.25,53.87,74.28,3.23,12.85,3.55,26.34,3.85,39.65.4,17.46.8,34.94,1.19,52.4.22,9.69.43,19.53-1.8,28.9-2.44,10.19-7.66,19.37-13.76,27.51-16.09,21.46-38.16,36.34-59.79,50.79-11.86,7.94-23.87,15.93-37.08,20.69-10.17,3.65-20.84,5.31-31.47,6.7-21.43,2.8-43.38,4.57-64.4-.79-21.02-5.36-41.25-18.86-51.06-39.95-6.66-14.31-8.28-31.35-16.94-44.31-7.05-10.57-17.92-17.16-26.43-26.34-7.61-8.2-10.06-16.33-10.18-24.9v-.03Z"/>
    </g>
  </g>
  <g id="Layer_2" data-name="Layer 2">
    <ellipse class="cls-2" cx="168.32" cy="124.18" rx="72.21" ry="87.51"/>
    <ellipse class="cls-2" cx="166.99" cy="123.28" rx="32.48" ry="39.78"/>
    <rect class="cls-1" x="194.02" y="145.99" width="9.6" height="27.79" rx="4.8" ry="4.8" transform="translate(453.92 163.69) rotate(142.05)"/>
    <rect class="cls-1" x="223.92" y="181.07" width="9.6" height="27.79" rx="4.8" ry="4.8" transform="translate(528.98 208.04) rotate(142.05)"/>
    <rect class="cls-1" x="255.92" y="190.51" width="8.33" height="64.73" rx="2.27" ry="2.27" transform="translate(-82.38 216.76) rotate(-39.57)"/>
    <rect class="cls-1" x="247.46" y="204.86" width="8.33" height="64.73" rx="2.27" ry="2.27" transform="translate(-93.46 214.65) rotate(-39.57)"/>
    <path class="cls-1" d="M275.71,247.72c1.74,3.04,3.03,7.18-.24,9.83-2.57,2.09-4.79-2.43-6.19-4.2-3-3.78-8.28,1.56-5.3,5.3,2.07,2.61,4.07,5.7,7.4,6.77,2.89.93,6.35-.03,8.68-1.9,6.29-5.05,5.77-13.24,2.13-19.6-2.4-4.19-8.88-.41-6.48,3.79h0Z"/>
    <path class="cls-1" d="M271.06,262.84c4.83,0,4.83-7.5,0-7.5s-4.83,7.5,0,7.5h0Z"/>
    <path class="cls-1" d="M272.59,263.14c4.83,0,4.83-7.5,0-7.5s-4.83,7.5,0,7.5h0Z"/>
    <path class="cls-1" d="M274.2,263.1c4.83,0,4.83-7.5,0-7.5s-4.83,7.5,0,7.5h0Z"/>
    <path class="cls-1" d="M276.36,262.46c4.83,0,4.83-7.5,0-7.5s-4.83,7.5,0,7.5h0Z"/>
    <path class="cls-1" d="M277.17,261.53c4.83,0,4.83-7.5,0-7.5s-4.83,7.5,0,7.5h0Z"/>
    <path class="cls-1" d="M278.57,260.04c4.83,0,4.83-7.5,0-7.5s-4.83,7.5,0,7.5h0Z"/>
    <path class="cls-1" d="M279.42,258.13c4.83,0,4.83-7.5,0-7.5s-4.83,7.5,0,7.5h0Z"/>
    <path class="cls-1" d="M279.8,256.05c4.83,0,4.83-7.5,0-7.5s-4.83,7.5,0,7.5h0Z"/>
    <path class="cls-1" d="M279.76,254.61c4.83,0,4.83-7.5,0-7.5s-4.83,7.5,0,7.5h0Z"/>
    <path class="cls-1" d="M279.63,252.66c4.83,0,4.83-7.5,0-7.5s-4.83,7.5,0,7.5h0Z"/>
    <path class="cls-1" d="M272.21,262.97c4.83,0,4.83-7.5,0-7.5s-4.83,7.5,0,7.5h0Z"/>
    <path class="cls-1" d="M273.18,262.97c4.83,0,4.83-7.5,0-7.5s-4.83,7.5,0,7.5h0Z"/>
    <path class="cls-1" d="M279.95,250.56c4.83,0,4.83-7.5,0-7.5s-4.83,7.5,0,7.5h0Z"/>
    <path class="cls-1" d="M280.22,250.63c4.83,0,4.83-7.5,0-7.5s-4.83,7.5,0,7.5h0Z"/>
    <path class="cls-1" d="M280.6,251.61c4.83,0,4.83-7.5,0-7.5s-4.83,7.5,0,7.5h0Z"/>
    <path class="cls-1" d="M280.75,252.44c4.83,0,4.83-7.5,0-7.5s-4.83,7.5,0,7.5h0Z"/>
    <path class="cls-1" d="M280.82,252.75c4.83,0,4.83-7.5,0-7.5s-4.83,7.5,0,7.5h0Z"/>
    <path class="cls-1" d="M280.82,252.9c4.83,0,4.83-7.5,0-7.5s-4.83,7.5,0,7.5h0Z"/>
    <path class="cls-1" d="M277.13,249.46c.64.59.43,2.19.4,3.01-.07,1.42-.46,2.74-.96,4.06-.72,1.89.8,4.11,2.62,4.61,2.11.58,3.89-.72,4.61-2.62,1.62-4.27,2.32-10.93-1.36-14.37-3.53-3.29-8.84,2-5.3,5.3h0Z"/>
    <path class="cls-1" d="M274.32,246.19c1.53,2.38,2.63,4.12,1.38,6.88-1.42,3.11-4.2,1.49-6.44.1-4.11-2.56-7.88,3.93-3.79,6.48,2.67,1.66,5.04,3.17,8.3,2.73s5.72-1.22,7.56-4c3.57-5.42,2.83-10.72-.54-15.96-2.6-4.05-9.1-.29-6.48,3.79h0Z"/>
    <path class="cls-1" d="M244.36,197.28c-.91-.88-1.79-1.82-2.93-2.39-1.42-.7-3.03-.78-4.53-.31-2.99.94-4.34,3.52-5.47,6.21-.79,1.87.85,4.13,2.62,4.61,2.16.59,3.82-.74,4.61-2.62-.07.17.42-.84.55-1.02-.19.18-.12.1.21-.22-.06.09-.14.14-.24.17-.2-.12-1.39.14-1.38-.36,0,.23,1.09,1.05,1.28,1.23,1.45,1.41,3.86,1.45,5.3,0s1.46-3.89,0-5.3h0Z"/>
    <path class="cls-1" d="M235.12,211.73c-2.18-2.22-1.05-5.34,1.24-7.03,1.64-1.21,2.42-3.24,1.35-5.13-.92-1.62-3.51-2.54-5.13-1.35-6.14,4.53-8.59,12.88-2.76,18.81,3.39,3.45,8.69-1.85,5.3-5.3h0Z"/>
    <path class="cls-1" d="M235.94,212.32c-.66-1.55.69-4.33,2.03-5.19,1.51-.97,4.12-.62,5.67-.02,1.9.73,4.1-.81,4.61-2.62.6-2.11-.74-3.89-2.62-4.61-4.23-1.63-10.2-.96-13.43,2.39-3.65,3.79-4.8,9.02-2.74,13.84.8,1.88,3.53,2.26,5.13,1.35,1.94-1.1,2.14-3.28,1.35-5.13h0Z"/>
    <ellipse class="cls-1" cx="116.9" cy="260.91" rx="4.51" ry="4.69"/>
    <ellipse class="cls-1" cx="144.16" cy="260.91" rx="4.51" ry="4.69"/>
    <path class="cls-1" d="M128.32,282.98v7.3c-2.8-.36-5.45-1.78-7.3-3.9-.6-.69-1.25-1.52-2.16-1.57-.63-.03-1.22.33-1.66.78-1.21,1.22-1.59,3.2-.92,4.78.36.86.99,1.57,1.67,2.2,1.64,1.51,3.66,2.59,5.77,3.31,5.27,1.8,11.25,1.41,16.23-1.07,1.31-.65,2.55-1.44,3.62-2.44.9-.85,1.69-1.89,1.91-3.1.25-1.33-.24-2.78-1.25-3.68-.34-.3-.75-.55-1.2-.61-1.02-.13-1.88.69-2.63,1.4-1.78,1.68-3.94,3.05-6.34,3.54-.02-2.32-.04-4.64-.05-6.96,2.09-.89,3.55-3.05,3.7-5.32s-1.02-4.55-2.89-5.84c-4.29-2.96-10.59-.15-10.68,5.23-.04,2.59,1.71,5.15,4.19,5.91v.03Z"/>
    <path class="cls-1" d="M131.33,233.88c.02-2.16.03-4.32.05-6.49,0-.23-8.27,1.07-9,1.23-3.02.69-5.9,1.69-8.74,2.86-4.62,1.9-8.67,6.14-11.77,9.7-4.69,5.37-8.15,11.62-10.01,18.26-3.09,11.06-1.66,23.11,4.02,33.29,5.1,9.13,13.86,16.86,24.69,19.8,6.93,1.88,14.49,1.75,21.36-.3,8.79-2.63,16.29-8.34,21.27-15.41s7.51-15.42,7.95-23.79c.55-10.41-2.19-21.1-8.73-29.68s-17.06-14.83-28.53-15.86c-.01,2.19-.03,4.38-.04,6.57,6.77.2,13.26,3.05,18.18,7.27s8.33,9.72,10.51,15.52c4.47,11.94,3.57,25.84-4.22,36.29-7.79,10.45-22.95,16.52-36.34,13.02-7.42-1.94-13.83-6.56-18.13-12.37-4.3-5.81-6.57-12.74-7.14-19.71-.77-9.5,1.67-19.37,7.84-27.09s16.25-13.05,26.78-13.11Z"/>
    <polygon class="cls-1" points="130.79 233.88 134.08 234.06 134.13 227.49 130.74 227.37 130.79 233.88"/>
    <path class="cls-1" d="M148.59,232.44s2.01-2.39,2.2-2.58c.77-.8,1.59-1.55,2.44-2.25,1.51-1.24,3.26-2.21,5.18-2.67,3.19-.76,6.68-.21,9.53,1.4,4.1,2.31,6.92,6.53,8.22,11.05,2.36,8.21-.19,17.63-6.38,23.53-.61-1.94-1.23-3.88-1.84-5.83-.08-.24-.15-.49-.12-.74.04-.34-.29.1-.07-.16,3.34-4.07,4.87-10.69,2.98-15.61-.98-2.55-2.72-4.86-5.09-6.22s-5.4-1.65-7.87-.48c-1.66.79-2.97,2.17-4.11,3.62-1.67-1.06-3.4-1.99-5.07-3.05Z"/>
    <path class="cls-1" d="M95.74,252.94c-.06-.2-.21-.37-.35-.52-2.35-2.6-3.79-6-4.01-9.5-.21-3.39.76-6.92,3-9.48s5.8-4.02,9.15-3.38c2.41.46,4.6,1.99,5.87,4.09,1.62-.99,3.25-1.97,4.87-2.96-1.63-3.21-4.5-5.77-7.88-7.01-3.75-1.38-8.59-1.32-11.9,1.1-3.04,2.22-5.41,5.32-6.87,8.78-.6,1.42-1.04,2.91-1.32,4.43-1.04,5.76.33,11.87,3.54,16.76,1.02,1.56,2.27,3.04,3.96,3.82.62-1.79,1.24-3.59,1.86-5.38.08-.22.16-.46.1-.7,0-.01,0-.03-.01-.04Z"/>
  </g>
</svg>