<?xml version="1.0" encoding="UTF-8"?>
<svg id="Lag_1" xmlns="http://www.w3.org/2000/svg" version="1.1" viewBox="0 0 513.8 502.2">
  <!-- Generator: Adobe Illustrator 30.0.0, SVG Export Plug-In . SVG Version: 2.1.1 Build 123)  -->
  <defs>
    <style>
      .st0, .st1, .st2, .st3 {
        fill: none;
        stroke-linecap: round;
        stroke-miterlimit: 10;
      }

      .st0, .st2 {
        stroke: #3c6677;
      }

      .st1 {
        stroke: #3f1b09;
      }

      .st4 {
        fill: #f5d24d;
      }

      .st2 {
        stroke-width: .9px;
      }

      .st5 {
        fill: #3f1b09;
      }

      .st6 {
        fill: #8c7648;
      }

      .st7 {
        fill: #fff;
      }

      .st8 {
        fill: #e8d160;
      }

      .st9 {
        fill: #840b15;
      }

      .st10 {
        fill: #3c6677;
      }

      .st11 {
        fill: #ccb656;
      }

      .st12 {
        fill: #c91417;
      }

      .st13 {
        fill: #e6e2cc;
      }

      .st14 {
        fill: #fdf1e4;
      }

      .st3 {
        stroke: #b7a34e;
      }

      .st15 {
        fill: #6b2a0e;
      }

      .st16 {
        fill: #ada157;
      }

      .st17 {
        fill: #4e87a0;
      }

      .st18 {
        fill: #826b2d;
      }
    </style>
  </defs>
  <path id="bobble" class="st13" d="M200.3,9.9c-36.4,3.3-73,15-95.9,37.5-18,17.7-25.9,40.1-37.6,60.8-14.7,25.9-35.9,49.6-47.4,76.5-21.8,51.1-6.1,106.8,9.7,159.2,7,23.4,14.5,47.5,32.7,66.8,23.7,25.2,62.2,38.7,98.9,51.1,40,13.5,80.8,27.2,124.2,30.5,43.4,3.3,90.5-5.6,119.5-31,19.1-16.7,28.6-38.7,44.2-57.4,18.8-22.6,47.4-42.1,52.6-68.8,4-20.9-7.5-41.6-10.7-62.7-5.5-36.2,13.7-72.4,10.4-108.7-3.5-38-31.7-72.6-68-98-29-20.3-74.2-47.8-113.2-53.5-14.9-2.2-31,0-46.1-1.1-24.4-1.9-48.7-3.4-73.2-1.1Z"/>
  <g id="svampmedstrik">
    <path class="st11" d="M188.6,299.6c4.5,0,8.6.6,13,1.3,1.5.2,3.8.8,5.3,1.2,5.1,1.4,9.8,1.7,15,2.8,9,1.8,23.5,2.9,32.4,1.3-1.2-2-8.2-5.4-10.3-6.4s-4.4-1.8-6.6-2.7c-6.8-2.8-12.9-7.1-19.9-9.5-7-2.4-14.5-2.8-21.8-3.6-2.7-.3-5.4-.6-8.1-.5s-5.5.8-7.6,2.4c-2,1.4-3.3,3.5-4.2,5.7-.5,1.3-.8,2.9,0,4.1s.2,2.1,1.1,2.4c3.4.9,8.1,1.4,11.8,1.5Z"/>
    <g id="krop">
      <g>
        <path class="st12" d="M318,170.8c-35.3-17.3-74.8-22.3-115-19.4-3.1,6-5.5,21.3-5.5,21.3-1,6.8-2.4,17.8-2.4,17.8h0c-.6,0-15.6-1.7-19.1-2.8-11.1-3.3-22.8-7-30.5-15.7-10.8-12.1-10.7-30.7-5.9-46.3,3.5-11.2,9-21.5,15.9-30.8h0c.8,11,13.5,19.2,24.4,18.1,10.9-1,20.2-10.4,22.4-21.2,2.3-10.8-1.8-22.3-9.2-30.4v-.2c3.4-2.2,7-4.2,10.7-6.1,33.2-16.9,74.5-22.2,107.3-4.6,29.2,15.6,47,46.1,62.1,75.6,4.8,9.3,9.5,18.9,11.1,29.2,2.7,17.3-2.2,38.8-17.5,47.3-14,7.8-27,8.8-47.3,9.5,1-10.5.7-29.7-1.5-41.6ZM368.9,151.7c.8-5.5.9-11.3-1.1-16.5-6-15.2-27.7-15.9-36.6-3-4.8,7-4.8,16.8-.4,24,4.4,7.2,13,11.6,21.5,11.4,4.5,0,9.2-1.5,12.3-4.9,2.7-3,3.8-7.1,4.4-11.1ZM318.7,102c4-7.5,4.3-19.7-5.7-27.5-9.2-7.1-21.5-13.4-31.3-10.6-9.3,2.7-13.7,12.6-10.6,22.6,3,10,12.9,19.4,23.6,23.2,5.3,1.8,10.9,2.4,15.2.7,4.1-1.5,6.8-4.8,8.8-8.5ZM237.8,114.3c.6-7.6-8.7-14-15.6-10.8-6.9,3.3-7.8,14.6-1.5,18.9,6.3,4.3,16.5-.5,17.1-8.1Z"/>
        <path class="st14" d="M367.8,135.2c2,5.2,2,11,1.1,16.5-.6,4-1.7,8.1-4.4,11.1-3,3.4-7.7,4.8-12.3,4.9-8.5.2-17-4.2-21.5-11.4-4.5-7.2-4.4-17.1.4-24,8.9-12.9,30.7-12.2,36.6,3Z"/>
        <path class="st14" d="M324.1,263.7c1.4,4.1,2.7,12.8,1.5,19.4-1.4,7.7-5.2,14-12.1,17.8-11.6,6.4-25.5,6.6-38.8,5.9-9.2-.5-18.4-1.4-27.6-2.4-9.2-.9-18.4-2-27.5-3.5-13.1-2.1-26.7-5.2-36.7-13.9-5.9-5.2-10.3-12.6-10.1-20.4.2-6.6,3.6-12.8,7.6-18.1,3.9-5.4,7-10.5,10-16.4,6.4-12.6,3.7-27.6,4.6-41.5h0s1.4-11,2.4-17.8c0,0,2.4-15.3,5.5-21.3,40.2-2.8,79.7,2.2,115,19.4,2.2,11.9,2.5,31.1,1.5,41.6-2,13.9-5.4,19.4-1.8,33.2,1.7,6.4,4.2,11.9,6.3,18.2Z"/>
        <path class="st14" d="M313,74.6c10,7.8,9.7,20,5.7,27.5-2,3.6-4.7,6.9-8.8,8.5-4.4,1.6-9.9,1.1-15.2-.7-10.7-3.7-20.6-13.1-23.6-23.2-3-10,1.4-19.9,10.6-22.6,9.8-2.9,22.1,3.5,31.3,10.6Z"/>
        <path class="st14" d="M222.2,103.5c6.9-3.3,16.2,3.1,15.6,10.8-.6,7.6-10.8,12.5-17.1,8.1-6.3-4.3-5.4-15.6,1.5-18.9Z"/>
        <path class="st14" d="M193.1,61.6c7.4,8.1,11.5,19.6,9.2,30.4-2.3,10.8-11.5,20.1-22.4,21.2-10.9,1-23.7-7.2-24.4-18.1h0c10-13.4,23.1-24.8,37.5-33.6v.2Z"/>
      </g>
      <path class="st9" d="M202.2,151.8c-20.3,2.1-42.6,4-61.6,11.7,3.8,9.1,13.2,15.8,23.1,19.8,9.2,3.7,20.3,5.7,31,6.8,1.1-11.4,4.6-33.3,7.4-38.3Z"/>
      <path class="st9" d="M318.8,171.8c1.8,13.4,2.1,26.4,1.1,39.9,15.5-.3,30-1.5,42.3-7.2-6.8-11.4-27.5-24.7-43.5-32.7Z"/>
    </g>
    <g id="sko">
      <path class="st18" d="M221,379.9c-1,.6-2.9,1.5-4,2l3.3,2.1c.2-1.1.5-2.7.7-4.1Z"/>
      <path class="st18" d="M269.5,383c0,1.1,0,3.1.2,4.2,1.3-.8,3.8-2.6,3.2-2-1-.6-2.1-1.4-3.3-2.1Z"/>
      <g id="højrefod">
        <g>
          <path class="st4" d="M315.7,381.8c.7,2.9.5,10.1-1.3,11.9-2.2,2.2-7.5,2.5-10.5,2.5-11.1-.1-21.2-4.3-30.5-10.4-1.3-.9-2.7-1.8-4-2.8v4.1c.1,0-9.6-6.1-9.6-6.1-.1-3.1,0-5.6-.2-8.5.2.4.4.8.7,1.1,1.2,1.4,3.5,2.2,5,3.2,6.8,4.3,13.4,8.7,21.9,11.7,3.3,1.1,5.9,2.2,9.3,2.9,2.5.5,5.7.6,8.2.6,1.9,0,3.9,0,5.8-.6s3.6-1.8,4.4-3.6c.8-1.9.9-4,.5-6Z"/>
          <path class="st6" d="M259.8,327.4c-1.9-3.6,7.5-4.8,11-5,6.6-.3,13.4-.2,20,.2,1.9.1,4,.3,5.6,1.1,1.2.6,2.1,1.7,2,2.7,0,.3-.1.6-.3.8-.7.9-2.3,1.4-3.8,1.7-9.2,1.9-19.1,2.3-28.6,1.1-2-.2-4.2-.6-5.2-1.8-.2-.3-.4-.5-.6-.8Z"/>
          <path class="st16" d="M260.3,328.2c1,1.2,3.2,1.6,5.2,1.8,9.5,1.1,19.4.8,28.6-1.1,1.5-.3,3.1-.7,3.8-1.7.2-.2.3-.5.3-.8h.1c-.8,12.5-1.6,24.9-2.4,37.4,4,1.8,8.1,3.7,11.6,6.3,3.5,2.7,6.5,6.2,7.7,10.4.1.4.2.9.3,1.3.4,2,.3,4.2-.5,6-.8,1.8-2.5,3-4.4,3.6s-3.8.6-5.8.6c-2.5,0-5.8,0-8.2-.6-3.4-.6-6-1.8-9.3-2.9-8.5-3-15.1-7.4-21.9-11.7-1.6-1-3.9-1.8-5-3.2-.3-.4-.5-.7-.7-1.1-1.1-2.2-.8-4.9-.7-7.4l.5-37.7h.2c.1.1.3.4.6.7Z"/>
          <path class="st6" d="M237.8,326.6c-1.2,1-3.4,1.1-5.4,1.1-9.6-.2-19.4-1.9-28.3-5.1-1.4-.5-3-1.1-3.6-2.2-.2-.3-.2-.6-.2-.8,0-1,1-2,2.3-2.4,1.7-.6,3.7-.5,5.7-.3,6.6.5,13.4,1.3,19.9,2.5,3.4.7,12.6,3.2,10.3,6.5-.2.2-.4.5-.6.7Z"/>
          <path class="st16" d="M197.3,357c.9-12.5,1.9-25,2.8-37.5h.1c0,.3,0,.6.2.8.6,1,2.1,1.7,3.6,2.2,8.9,3.2,18.7,4.9,28.3,5.1,2,0,4.2,0,5.4-1.1.3-.2.5-.5.6-.7h.2c-1.6,12.6-3.1,25.2-4.7,37.7-.3,2.6-.3,5.2-1.7,7.2-.2.3-.4.5-.7.8-1.4,1.3-3.9,2.1-5.6,2.8-7.4,3.3-14.5,6.8-23.4,8.6-3.5.7-6.2,1.4-9.7,1.6-2.5.1-5.8-.2-8.3-.6-1.9-.3-3.9-.6-5.6-1.5-1.8-.8-3.3-2.3-3.9-4.1-.5-2-.4-4,.3-6,.1-.5.3-.9.5-1.4,1.8-4.1,5.3-7.2,9.2-9.3,3.9-2.1,8.2-3.4,12.4-4.7Z"/>
          <path class="st4" d="M221,379.9c-1.4.8-2.9,1.5-4.3,2.2-10.1,4.8-20.7,7.6-31.8,6.2-2.9-.4-8.1-1.5-10.1-3.9-1.5-2-.8-9.1.3-11.9-.6,1.9-.8,4-.3,6,.5,1.9,2.1,3.3,3.9,4.1,1.8.8,3.7,1.2,5.6,1.5,2.5.4,5.8.7,8.3.6,3.5-.2,6.2-.9,9.7-1.6,8.9-1.8,16.1-5.3,23.4-8.6,1.7-.8,4.2-1.5,5.6-2.8.3-.3.5-.5.7-.8-.5,3-.8,5.5-1.4,8.5-.1,0-10.5,4.7-10.5,4.7l.7-4.1Z"/>
        </g>
      </g>
    </g>
    <path id="mund" class="st1" d="M246.3,202.8c.4,4.7,4.4,8.9,9,9.5s9.6-2.3,11.2-6.8"/>
    <g id="_øje2" data-name="øje2">
      <path class="st5" d="M243.4,190.4c.5,1.9,2,3.7,3.9,3.8,2.8.2,4.7-2.9,5.2-5.6.3-1.9.3-3.9-.6-5.5s-2.6-3-4.5-2.9c-4.5.2-4.8,7.2-4,10.3Z"/>
      <path class="st7" d="M245.2,184.1c.3.6,1.2.8,1.8.5s.8-1.2.4-1.8c-.9-1.3-2.9,0-2.2,1.3Z"/>
    </g>
    <g id="_øje1" data-name="øje1">
      <path class="st5" d="M264.9,194.1c.5,1.9,2,3.7,3.9,3.8,2.8.2,4.7-2.9,5.2-5.6.3-1.9.3-3.9-.6-5.5s-2.6-3-4.5-2.9c-4.5.2-4.8,7.2-4,10.3Z"/>
      <path class="st7" d="M266.7,187.8c.3.6,1.2.8,1.8.5s.8-1.2.4-1.8c-.9-1.3-2.9,0-2.2,1.3Z"/>
    </g>
    <path id="ben2" class="st15" d="M284,307.5c-3.5,0-8.3-.7-11.9-.9.3,8.6,1.4,15.7,2,24.1,3.4.2,10.1,0,12.5-.6,0,0,.1.3,0-1.2-.7-7.1-1.3-13.9-2.6-21.3Z"/>
    <path id="ben1" class="st15" d="M216.7,300.6c3.5,0,8.2,1.1,11.7,1-.6,8.9-2.1,16.4-2.6,25.7-3.6,0-10.3-1.3-12.8-2.1,0,0,0-.5.2-2.1.9-7.4,1.8-14.8,3.4-22.5Z"/>
    <g id="strik">
      <path class="st8" d="M188.9,219.7c-7.6,19.3-18.2,39.6-20.3,59.5-.4,4.1-2.8,12-.4,15.4,2.3,3.4,8.6,4.5,12.7,3.8,4.1-.8,8.4-6.6,12.3-8,14.4-4.9,30.3.2,44,7s26.7,15.5,41.7,18.4c10,1.9,20.3,1.1,30.3-.5,5.9-.9,11.8-2.2,16.8-5.5,9.6-6.5,12.8-19.6,10.7-31-2-11.4-8.3-21.5-14.5-31.3-3.4-5.4-1.7-8.1-4.2-13.5-1.9-4.2-17.2-3.2-21.7-3.7-34.3-4-68.6-7.9-107.4-10.4Z"/>
      <path class="st17" d="M189.1,233c-.6,5.3-2.1,11.1-4.7,14.5s-5,4.5-10,8.9c-8.9,7.9-12.6,29.2-15.1,43.3s-2.9,27.4-4,41.7c-1,13.9-1.4,12.1-3.5,25.9-.6,3.9-11.4,16.2-15.1,18.1s-6.9,3-11.4,4.3c-6.4,1.8-17.6,1.6-27.8,1.6-21.2,0-5.4-22.3-1.8-25.1,5.3-4.2,25.8-5.5,30-9.6,4.2-4.1,5.9-7.6,7.1-13.2,4-18.3,3.9-37.3,6.3-55.9,2.4-18.6,9-39,21.8-52.7,3.9-4.2,7.2-7.2,12.5-9.5s10.7-5,14.7-2.1,1,8.4.8,10Z"/>
      <path class="st17" d="M195.5,211.6c-2.6-.2-.9-.2-3.4-.2s-5.1,1.7-5.3,4.1c-.2,2.5,1.9,4.7,4.1,5.8,5.5,2.7,10.8,4.3,17.1,5.3,34.3,5.7,69.9,9.1,105.1,8.7,3.1,0,6.9-.6,8-3.5.8-2.4-.9-5.1-3.2-6.1s-4.9-1-7.4-.9c-17.5.7-70.9-.3-113.2-12.6"/>
      <path class="st10" d="M94,368.3c-3.4,4.4-4.2,5.8-6.2,10.8-.5,1.3-1,4-.9,5.4s.5,3.5,1.8,4.2c1.5.9,3.6,0,5-1s3-2.3,3.8-3.9c1.7-3.8,2.8-9.2,2.9-13.3,0-.9,0-4.6-2.2-5.3s-3.3,1.9-4,3.1Z"/>
      <path class="st17" d="M316.3,248.1c.6,5.3,2.1,11.1,4.7,14.5s5.5,4,10,8.9c10.7,11.7,13.1,30.4,15.1,43.3,2.1,14.2,2.9,27.4,4,41.7,1,13.9,1.4,12.1,3.5,25.9.6,3.9,11.4,16.2,15.1,18.1s6.9,3,11.4,4.3c6.4,1.8,17.6,1.6,27.8,1.6,21.2,0,5.4-22.3,1.8-25.1-5.3-4.2-25.8-5.5-30-9.6s-5.9-7.6-7.1-13.2c-4-18.3-3.9-37.3-6.3-55.9-2.4-18.6-9-39-21.8-52.7-3.9-4.2-7.2-7.2-12.5-9.5s-10.7-5-14.7-2.1-1,8.4-.8,10Z"/>
      <path class="st10" d="M411.4,383.4c3.4,4.4,4.2,5.8,6.2,10.8.5,1.3,1,4,.9,5.4s-.5,3.5-1.8,4.2c-1.5.9-3.6,0-5-1s-3-2.3-3.8-3.9c-1.7-3.8-2.8-9.2-2.9-13.3,0-.9,0-4.6,2.2-5.3s3.3,1.9,4,3.1Z"/>
      <path class="st3" d="M169.8,291.6c.9,1.6,2.7,2.5,4.5,2.3"/>
      <path class="st3" d="M178.1,293.5c1.8-.2,3.5-1.1,4.7-2.4"/>
      <path class="st3" d="M186.8,288.1c1.3-1.5,3.2-2.5,5.2-2.9"/>
      <path class="st3" d="M196.9,283.9c2.1-.7,4.3-1,6.5-1.1"/>
      <path class="st3" d="M207.1,283l5.5.8"/>
      <path class="st3" d="M217.1,284.8c2,0,4,.4,5.8,1.2"/>
      <path class="st3" d="M227.5,287.4l4.9,1.5"/>
      <path class="st3" d="M236.5,290.6l5.8,2.4"/>
      <path class="st3" d="M248,295.3l5.1,2.3"/>
      <path class="st3" d="M257.8,300.3c1.7,1,3.5,1.8,5.4,2.3"/>
      <path class="st3" d="M267.4,304.6l5.4,2.5"/>
      <path class="st3" d="M290.9,310.7c2.7.4,5.5.3,8.2-.3"/>
      <path class="st3" d="M305.8,309.2c2.3,0,4.6-.5,6.6-1.6"/>
      <path class="st3" d="M317.9,305.5c2.1-.6,4.1-1.6,5.8-2.9"/>
      <path class="st3" d="M328.3,299.3l3.9-3.4"/>
      <path class="st3" d="M278.3,308.1c2.5,1.2,5.2,1.9,7.9,2.2"/>
      <path class="st0" d="M186.3,234.5c-.2,1.5-.5,3.1-1.1,4.5"/>
      <path class="st0" d="M184.2,242.7c-.7,1.5-1.7,2.8-2.9,4"/>
      <path class="st0" d="M178.9,249.3c-.8,1.1-1.8,2-2.9,2.7"/>
      <path class="st0" d="M318.5,239.4c-.2,1.4-.2,2.8,0,4.2"/>
      <path class="st0" d="M319,247.1c0,1.8.2,3.6.7,5.3"/>
      <path class="st0" d="M320.8,256c.5,1.6,1.4,3.1,2.6,4.2"/>
      <path class="st0" d="M325.7,263.4l3.8,3.6"/>
      <path class="st0" d="M187,226.1c.1,1.5,0,3.1-.3,4.6"/>
      <path class="st0" d="M101.8,364.9c.6,1.2,1,2.7.9,4.1"/>
      <path class="st0" d="M103.1,371.4l-.2,4.3"/>
      <path class="st0" d="M102.1,378.1c0,1.4-.3,2.9-.9,4.2"/>
      <path class="st0" d="M100,384.6c-.3,1.3-1.1,2.4-2.1,3.2"/>
      <path class="st0" d="M93.6,390.1c.7.1,1.5,0,2.1-.5"/>
      <path class="st0" d="M404.4,379.9c-.7,1.1-1.1,2.3-1.2,3.6"/>
      <path class="st0" d="M403,385.4l.4,4.6"/>
      <path class="st0" d="M403.6,391.7c0,1.1.2,2.2.7,3.1"/>
      <path class="st0" d="M404.6,397.5c.3,1.1.9,2.1,1.8,2.8"/>
      <path class="st0" d="M407.4,402.2c.9,1,2.1,1.8,3.3,2.3"/>
      <path class="st0" d="M249.3,222.5c-2.4,2.2-2.8,6.2-.9,8.9"/>
      <path class="st0" d="M242.3,221.6c-2.2,2.3-2.6,6.2-.9,8.9"/>
      <path class="st0" d="M236.8,221c-2.2,2.3-2.6,6.2-.9,8.9"/>
      <path class="st0" d="M231.4,220.2c-2.2,2.3-2.6,6.2-.9,8.9"/>
      <path class="st0" d="M225.8,219.5c-2.2,2.3-2.6,6.2-.9,8.9"/>
      <path class="st0" d="M219.4,218.3c-2.2,2.3-2.6,6.2-.9,8.9"/>
      <path class="st0" d="M213.3,217.1c-2.2,2.3-2.6,6.2-.9,8.9"/>
      <path class="st0" d="M206.7,215.9c-2.2,2.3-2.6,6.2-.9,8.9"/>
      <path class="st0" d="M199.9,214.1c-2.2,2.3-2.6,6.2-.9,8.9"/>
      <path class="st0" d="M193.2,212c-2.2,2.3-2.6,6.2-.9,8.9"/>
      <path class="st0" d="M254.1,223.2c.5,3,0,6.4-.7,8.7"/>
      <path class="st0" d="M259.7,223.7c2,2.6,1.8,6.6-.5,9"/>
      <path class="st0" d="M267.2,224.2c2,2.6,1.8,6.6-.5,9"/>
      <path class="st0" d="M274.6,224.6c-.2-.9,1.4,6.1-.5,9"/>
      <path class="st0" d="M282,225c2,2.6,1.8,6.6-.5,9"/>
      <path class="st0" d="M288.7,225.5c2,2.6,1.8,6.6-.5,9"/>
      <path class="st0" d="M296.1,225.7c2,2.6,1.8,6.6-.5,9"/>
      <path class="st0" d="M303.2,225.7c2,2.6,1.8,6.6-.5,9"/>
      <path class="st0" d="M310.4,225.9c2,2.6,1.8,6.6-.5,9"/>
      <path class="st2" d="M317.1,226.3c2,2.3,1.9,5.9-.3,7.9"/>
      <path class="st11" d="M183.6,248.5c-2,2-1.5,1.7-3.8,3.6s-4.9,2.7-6.2,5.4c-.4.8-1.3,3.6-1.5,4.5-2.6,8.4-3.2,16.3-4.7,24.7,2.5-7.1,4.3-14.7,5.4-17.7s1.2-3.9,3.1-7.6,6.3-8.7,7.7-12.8"/>
      <path class="st11" d="M336,295c2-7.6,3-14.2-2.3-20.6-4.1-5-8.5-8.4-12.7-11.8,2.2,4.9,4.4,6.7,7.4,10.9,2.6,3.7,3.8,7.2,5,10.2s2,10.1,2.6,11.3Z"/>
    </g>
  </g>
</svg>