<?xml version="1.0" encoding="UTF-8"?>
<svg id="Layer_1" xmlns="http://www.w3.org/2000/svg" version="1.1" viewBox="0 0 276.3 267.4">
  <!-- Generator: Adobe Illustrator 30.0.0, SVG Export Plug-In . SVG Version: 2.1.1 Build 123)  -->
  <defs>
    <style>
      .st0 {
        fill: #f15633;
      }

      .st1, .st2 {
        fill: #fee8e0;
      }

      .st3 {
        fill: none;
        stroke: #f15633;
        stroke-width: 5px;
      }

      .st3, .st2 {
        stroke-miterlimit: 10;
      }

      .st2 {
        stroke: #f47639;
        stroke-width: 9px;
      }
    </style>
  </defs>
  <g id="klat">
    <path class="st2" d="M4.5,155.6c-.1-7,2-14.4,3.5-22.6,1-5.6,1.6-11.3,1.8-17,.3-8.3-.2-16.6,1.1-24.8,2.8-16.6,13.2-31.3,26.4-41.9s28.8-17.7,44.7-23.6c21.6-8.1,43.9-14.4,66.6-18.7,9.7-1.9,19.7-3.4,29.5-1.9,16.4,2.5,30.4,13,43.3,23.4,19.4,15.7,39.3,33.4,46,57.3,2.8,9.9,3,20.3,3.3,30.6.3,13.5.7,27,1,40.5.2,7.5.4,15.1-1.5,22.3-2.1,7.9-6.5,14.9-11.8,21.2-13.7,16.6-32.6,28.1-51.1,39.2-10.1,6.1-20.4,12.3-31.7,16-8.7,2.8-17.8,4.1-26.9,5.2-18.3,2.2-37,3.5-55-.6s-35.2-14.6-43.6-30.8c-5.7-11.1-7.1-24.2-14.5-34.2-6-8.2-15.3-13.2-22.6-20.3-6.5-6.3-8.6-12.6-8.7-19.2h0Z"/>
  </g>
  <g id="hus">
    <rect class="st1" x="91.6" y="142.5" width="33.5" height="60.7"/>
    <polygon class="st0" points="96.7 105.3 92.9 115.9 99.8 115.9 100.2 105 96.7 105.3"/>
    <path class="st1" d="M97.7,101.2c1.5-6,3.9-11.6,5.9-17.5,1-3,1.1-5.9,2-8.9.3-.9,1.9-2.9,2.7-3.5s2.7-.3,3.6-.3c5.7,0,11.3,0,17,.1-1.4,10.1-2.8,20.2-4.3,30.3,0,.1,0,.3-.1.4-.1.1-.3.1-.5.1-8.6-.2-17.7-.7-26.3-.9Z"/>
    <path class="st1" d="M160.9,101.2c1.5-6-2.5-15.1-8.4-17.2s6.8-7.9,7.8-10.9c.3-.9,10.4-1.3,11.2-1.8s2.7-.3,3.6-.3h5.6c2.8,10.5,5.6,20.3,8.5,29.9,0,.1-1.5.9-1.6,1-.1.1-.3.1-.5.1-8.6-.2-17.7-.7-26.3-.9h0Z"/>
    <rect class="st3" x="142" y="140" width="55.5" height="36.5"/>
    <rect class="st3" x="89.1" y="140" width="38.4" height="66.5"/>
    <rect class="st0" x="59.8" y="203.2" width="167.1" height="6.6" rx="2.8" ry="2.8"/>
    <rect class="st0" x="70.6" y="123.8" width="6.8" height="84.5" rx="2.8" ry="2.8"/>
    <rect class="st0" x="76.5" y="54.4" width="134.9" height="5.9" rx="2.8" ry="2.8"/>
    <path class="st1" d="M82.2,60.3h124.3c1.7,0,3,1.3,3,2.8v1.5c0,1.6-1.4,2.8-3,2.8h-124.3c-1.7,0-3-1.3-3-2.8v-2.7c0-1.6,1.3-1.7,3-1.6Z"/>
    <rect class="st0" x="77" y="67.5" width="134" height="5.7" rx="2.8" ry="2.8"/>
    <rect class="st0" x="96.2" y="100.9" width="95.8" height="5.7" rx="2.8" ry="2.8"/>
    <path class="st0" d="M59.5,98.6l16.1-27.1c.5-1.5,9.3-3.8,10.8-3.3l18.8,2.2c1.5.5,2.3,2.1,1.8,3.6l-13.4,40.6c-.5,1.5-2.2,2.8-3.7,2.3l-29.9,2.8c-5.1-6.7-1.2-19.8-.6-21.1Z"/>
    <rect class="st0" x="209.5" y="120.6" width="6.8" height="85.9" rx="2.8" ry="2.8"/>
    <rect class="st0" x="205.3" y="55.6" width="6.1" height="17.5" rx="2.1" ry="2.1"/>
    <rect class="st0" x="76.5" y="55.6" width="6.1" height="17.5" rx="2.1" ry="2.1"/>
    <rect class="st0" x="113.6" y="163.9" width="6.1" height="16.8" rx="2.1" ry="2.1"/>
    <path class="st0" d="M77.3,115.9h18.2c0,6.4-8.2,11.7-18.2,11.7s-18.6-5.7-18.6-12.1c0,0,18.6.5,18.6.5Z"/>
    <path class="st0" d="M110.6,115.9h18.2c0,6.4-8.2,11.7-18.2,11.7s-18.2-5.3-18.2-11.7h18.2Z"/>
    <path class="st0" d="M144,115.9h18.2c0,6.4-8.2,11.7-18.2,11.7s-18.2-5.3-18.2-11.7h18.2Z"/>
    <path class="st0" d="M176.1,115.9h18.2c0,6.4-8.2,11.7-18.2,11.7s-18.2-5.3-18.2-11.7h18.2Z"/>
    <path class="st0" d="M209.6,115.9h18.9c0,6.4-8.9,11.7-18.9,11.7s-18.2-5.3-18.2-11.7h18.2Z"/>
    <path class="st1" d="M176.1,106.6h13.5c0,8.9-6.1,16.1-13.5,16.1s-13.5-7.3-13.5-16.1h13.5Z"/>
    <path class="st1" d="M110.6,105.5h13.5c0,9.5-6.1,17.2-13.5,17.2s-13.5-7.8-13.5-17.2h13.5Z"/>
    <polygon class="st0" points="128.5 73.2 124.5 101.5 124.1 105.5 124 107.7 123.6 110.2 122.9 112.6 121.9 114.9 121.3 115.9 165.1 115.9 164.1 114 163.5 112.3 162.9 109.8 162.6 108 162.6 106.6 162.2 97.3 161.2 85.7 160.3 73.2 128.5 73.2"/>
    <path class="st0" d="M187.1,115.9c2.1-4.4,2.9-9.5,2.1-14.3-.3-1.7-.7-3.3-1.2-5-1.1-4.2-2.3-8.4-3.4-12.6-.6-2.1-1.1-4.2-1.7-6.3-.5-1.7-1.6-4.2-1.5-5.9,4-.4,8.2,0,12.3,0h12.4c1.5,0,3.5-.3,4.8-1.1,4.4,7.1,7.9,15,12.3,22.2,3.3,5.3,5.7,9.1,6,15.4.1,2.2-.2,8.6-1.2,10.2-.5.8-1.3-2.6-2.3-2.6h-38.7,0Z"/>
    <polygon class="st1" points="77.3 203.2 77.3 127.5 79.4 127.5 81.7 127.2 83.5 126.8 85.3 126.4 86.8 125.8 88.4 125.1 90.1 124.2 91.6 123.1 92.8 122 93.9 120.7 94.6 121.5 96.1 122.9 97.5 123.9 99.6 125.2 102.6 126.4 105.4 127.1 106.4 127.2 107.8 127.4 109.2 127.5 111.2 127.5 112.3 127.5 114.1 127.3 115.9 127 117.9 126.6 119.7 126 121.4 125.2 122.7 124.6 124 123.8 125.2 122.8 125.8 122.2 126.4 121.7 126.9 121 127.3 120.5 127.5 120.9 128.2 121.7 129 122.5 129.8 123.2 130.7 123.8 132.1 124.7 133.8 125.5 135.2 126.1 136.5 126.5 138.2 126.9 140.6 127.3 142.4 127.5 143.6 127.5 145.1 127.5 146.5 127.4 147.9 127.3 149.7 126.9 151.3 126.6 153.6 125.8 155.6 124.8 157.5 123.7 158.9 122.6 160 121.4 161.1 122.5 162.6 123.7 164 124.6 166.1 125.6 168.1 126.4 170.4 126.9 172.2 127.3 174.4 127.5 176.5 127.5 178.9 127.4 181.1 127.1 183.6 126.5 185.6 125.8 187.8 124.8 189.5 123.8 191.4 122.2 192.8 120.5 193.4 121.3 194.9 122.8 196.6 124.1 199.6 125.6 201.6 126.3 204.7 127.1 207 127.4 209 127.5 209.6 127.5 209.6 203.2 200.4 203.3 200.1 178.9 200.2 137.3 139.6 137.3 130.1 137.3 86.7 137.3 86.7 203.2 77.3 203.2"/>
    <polyline class="st1" points="130.2 203.2 200.4 203.3 200.1 178.9 139.6 178.9 139.6 137.3 130.1 137.3"/>
    <rect class="st1" x="144.5" y="142.5" width="50.5" height="31.4"/>
  </g>
</svg>